<svg width="31" height="30" viewBox="0 0 31 30" fill="none" xmlns="http://www.w3.org/2000/svg">
<path d="M16.9982 16.1367C16.9528 16.2276 16.9073 16.3185 16.8164 16.364L17.9073 16.9549L16.9982 18.6367H18.2255L18.9073 19.6822L19.8164 18.0004L20.1346 18.1822C20.2255 18.2276 20.3164 18.1822 20.3164 18.1367C20.3619 18.0913 20.3164 18.0004 20.271 17.9549L16.9982 16.1367Z" fill="#1F458A"/>
<path d="M24.7699 15.864C25.7991 15.864 26.6335 15.0296 26.6335 14.0004C26.6335 12.9711 25.7991 12.1367 24.7699 12.1367C23.7406 12.1367 22.9062 12.9711 22.9062 14.0004C22.9062 15.0296 23.7406 15.864 24.7699 15.864Z" fill="#1F458A"/>
<path d="M4.36396 27.864C4.22759 28.5913 4.68214 29.2731 5.40941 29.4094C6.09123 29.5458 6.8185 29.0913 6.95487 28.364L8.13669 22.3185C7.27305 22.2276 6.40941 22.0004 5.54578 21.6367L4.36396 27.864ZM11.864 21.9549C11.0003 22.2276 10.1367 22.364 9.2276 22.364C9.50032 24.5458 10.1821 26.6367 11.4094 28.7276C11.773 29.364 12.5458 29.5913 13.2276 29.2276C13.864 28.864 14.0912 28.0458 13.7276 27.4094C12.6821 25.6367 12.0912 23.8185 11.864 21.9549Z" fill="#1F458A"/>
<path d="M9.18004 6.95579C10.4854 6.95579 11.5437 5.89755 11.5437 4.59215C11.5437 3.28675 10.4854 2.22852 9.18004 2.22852C7.87464 2.22852 6.81641 3.28675 6.81641 4.59215C6.81641 5.89755 7.87464 6.95579 9.18004 6.95579Z" fill="#1F458A"/>
<path d="M21.0891 1.95508L20.2254 0.455078L19.3618 1.90962C19.5891 1.86417 19.9072 1.81871 20.18 1.81871C20.4982 1.81871 20.8163 1.86417 21.0891 1.95508ZM19.2709 8.09144L20.2709 9.59144L21.0436 8.09144C20.7709 8.18235 20.4982 8.22781 20.18 8.22781C19.8618 8.22781 19.5436 8.18235 19.2709 8.09144ZM22.9982 3.50053L23.4072 1.81871L21.7254 2.22781C22.2709 2.54599 22.7254 2.95508 22.9982 3.50053ZM17.3618 6.54599L16.9982 8.31871L18.5891 7.81872C18.0891 7.50053 17.6345 7.04599 17.3618 6.54599ZM23.4072 5.00053C23.4072 5.31871 23.3618 5.6369 23.2709 5.90962L24.7709 5.04599L23.3163 4.18235C23.3618 4.45508 23.4072 4.72781 23.4072 5.00053ZM16.9982 5.00053C16.9982 4.68235 17.0436 4.36417 17.1345 4.09144L15.6345 5.09144L17.1345 5.86417C17.0436 5.59144 16.9982 5.31871 16.9982 5.00053ZM21.7254 7.81872L23.4072 8.22781L22.9982 6.54599C22.68 7.1369 22.2254 7.54599 21.7254 7.81872ZM18.68 2.18235L16.9072 1.81871L17.4072 3.40962C17.68 2.90962 18.1345 2.50053 18.68 2.18235ZM17.5891 4.09144C17.4982 4.40962 17.4072 4.72781 17.4072 5.04599C17.4072 5.45508 17.4982 5.86417 17.68 6.22781V6.27326C17.9982 6.90962 18.5436 7.40962 19.2254 7.6369H19.18H19.2709C19.5436 7.72781 19.8618 7.77326 20.18 7.77326C20.5436 7.77326 20.9072 7.68235 21.2254 7.54599C21.2709 7.54599 21.2709 7.50053 21.3163 7.50053C21.9527 7.22781 22.4072 6.68235 22.68 6.09144C22.8163 5.77326 22.9072 5.40962 22.9072 5.04599C22.9072 4.68235 22.8163 4.31871 22.68 4.00053C22.4072 3.31871 21.8618 2.81871 21.18 2.50053C20.9072 2.36417 20.5436 2.27326 20.18 2.27326C19.8163 2.27326 19.4527 2.36417 19.1345 2.50053C19.0891 2.50053 19.0436 2.54599 18.9982 2.54599C18.3618 2.86417 17.8618 3.40962 17.5891 4.09144ZM12.2709 8.27326C8.99815 6.45508 6.81634 8.09144 6.13452 8.31871C5.40724 8.72781 5.81634 9.90962 2.99815 12.046C2.86179 11.0005 3.54361 9.90962 3.49815 8.86417C3.4527 7.81871 2.63452 6.77326 2.9527 5.77326H2.72543C2.40724 6.81871 3.22543 7.86417 3.27088 8.90962C3.31634 9.95508 2.54361 11.0914 2.77088 12.2278C2.58906 12.3642 2.49815 12.4096 2.17997 12.6824C1.81634 13.0005 1.72543 13.546 2.04361 13.9096C2.36179 14.3187 2.90724 14.3187 3.27088 14.046C3.49815 13.8642 3.77088 13.6824 3.99815 13.5005C4.54361 13.1369 5.04361 12.7278 5.63452 12.1369C5.77088 12.0005 5.90724 11.8187 6.04361 11.6369V13.0914L4.58906 20.6824C7.40724 22.3642 10.7709 22.4551 13.7709 20.6824L12.2709 13.0005V11.3642C16.18 17.5914 14.8163 15.4551 15.1345 15.9096C15.4072 16.3187 15.9527 16.4551 16.3618 16.1824C16.7709 15.9096 16.9072 15.3642 16.6345 14.9551C12.4527 8.36417 12.5891 8.45508 12.2709 8.27326ZM29.6345 19.6824C28.68 18.6369 27.68 17.5005 27.4982 17.3642C25.9527 16.0914 24.2709 16.0005 22.5891 17.0005C21.9527 16.546 20.7709 15.6824 20.3163 14.8642C20.1345 14.546 19.7254 14.4551 19.4072 14.6369C19.0891 14.8187 18.9982 15.2278 19.18 15.546C19.9527 16.8642 21.8163 18.0914 22.1345 18.2733L22.5436 23.8642C22.5436 24.0005 22.68 24.0914 22.7709 24.0914H22.8618L22.2709 28.5005C22.2254 29.0005 22.5436 29.4551 23.0436 29.5005C23.5436 29.546 23.9982 29.2278 24.0436 28.7278L24.68 24.0914H24.9072L25.0436 25.1824C25.0436 25.2733 25.0891 25.3642 25.1345 25.4551L26.8618 29.0005C27.0891 29.4551 27.5891 29.6369 28.0436 29.4096C28.4982 29.1824 28.68 28.6824 28.4527 28.2278L26.7709 24.8187L26.68 24.0914H26.7709C26.9072 24.0914 26.9982 24.0005 26.9982 23.8642L27.3618 19.1369L28.68 20.546C28.9072 20.8187 29.3618 20.8187 29.6345 20.5914C29.8618 20.4096 29.9072 19.9551 29.6345 19.6824ZM2.86179 5.27326H2.90724C3.67997 5.31871 4.77088 4.27326 4.86179 2.86417C4.9527 1.6369 4.17997 0.591442 3.13452 0.545987C2.13452 0.455078 1.22543 1.40962 1.17997 2.6369C1.08906 3.77326 1.77088 5.18235 2.86179 5.27326ZM3.31634 1.27326V1.40962C2.77088 1.09144 2.13452 1.50053 2.04361 2.18235H1.90724C1.9527 1.18235 2.77088 0.818714 3.31634 1.27326Z" fill="#1F458A"/>
</svg>
