<svg width="25" height="24" viewBox="0 0 25 24" fill="none" xmlns="http://www.w3.org/2000/svg">
<g clip-path="url(#clip0_669_3403)">
<path d="M24.4372 9.20577C24.2792 8.7198 23.8482 8.37574 23.3402 8.32978L16.4121 7.7008L13.6741 1.29054C13.472 0.819585 13.012 0.515625 12.5 0.515625C11.9881 0.515625 11.5279 0.819585 11.327 1.29054L8.58902 7.7008L1.65982 8.32978C1.15188 8.37666 0.721759 8.72072 0.562821 9.20577C0.404798 9.69174 0.550736 10.2248 0.934897 10.5617L6.17198 15.1539L4.62783 21.9549C4.51485 22.455 4.70895 22.9721 5.12387 23.272C5.3469 23.434 5.60893 23.515 5.87187 23.515C6.09783 23.515 6.32396 23.4549 6.52593 23.3341L12.5 19.762L18.473 23.3341C18.9112 23.5959 19.4622 23.5719 19.8762 23.272C20.2911 22.9721 20.4852 22.455 20.3722 21.9549L18.8281 15.1539L24.0652 10.5617C24.4491 10.2248 24.5953 9.69284 24.4372 9.20577Z" fill="#1C3F7E"/>
</g>
<defs>
<clipPath id="clip0_669_3403">
<rect width="24" height="24" fill="white" transform="translate(0.5)"/>
</clipPath>
</defs>
</svg>
