<svg width="25" height="24" viewBox="0 0 25 24" fill="none" xmlns="http://www.w3.org/2000/svg">
<g clip-path="url(#clip0_669_3385)">
<path d="M14.9375 7.97002V7.08708C15.2109 7.03178 15.4686 6.91614 15.6917 6.74859C15.9147 6.58105 16.0976 6.36583 16.2269 6.11863C16.3562 5.87143 16.4288 5.59848 16.4392 5.3197C16.4496 5.04091 16.3977 4.76331 16.2872 4.50714C16.1767 4.25098 16.0104 4.02271 15.8004 3.83898C15.5905 3.65525 15.3422 3.52069 15.0737 3.44512C14.8051 3.36955 14.5231 3.35488 14.2481 3.40216C13.9732 3.44945 13.7122 3.55751 13.4844 3.71846L5.6765 1.36121C5.59547 1.07485 5.4474 0.81191 5.24454 0.594154C5.04169 0.376398 4.78989 0.210089 4.50998 0.108992C4.23008 0.00789636 3.93012 -0.0250787 3.63494 0.0127969C3.33976 0.0506724 3.05784 0.158309 2.81253 0.326797C2.56721 0.495286 2.36556 0.719779 2.22425 0.981695C2.08295 1.24361 2.00606 1.53542 1.99995 1.83296C1.99383 2.1305 2.05868 2.42521 2.18911 2.69271C2.31954 2.96021 2.51181 3.19279 2.75 3.37121V10.4025C2.35477 10.6082 2.02346 10.9183 1.79208 11.2991C1.56069 11.6799 1.43806 12.1169 1.4375 12.5625V21.75H0.875C0.775544 21.75 0.680161 21.7895 0.609835 21.8598C0.539509 21.9301 0.5 22.0255 0.5 22.125L0.5 23.625C0.5 23.7244 0.539509 23.8198 0.609835 23.8901C0.680161 23.9604 0.775544 24 0.875 24H6.875C6.97446 24 7.06984 23.9604 7.14017 23.8901C7.21049 23.8198 7.25 23.7244 7.25 23.625V22.125C7.25 22.0255 7.21049 21.9301 7.14017 21.8598C7.06984 21.7895 6.97446 21.75 6.875 21.75H6.3125V12.5625C6.31198 12.1168 6.18936 11.6799 5.95797 11.299C5.72658 10.9182 5.39526 10.6081 5 10.4023V3.50752L12.7914 5.85971C12.8978 6.16773 13.0824 6.44281 13.3272 6.65798C13.5719 6.87314 13.8684 7.02101 14.1875 7.08708V8.02646C13.6766 8.1954 12.6875 8.64146 12.6875 9.56377V10.1966C12.6875 10.296 12.727 10.3914 12.7973 10.4617C12.8677 10.5321 12.963 10.5716 13.0625 10.5716C13.162 10.5716 13.2573 10.5321 13.3277 10.4617C13.398 10.3914 13.4375 10.296 13.4375 10.1966V9.56377C13.4375 9.0564 14.33 8.74477 14.6422 8.67577C14.6473 8.67465 14.6516 8.67258 14.6566 8.67127C14.6613 8.6724 14.6656 8.67465 14.6703 8.67577C14.9829 8.74365 15.875 9.05265 15.875 9.56377V10.1966C15.875 10.296 15.9145 10.3914 15.9848 10.4617C16.0552 10.5321 16.1505 10.5716 16.25 10.5716C16.3495 10.5716 16.4448 10.5321 16.5152 10.4617C16.5855 10.3914 16.625 10.296 16.625 10.1966V9.56377C16.625 8.50683 15.3269 8.07558 14.9375 7.97002ZM3.5 3.71208C3.74746 3.76249 4.00254 3.76249 4.25 3.71208V10.125H3.5V3.71208ZM5.5625 21.75H2.1875V18.9843H5.5625V21.75ZM3.875 16.5C3.97446 16.5 4.06984 16.5395 4.14016 16.6098C4.21049 16.6801 4.25 16.7755 4.25 16.875V17.25C4.25 17.3494 4.21049 17.4448 4.14016 17.5151C4.06984 17.5854 3.97446 17.625 3.875 17.625C3.77554 17.625 3.68016 17.5854 3.60984 17.5151C3.53951 17.4448 3.5 17.3494 3.5 17.25V16.875C3.5 16.7755 3.53951 16.6801 3.60984 16.6098C3.68016 16.5395 3.77554 16.5 3.875 16.5ZM3.5 15.375V15C3.5 14.9005 3.53951 14.8051 3.60984 14.7348C3.68016 14.6645 3.77554 14.625 3.875 14.625C3.97446 14.625 4.06984 14.6645 4.14016 14.7348C4.21049 14.8051 4.25 14.9005 4.25 15V15.375C4.25 15.4744 4.21049 15.5698 4.14016 15.6401C4.06984 15.7104 3.97446 15.75 3.875 15.75C3.77554 15.75 3.68016 15.7104 3.60984 15.6401C3.53951 15.5698 3.5 15.4744 3.5 15.375ZM5.5625 12.5625V13.1718H2.1875V12.5625C2.1875 12.1149 2.36529 11.6857 2.68176 11.3692C2.99822 11.0527 3.42745 10.875 3.875 10.875C4.32255 10.875 4.75177 11.0527 5.06824 11.3692C5.38471 11.6857 5.5625 12.1149 5.5625 12.5625ZM12.6987 5.04821L5.465 2.86421C5.5991 2.64955 5.68797 2.40978 5.72619 2.15958L12.9281 4.33421C12.804 4.55418 12.7258 4.79712 12.6987 5.04821ZM12.125 22.125C12.0255 22.125 11.9302 22.1645 11.8598 22.2348C11.7895 22.3051 11.75 22.4005 11.75 22.5C11.75 22.5994 11.7895 22.6948 11.8598 22.7651C11.9302 22.8354 12.0255 22.875 12.125 22.875H12.5C12.5995 22.875 12.6948 22.8354 12.7652 22.7651C12.8355 22.6948 12.875 22.5994 12.875 22.5C12.875 22.4005 12.8355 22.3051 12.7652 22.2348C12.6948 22.1645 12.5995 22.125 12.5 22.125H12.125ZM10.25 22.125C10.1505 22.125 10.0552 22.1645 9.98483 22.2348C9.91451 22.3051 9.875 22.4005 9.875 22.5C9.875 22.5994 9.91451 22.6948 9.98483 22.7651C10.0552 22.8354 10.1505 22.875 10.25 22.875H10.625C10.7245 22.875 10.8198 22.8354 10.8902 22.7651C10.9605 22.6948 11 22.5994 11 22.5C11 22.4005 10.9605 22.3051 10.8902 22.2348C10.8198 22.1645 10.7245 22.125 10.625 22.125H10.25ZM15.875 22.125C15.7755 22.125 15.6802 22.1645 15.6098 22.2348C15.5395 22.3051 15.5 22.4005 15.5 22.5C15.5 22.5994 15.5395 22.6948 15.6098 22.7651C15.6802 22.8354 15.7755 22.875 15.875 22.875H16.25C16.3495 22.875 16.4448 22.8354 16.5152 22.7651C16.5855 22.6948 16.625 22.5994 16.625 22.5C16.625 22.4005 16.5855 22.3051 16.5152 22.2348C16.4448 22.1645 16.3495 22.125 16.25 22.125H15.875ZM14 22.125C13.9005 22.125 13.8052 22.1645 13.7348 22.2348C13.6645 22.3051 13.625 22.4005 13.625 22.5C13.625 22.5994 13.6645 22.6948 13.7348 22.7651C13.8052 22.8354 13.9005 22.875 14 22.875H14.375C14.4745 22.875 14.5698 22.8354 14.6402 22.7651C14.7105 22.6948 14.75 22.5994 14.75 22.5C14.75 22.4005 14.7105 22.3051 14.6402 22.2348C14.5698 22.1645 14.4745 22.125 14.375 22.125H14ZM19.625 22.125C19.5255 22.125 19.4302 22.1645 19.3598 22.2348C19.2895 22.3051 19.25 22.4005 19.25 22.5C19.25 22.5994 19.2895 22.6948 19.3598 22.7651C19.4302 22.8354 19.5255 22.875 19.625 22.875H20C20.0995 22.875 20.1948 22.8354 20.2652 22.7651C20.3355 22.6948 20.375 22.5994 20.375 22.5C20.375 22.4005 20.3355 22.3051 20.2652 22.2348C20.1948 22.1645 20.0995 22.125 20 22.125H19.625ZM17.75 22.125C17.6505 22.125 17.5552 22.1645 17.4848 22.2348C17.4145 22.3051 17.375 22.4005 17.375 22.5C17.375 22.5994 17.4145 22.6948 17.4848 22.7651C17.5552 22.8354 17.6505 22.875 17.75 22.875H18.125C18.2245 22.875 18.3198 22.8354 18.3902 22.7651C18.4605 22.6948 18.5 22.5994 18.5 22.5C18.5 22.4005 18.4605 22.3051 18.3902 22.2348C18.3198 22.1645 18.2245 22.125 18.125 22.125H17.75ZM23.375 22.125C23.2755 22.125 23.1802 22.1645 23.1098 22.2348C23.0395 22.3051 23 22.4005 23 22.5C23 22.5994 23.0395 22.6948 23.1098 22.7651C23.1802 22.8354 23.2755 22.875 23.375 22.875H23.75C23.8495 22.875 23.9448 22.8354 24.0152 22.7651C24.0855 22.6948 24.125 22.5994 24.125 22.5C24.125 22.4005 24.0855 22.3051 24.0152 22.2348C23.9448 22.1645 23.8495 22.125 23.75 22.125H23.375ZM21.5 22.125C21.4005 22.125 21.3052 22.1645 21.2348 22.2348C21.1645 22.3051 21.125 22.4005 21.125 22.5C21.125 22.5994 21.1645 22.6948 21.2348 22.7651C21.3052 22.8354 21.4005 22.875 21.5 22.875H21.875C21.9745 22.875 22.0698 22.8354 22.1402 22.7651C22.2105 22.6948 22.25 22.5994 22.25 22.5C22.25 22.4005 22.2105 22.3051 22.1402 22.2348C22.0698 22.1645 21.9745 22.125 21.875 22.125H21.5Z" fill="#1C3F7E"/>
<path d="M15.783 15.9372C14.4548 15.9512 13.1401 16.2053 11.9023 16.6872H18.1583C17.4666 16.1909 16.6344 15.9281 15.783 15.9372Z" fill="#1C3F7E"/>
<path d="M9.5 21.75H24.125C24.2245 21.75 24.3198 21.7105 24.3902 21.6402C24.4605 21.5698 24.5 21.4745 24.5 21.375C24.5 21.2755 24.4605 21.1802 24.3902 21.1098C24.3198 21.0395 24.2245 21 24.125 21H21.4025C21.4794 20.8827 21.5423 20.7569 21.59 20.625H22.34C23.2963 20.625 23.9469 20.3813 24.2769 19.9031C24.3884 19.7368 24.4597 19.5468 24.485 19.3481H23.5419C23.4424 19.3481 23.347 19.3086 23.2767 19.2383C23.2064 19.168 23.1669 19.0726 23.1669 18.9731C23.1669 18.8737 23.2064 18.7783 23.2767 18.708C23.347 18.6376 23.4424 18.5981 23.5419 18.5981H24.4719C24.52 18.1528 24.5068 17.703 24.4325 17.2612C24.2431 16.1606 22.445 15.8438 20.9 15.6919C20.3844 15.6413 19.9306 15.36 19.4075 15.0338C18.5787 14.5163 17.5475 13.875 15.8187 13.875C13.2444 13.875 10.3625 14.9531 9.87125 15.1444H9.21125C9.08661 15.1446 8.96495 15.1825 8.86223 15.2531C8.75951 15.3237 8.68052 15.4237 8.63562 15.54C8.49326 16.0066 8.49131 16.5048 8.63 16.9725C8.63 16.9744 8.62812 16.9744 8.62812 16.9763H9.545C9.64446 16.9763 9.73984 17.0158 9.81016 17.0861C9.88049 17.1564 9.92 17.2518 9.92 17.3513C9.92 17.4507 9.88049 17.5461 9.81016 17.6164C9.73984 17.6867 9.64446 17.7263 9.545 17.7263H8.39C8.34587 18.4341 8.42906 19.1441 8.63562 19.8225C8.67884 19.9295 8.74616 20.0251 8.83234 20.1018C8.91851 20.1786 9.02123 20.2344 9.1325 20.265L10.2406 20.5687C10.2613 20.5744 10.5013 20.58 10.8969 20.5856C10.945 20.7321 11.0124 20.8714 11.0975 21H9.5C9.10218 21 8.72064 21.158 8.43934 21.4393C8.15804 21.7206 8 22.1022 8 22.5C8 22.8978 8.15804 23.2794 8.43934 23.5607C8.72064 23.842 9.10218 24 9.5 24H24.125C24.2245 24 24.3198 23.9605 24.3902 23.8902C24.4605 23.8198 24.5 23.7245 24.5 23.625C24.5 23.5255 24.4605 23.4302 24.3902 23.3598C24.3198 23.2895 24.2245 23.25 24.125 23.25H9.5C9.30109 23.25 9.11032 23.171 8.96967 23.0303C8.82902 22.8897 8.75 22.6989 8.75 22.5C8.75 22.3011 8.82902 22.1103 8.96967 21.9697C9.11032 21.829 9.30109 21.75 9.5 21.75ZM12.5 21C12.3146 21 12.1333 20.945 11.9792 20.842C11.825 20.739 11.7048 20.5926 11.6339 20.4213C11.5629 20.25 11.5443 20.0615 11.5805 19.8796C11.6167 19.6977 11.706 19.5307 11.8371 19.3996C11.9682 19.2685 12.1352 19.1792 12.3171 19.143C12.499 19.1068 12.6875 19.1254 12.8588 19.1964C13.0301 19.2673 13.1765 19.3875 13.2795 19.5417C13.3825 19.6958 13.4375 19.8771 13.4375 20.0625C13.4374 20.3111 13.3386 20.5495 13.1628 20.7253C12.987 20.9011 12.7486 20.9999 12.5 21ZM13.9025 21C13.9839 20.8778 14.0488 20.7454 14.0956 20.6063C15.4813 20.6119 17.0338 20.6156 18.4081 20.6194C18.4556 20.7534 18.5192 20.8812 18.5975 21H13.9025ZM20.9375 20.0625C20.9375 20.2479 20.8825 20.4292 20.7795 20.5833C20.6765 20.7375 20.5301 20.8577 20.3588 20.9286C20.1875 20.9996 19.999 21.0182 19.8171 20.982C19.6352 20.9458 19.4682 20.8565 19.3371 20.7254C19.206 20.5943 19.1167 20.4273 19.0805 20.2454C19.0443 20.0635 19.0629 19.875 19.1339 19.7037C19.2048 19.5324 19.325 19.386 19.4792 19.283C19.6333 19.18 19.8146 19.125 20 19.125C20.2486 19.1251 20.487 19.2239 20.6628 19.3997C20.8386 19.5755 20.9374 19.8139 20.9375 20.0625ZM10.8125 17.0625V16.5844C10.8126 16.5127 10.8333 16.4426 10.8722 16.3824C10.9111 16.3222 10.9666 16.2745 11.0319 16.245C12.524 15.5653 14.1417 15.2051 15.7812 15.1875C17.2644 15.1875 18.1044 15.7481 18.9163 16.29C19.1469 16.4437 19.3831 16.6013 19.6213 16.7363C19.6932 16.777 19.7497 16.8405 19.7818 16.9167C19.814 16.9929 19.8201 17.0775 19.7991 17.1576C19.7781 17.2376 19.7313 17.3084 19.6659 17.359C19.6005 17.4097 19.5202 17.4372 19.4375 17.4375H11.1875C11.0881 17.4372 10.9929 17.3976 10.9227 17.3273C10.8524 17.2571 10.8128 17.1619 10.8125 17.0625Z" fill="#1C3F7E"/>
</g>
<defs>
<clipPath id="clip0_669_3385">
<rect width="24" height="24" fill="white" transform="translate(0.5)"/>
</clipPath>
</defs>
</svg>
