<svg width="30" height="30" viewBox="0 0 30 30" fill="none" xmlns="http://www.w3.org/2000/svg">
<path d="M2.8125 10.3125V8.90625C2.81386 7.78779 3.25878 6.71552 4.04965 5.92465C4.84052 5.13378 5.91279 4.68886 7.03125 4.6875H8.4375V6.09375C8.4375 6.59103 8.63504 7.06794 8.98668 7.41958C9.33831 7.77121 9.81522 7.96875 10.3125 7.96875C10.8098 7.96875 11.2867 7.77121 11.6383 7.41958C11.99 7.06794 12.1875 6.59103 12.1875 6.09375V4.6875H17.8125V6.09375C17.8125 6.59103 18.01 7.06794 18.3617 7.41958C18.7133 7.77121 19.1902 7.96875 19.6875 7.96875C20.1848 7.96875 20.6617 7.77121 21.0133 7.41958C21.365 7.06794 21.5625 6.59103 21.5625 6.09375V4.6875H22.9688C24.0872 4.68886 25.1595 5.13378 25.9503 5.92465C26.7412 6.71552 27.1861 7.78779 27.1875 8.90625V10.3125H2.8125ZM9.375 6.09375C9.375 6.34239 9.47377 6.58085 9.64959 6.75666C9.8254 6.93248 10.0639 7.03125 10.3125 7.03125C10.5611 7.03125 10.7996 6.93248 10.9754 6.75666C11.1512 6.58085 11.25 6.34239 11.25 6.09375V3.75C11.25 3.50136 11.1512 3.2629 10.9754 3.08709C10.7996 2.91127 10.5611 2.8125 10.3125 2.8125C10.0639 2.8125 9.8254 2.91127 9.64959 3.08709C9.47377 3.2629 9.375 3.50136 9.375 3.75V6.09375ZM18.75 3.75V6.09375C18.75 6.34239 18.8488 6.58085 19.0246 6.75666C19.2004 6.93248 19.4389 7.03125 19.6875 7.03125C19.9361 7.03125 20.1746 6.93248 20.3504 6.75666C20.5262 6.58085 20.625 6.34239 20.625 6.09375V3.75C20.625 3.50136 20.5262 3.2629 20.3504 3.08709C20.1746 2.91127 19.9361 2.8125 19.6875 2.8125C19.4389 2.8125 19.2004 2.91127 19.0246 3.08709C18.8488 3.2629 18.75 3.50136 18.75 3.75ZM27.1875 11.25V21.0938C27.1861 22.2122 26.7412 23.2845 25.9503 24.0753C25.1595 24.8662 24.0872 25.3111 22.9688 25.3125H7.03125C5.91279 25.3111 4.84052 24.8662 4.04965 24.0753C3.25878 23.2845 2.81386 22.2122 2.8125 21.0938V11.25H27.1875ZM18.4252 16.5511H16.4897L15.8906 14.7103C15.829 14.5227 15.7097 14.3594 15.5498 14.2437C15.3898 14.1279 15.1974 14.0655 15 14.0655C14.8026 14.0655 14.6102 14.1279 14.4502 14.2437C14.2903 14.3594 14.171 14.5227 14.1094 14.7103L13.5112 16.5511H11.5748C11.3769 16.5511 11.1839 16.6137 11.0237 16.7301C10.8635 16.8464 10.7443 17.0105 10.6831 17.1988C10.6219 17.3871 10.6219 17.5899 10.683 17.7782C10.7442 17.9665 10.8634 18.1306 11.0236 18.247L12.5897 19.3847L11.9916 21.2255C11.9304 21.4138 11.9303 21.6166 11.9915 21.805C12.0527 21.9933 12.1719 22.1574 12.3321 22.2738C12.4923 22.3901 12.6853 22.4528 12.8833 22.4528C13.0813 22.4527 13.2742 22.39 13.4344 22.2736L15 21.1359L16.5656 22.2736C16.7258 22.39 16.9187 22.4527 17.1167 22.4528C17.3147 22.4528 17.5077 22.3901 17.6679 22.2738C17.8281 22.1574 17.9473 21.9933 18.0085 21.805C18.0697 21.6166 18.0696 21.4138 18.0084 21.2255L17.4103 19.3847L18.9764 18.247C19.1366 18.1306 19.2558 17.9665 19.317 17.7782C19.3781 17.5899 19.3781 17.3871 19.3169 17.1988C19.2557 17.0105 19.1365 16.8464 18.9763 16.7301C18.8161 16.6137 18.6231 16.5511 18.4252 16.5511Z" fill="#1F458A"/>
</svg>
