<svg width="31" height="30" viewBox="0 0 31 30" fill="none" xmlns="http://www.w3.org/2000/svg">
<g clip-path="url(#clip0_1504_17193)">
<path d="M22.1543 15.5809H16.998C16.1968 15.5809 15.4619 15.2261 14.9703 14.6346L13.8272 16.5666H16.1692C17.832 16.5666 19.0795 18.0821 18.7644 19.7121L18.6363 20.3736C18.9482 20.3941 19.2619 20.4041 19.5762 20.4041C21.675 20.4041 24.6737 19.553 26.5722 18.6754L24.182 14.6346C23.6904 15.2261 22.9555 15.5809 22.1543 15.5809ZM18.2991 22.1164L17.9208 24.0695C18.4665 24.1318 19.0187 24.1635 19.5762 24.1635C22.3287 24.1635 26.0459 22.8007 28.2081 21.4409L27.4733 20.1985C25.425 21.1748 22.0644 22.1663 19.5762 22.1663C19.1485 22.1663 18.7226 22.1493 18.2991 22.1164ZM30.1184 24.6705L29.1051 22.9576C26.6744 24.4731 22.6647 25.9258 19.5762 25.9258C18.9059 25.9258 18.2416 25.8852 17.5854 25.8042C16.821 29.7527 16.8777 29.4709 16.8506 29.5741C21.9856 30.4516 27.1161 28.7038 29.9874 25.7625C30.2659 25.4908 30.3442 25.033 30.1184 24.6705ZM13.1076 5.55972C13.1286 5.72777 12.9447 5.22953 16.1809 13.2665C16.3149 13.6002 16.6385 13.8187 16.998 13.8187H22.1543C22.5138 13.8187 22.8374 13.6002 22.9714 13.2665C25.9734 5.81119 25.9889 5.77371 25.9912 5.76766C26.0718 5.56054 26.0695 5.34308 26.0047 5.15969C25.8558 4.69887 25.078 4.05343 24.582 3.78104V1.07838C24.582 0.592004 24.1879 0.197266 23.7009 0.197266C23.2146 0.197266 22.8198 0.592004 22.8198 1.07838V3.29408C21.5196 3.2485 20.3287 3.83015 19.5762 4.77083C18.8178 3.82293 17.6236 3.24885 16.3325 3.29408V1.07838C16.3325 0.592004 15.9377 0.197266 15.4514 0.197266C14.9644 0.197266 14.5703 0.592004 14.5703 1.07838V3.78104C14.0308 4.07733 13.2867 4.72941 13.1476 5.15969C13.1016 5.28998 13.09 5.4366 13.1076 5.55972ZM0.266276 19.3773L2.14598 29.0889C2.18495 29.2898 2.2926 29.4709 2.45047 29.6011C2.60834 29.7314 2.80659 29.8026 3.01124 29.8026H4.53086C4.52334 27.9992 4.48939 32.1062 4.53204 18.3288H1.13153C0.578366 18.3288 0.161189 18.8334 0.266276 19.3773ZM6.29367 29.8026H11.0076L11.0241 26.0432H6.27723L6.29367 29.8026ZM6.27605 24.281H11.0247L11.0059 18.3288H6.29485L6.27605 24.281Z" fill="#1F458A"/>
<path d="M16.1661 18.3282H12.7656C12.8094 32.4563 12.7752 27.7689 12.7668 29.8021H14.2864C14.7087 29.8021 15.0712 29.5025 15.1517 29.0884L17.0314 19.3767C17.1363 18.8337 16.7201 18.3282 16.1661 18.3282ZM11.5738 14.2139C8.97112 11.6137 4.50781 13.4785 4.50781 17.1416L4.52896 18.3282H6.29177L6.27004 17.1416C6.27004 15.8308 7.33642 14.7644 8.64728 14.7644C9.96102 14.7644 11.0245 15.8274 11.0245 17.1416L11.0028 18.3282H12.7656C12.7852 17.2315 13.0055 15.6455 11.5738 14.2139Z" fill="#1F458A"/>
</g>
<defs>
<clipPath id="clip0_1504_17193">
<rect width="30" height="30" fill="white" transform="translate(0.25)"/>
</clipPath>
</defs>
</svg>
