<svg width="31" height="30" viewBox="0 0 31 30" fill="none" xmlns="http://www.w3.org/2000/svg">
<g clip-path="url(#clip0_2711_12291)">
<path d="M6.81724 12.0938C7.15094 12.5885 7.41931 13.1243 7.61567 13.6878C8.15485 15.1876 8.31701 16.9731 8.35772 18.2143H22.6412C22.6827 16.9737 22.8448 15.1869 23.384 13.6871C23.5797 13.1242 23.8476 12.5892 24.181 12.0952C24.6171 11.47 25.1596 10.9261 25.7836 10.4883C26.0089 10.3242 26.2433 10.1731 26.4856 10.0355C24.8452 6.38674 20.5358 3.93066 15.4994 3.93066C10.7273 3.93066 6.51796 6.46387 4.8125 10.2154C4.94852 10.3034 5.08258 10.3944 5.21456 10.4883C5.83769 10.9266 6.37997 11.4699 6.81724 12.0938Z" fill="#1F458A"/>
<path d="M29.9654 11.5767C29.6041 11.2146 29.1577 11.1153 28.8906 11.0561C28.523 10.9743 28.142 10.9743 27.7744 11.0561C27.3073 11.161 27.0124 11.3689 26.6031 11.6574C26.1173 11.998 25.6948 12.421 25.3548 12.9072C25.0936 13.3005 24.8828 13.7249 24.727 14.1706C24.1407 15.786 24.055 17.8457 24.0543 18.9284C24.0543 19.3228 23.7345 19.6426 23.3401 19.6426H7.65672C7.26229 19.6426 6.94252 19.3228 6.94252 18.9284C6.94252 17.845 6.85253 15.786 6.27191 14.1706C6.11564 13.7245 5.90452 13.2997 5.64341 12.9057C5.30261 12.4196 4.87966 11.9967 4.39358 11.6559C3.98435 11.3702 3.68868 11.156 3.22087 11.0538C2.85383 10.9714 2.47306 10.9714 2.10602 11.0538C1.8382 11.1131 1.39182 11.2131 1.02973 11.5752C1.02404 11.5816 0.386974 12.2423 0.517668 13.1042C0.660481 14.0263 1.54106 14.5383 2.10026 14.6568C2.30354 14.6996 2.51397 14.6949 2.71517 14.6433C2.95801 14.5969 3.29151 14.5326 3.67 14.704C4.86199 15.2425 4.99194 17.285 4.11277 21.7393C4.56196 23.0591 5.12759 23.1612 5.5561 23.2112H6.94158V25.3538C6.94158 25.7482 7.26135 26.068 7.65578 26.068H8.36998C8.76441 26.068 9.08418 25.7482 9.08418 25.3538V23.2134H21.9151V25.3559C21.9151 25.7503 22.2348 26.0701 22.6293 26.0701H23.3435C23.7379 26.0701 24.0577 25.7503 24.0577 25.3559V23.2134H25.4432C25.8717 23.1641 26.4373 23.0613 26.8865 21.7415C26.0073 17.2879 26.1373 15.2424 27.3292 14.7061C27.7077 14.5347 28.0434 14.5983 28.2848 14.6454C28.4864 14.6959 28.6969 14.7004 28.9005 14.6583C29.4597 14.5397 30.3416 14.0276 30.4831 13.1063C30.611 12.2444 29.9719 11.5839 29.9654 11.5767Z" fill="#1F458A"/>
</g>
<defs>
<clipPath id="clip0_2711_12291">
<rect width="30" height="30" fill="white" transform="translate(0.5)"/>
</clipPath>
</defs>
</svg>
