<svg width="30" height="30" viewBox="0 0 30 30" fill="none" xmlns="http://www.w3.org/2000/svg">
<path d="M15.8789 20.2734C16.3642 20.2734 16.7578 19.8799 16.7578 19.3945V15.8789C16.7578 15.3936 16.3644 15 15.8789 15H14.1211C13.6358 15 13.2422 15.3934 13.2422 15.8789V19.3945C13.2422 19.8799 13.6357 20.2734 14.1211 20.2734H15.8789Z" fill="#1F458A"/>
<path d="M27.3633 5.33203H21.1523V4.45312C21.1523 2.99918 19.9696 1.81641 18.5156 1.81641H11.4844C10.0304 1.81641 8.84766 2.99912 8.84766 4.45312V5.33203H2.63672C1.18277 5.33203 0 6.51475 0 7.96875C0 9.69006 0.210938 11.1975 0.629766 12.4822C1.04859 13.7668 1.67537 14.8288 2.50711 15.6592C3.90674 17.0569 5.68951 17.6367 7.69131 17.6367H11.4844V15.8789C11.4844 14.425 12.6671 13.2422 14.1211 13.2422H15.8789C17.3329 13.2422 18.5156 14.4249 18.5156 15.8789V17.6367H20.4685C22.2181 17.564 25.08 18.096 27.492 15.6952C28.3242 14.8669 28.9511 13.8031 29.3701 12.5124C29.7891 11.2217 30 9.70424 30 7.96875C30 6.5148 28.8173 5.33203 27.3633 5.33203ZM10.6055 4.45312C10.6055 3.9682 10.9994 3.57422 11.4844 3.57422H18.5156C19.0005 3.57422 19.3945 3.96814 19.3945 4.45312V5.33203H10.6055V4.45312Z" fill="#1F458A"/>
<path d="M20.4925 19.395H18.5156C18.5156 20.849 17.3329 22.0317 15.8789 22.0317H14.1211C12.6671 22.0317 11.4844 20.849 11.4844 19.395H7.69898C5.19211 19.395 2.99021 18.6258 1.2651 16.9034C0.777773 16.4169 0.361641 15.8691 0 15.2832V27.3052C0 27.791 0.393105 28.1841 0.878906 28.1841H29.1211C29.6069 28.1841 30 27.791 30 27.3052V15.3194C29.6335 15.9141 29.2157 16.4606 28.7323 16.942C25.959 19.7008 23.0055 19.2763 20.4925 19.395Z" fill="#1F458A"/>
</svg>
