<svg width="30" height="30" viewBox="0 0 30 30" fill="none" xmlns="http://www.w3.org/2000/svg">
<g clip-path="url(#clip0_2711_12277)">
<path d="M18.7029 4.70508L18.3438 4.74952L18.5936 6.76935H18.9582L18.7029 4.70508ZM19.3998 4.74135L19.3954 4.70508L19.0362 4.74952L19.286 6.76935H19.3997L19.3998 4.74135Z" fill="#1F458A"/>
<path d="M19.4017 7.06348H18.0174V3.71094H17.3469V11.1185H18.0174V10.9269H19.4017V7.06348ZM13.9166 13.2283L14.1664 15.2483H14.531L14.2756 13.1839L13.9166 13.2283ZM14.6089 13.2283L14.8589 15.2483H15.2235L14.9681 13.1839L14.6089 13.2283ZM16.353 13.1839L15.9939 13.2283L16.2438 15.2483H16.6085L16.353 13.1839ZM17.0455 13.1839L16.6864 13.2283L16.9363 15.2483H17.3009L17.0455 13.1839ZM17.738 13.1839L17.3788 13.2283L17.6288 15.2483H17.9934L17.738 13.1839ZM18.4305 13.1839L18.0713 13.2283L18.3213 15.2483H18.6858L18.4305 13.1839ZM19.1229 13.1839L18.7638 13.2283L19.0136 15.2483H19.3782L19.1229 13.1839ZM13.5885 14.1973V12.1895H12.918V13.6636C13.1949 13.7615 13.431 13.9493 13.5885 14.1973ZM13.6277 15.542C13.4714 15.8209 13.2192 16.0336 12.918 16.1405V19.597H13.5885V19.4055H19.4017V15.542H13.6277ZM16.5957 21.4515L16.2365 21.4959L16.4864 23.5159H16.851L16.5957 21.4515ZM17.2882 21.4515L16.929 21.4959L17.1788 23.5159H17.5435L17.2882 21.4515ZM17.9782 21.4487L17.6191 21.4931L17.8694 23.5159H18.2339L17.9782 21.4487ZM18.673 21.4515L18.314 21.4959L18.5638 23.5159H18.9284L18.673 21.4515ZM19.4017 21.7439L19.3655 21.4515L19.0065 21.4959L19.2563 23.5159H19.4017V21.7439Z" fill="#1F458A"/>
<path d="M19.4006 23.8097H15.9073V20.4571H15.2368V27.8647H15.9073V27.6731H19.4006V23.8097ZM1.91407 18.6738C1.94651 18.7549 1.97844 18.8383 2.00961 18.924C2.68318 20.776 2.98242 23.6975 0.663989 27.1982C0.177263 27.9334 0.378416 28.9239 1.11355 29.4108C1.3743 29.5841 1.68043 29.6765 1.99351 29.6764C2.25747 29.6768 2.51738 29.6116 2.74996 29.4868C2.98253 29.362 3.1805 29.1814 3.3261 28.9612C5.06394 26.3371 5.6476 23.9228 5.68808 21.9141C5.68936 21.8541 5.68949 21.7948 5.68974 21.7354L1.91407 18.6738Z" fill="#1F458A"/>
<path d="M0.158851 16.4317C0.238747 16.7748 0.430462 17.0815 0.703815 17.3036L6.47812 21.9973L8.57228 28.6089C8.78773 29.2892 9.41635 29.7239 10.0939 29.7238C10.2535 29.7238 10.416 29.6995 10.5763 29.6488C11.4168 29.3826 11.8824 28.4853 11.6163 27.6449L9.37778 20.5778C9.28367 20.2806 9.10466 20.0175 8.86283 19.8209L4.37999 16.1769L4.38051 16.1767C4.4201 16.0256 4.46378 15.8747 4.51103 15.7239C4.78485 14.8514 5.17963 13.987 5.603 13.1755L4.32278 10.284C4.25241 10.1262 4.21404 9.95594 4.2099 9.78319C4.20576 9.61044 4.23592 9.43859 4.29864 9.27758C4.36045 9.11615 4.45367 8.9686 4.57291 8.84346C4.69215 8.71833 4.83504 8.61809 4.99329 8.54857C5.24911 8.43451 5.53483 8.40576 5.80824 8.46658C6.00977 8.51134 6.198 8.60272 6.35783 8.73338C6.51766 8.86404 6.64463 9.03035 6.72857 9.21895L7.31989 10.5546L9.33142 12.2826C9.45971 12.3928 9.61336 12.4695 9.77858 12.5057C9.9438 12.5419 10.1154 12.5365 10.2781 12.49L14.0031 11.4256L14.2297 11.607C14.3528 11.7055 14.4972 11.7741 14.6513 11.8074C14.8054 11.8407 14.9652 11.8377 15.118 11.7988L15.5446 15.2483H15.9093L15.4628 11.639C15.539 11.5848 15.6073 11.5203 15.6659 11.4475C15.8352 11.2359 15.9134 10.9657 15.8835 10.6964C15.8536 10.427 15.7179 10.1806 15.5064 10.0113L14.8678 9.50044C14.7404 9.39863 14.5905 9.32876 14.4307 9.29666C14.2708 9.26456 14.1055 9.27115 13.9487 9.31589L10.2456 10.3739L8.98544 9.29137C8.4677 9.20313 7.98027 8.98677 7.56753 8.66198C7.10571 8.30048 6.7547 7.81654 6.55449 7.26528C6.52305 7.25188 6.49095 7.24007 6.45832 7.2299C5.48461 6.84931 4.05342 7.05876 2.99262 8.43554C1.34789 10.5964 0.634465 12.1249 0.0410964 14.9118L0.0387975 14.9228C-0.0444734 15.5432 0.0112108 16.0355 0.158851 16.4317Z" fill="#1F458A"/>
<path d="M13.4744 15.1225C13.5033 14.9915 13.5061 14.8561 13.4827 14.724C13.4592 14.5918 13.41 14.4656 13.3377 14.3526C13.2655 14.2395 13.1717 14.1417 13.0617 14.0649C12.9517 13.9881 12.8277 13.9337 12.6966 13.9048L8.02567 12.8749L6.45987 9.33802C6.40559 9.21532 6.32766 9.10451 6.23054 9.01193C6.13342 8.91935 6.01901 8.84681 5.89385 8.79846C5.76869 8.75011 5.63523 8.72688 5.50109 8.73012C5.36695 8.73336 5.23477 8.76299 5.11209 8.81733C4.86433 8.92699 4.67027 9.13058 4.5726 9.3833C4.47493 9.63603 4.48164 9.91721 4.59126 10.165L6.36638 14.1746C6.43126 14.3212 6.52971 14.4504 6.65378 14.5519C6.77785 14.6534 6.92405 14.7243 7.08057 14.7588L12.2565 15.9001C12.3876 15.929 12.523 15.9318 12.6551 15.9083C12.7872 15.8849 12.9134 15.8356 13.0265 15.7634C13.1396 15.6912 13.2373 15.5974 13.3142 15.4874C13.391 15.3774 13.4454 15.2533 13.4743 15.1223L13.4744 15.1225ZM19.7826 1.85156H29.9999V29.1822H19.7826V1.85156ZM19.7826 29.4801V29.991H20.9747V29.4801H19.7826ZM28.8079 29.4801V29.991H29.9999V29.4801H28.8079Z" fill="#1F458A"/>
<path d="M10.322 8.93358C11.8466 8.49266 12.7251 6.89932 12.2842 5.37475C11.8433 3.85017 10.2499 2.97169 8.72533 3.4126C7.20076 3.85351 6.32227 5.44685 6.76318 6.97143C7.2041 8.496 8.79744 9.37449 10.322 8.93358Z" fill="#1F458A"/>
<path d="M13.2391 6.59372C13.253 6.60301 13.2687 6.60946 13.2852 6.61269C13.3017 6.61592 13.3186 6.61587 13.3351 6.61255C13.3515 6.60923 13.3671 6.6027 13.3811 6.59333C13.395 6.58396 13.4069 6.57194 13.4162 6.55796C13.5838 6.30533 13.6415 6.0568 13.5879 5.81886C13.5052 5.45155 13.1835 5.25398 13.1698 5.2458C13.1545 5.23656 13.1374 5.23066 13.1196 5.22848C13.1018 5.22631 13.0838 5.2279 13.0666 5.23317C13.0495 5.23844 13.0337 5.24725 13.0202 5.25905C13.0067 5.27084 12.9959 5.28535 12.9884 5.30161C12.9752 5.33005 12.973 5.36232 12.982 5.39231C12.9911 5.4223 13.0108 5.44792 13.0375 5.46432C13.0401 5.46586 13.2817 5.61682 13.3392 5.8771C13.376 6.04377 13.3304 6.22538 13.2033 6.41658C13.1645 6.47532 13.1803 6.55464 13.2391 6.59372Z" fill="#1F458A"/>
<path d="M13.7416 6.85175C13.7552 6.86155 13.7706 6.86858 13.7869 6.87243C13.8033 6.87628 13.8202 6.87688 13.8367 6.87418C13.8533 6.87149 13.8692 6.86557 13.8834 6.85674C13.8977 6.84792 13.9101 6.83637 13.9199 6.82276C14.1837 6.45647 14.2858 6.09133 14.2231 5.73756C14.1275 5.19898 13.6828 4.89207 13.6639 4.8793C13.6486 4.86895 13.6312 4.86205 13.613 4.85908C13.5948 4.85611 13.5761 4.85714 13.5583 4.86209C13.5405 4.86705 13.5239 4.87581 13.5099 4.88778C13.4958 4.89975 13.4845 4.91464 13.4767 4.93141C13.4508 4.98697 13.4683 5.05479 13.5204 5.09067C13.5242 5.09323 13.8966 5.35313 13.972 5.78455C14.0213 6.06719 13.9343 6.36617 13.7126 6.67346C13.6716 6.73093 13.6845 6.8105 13.7416 6.85175ZM15.6188 8.72062C15.3061 8.51078 14.9367 8.58869 14.9212 8.59201C14.9037 8.59586 14.8872 8.60335 14.8728 8.61401C14.8583 8.62466 14.8463 8.63824 14.8375 8.65384C14.8287 8.66945 14.8233 8.68674 14.8216 8.70459C14.8199 8.72243 14.8221 8.74043 14.8278 8.7574C14.8481 8.81807 14.9113 8.85523 14.9754 8.84169C14.9783 8.84106 15.2577 8.78448 15.4783 8.93391C15.6196 9.02969 15.7113 9.19291 15.7506 9.4191C15.7531 9.43588 15.7591 9.45197 15.7679 9.46643C15.7768 9.4809 15.7885 9.49345 15.8023 9.50335C15.8161 9.51325 15.8317 9.5203 15.8483 9.52409C15.8648 9.52788 15.882 9.52833 15.8987 9.52542C15.9154 9.5225 15.9314 9.51629 15.9457 9.50713C15.96 9.49797 15.9723 9.48605 15.9819 9.47207C15.9916 9.4581 15.9983 9.44234 16.0018 9.42572C16.0053 9.4091 16.0054 9.39196 16.0022 9.37529C15.9503 9.07669 15.8213 8.85651 15.6188 8.72062Z" fill="#1F458A"/>
<path d="M14.9224 8.13247C14.9279 8.16584 14.9463 8.1957 14.9737 8.21551C15.0011 8.23533 15.0353 8.24349 15.0687 8.23822C15.0731 8.23758 15.5223 8.17002 15.8737 8.43158C16.1038 8.60285 16.2462 8.87987 16.2965 9.25535C16.3014 9.28866 16.3191 9.31872 16.346 9.33899C16.3729 9.35927 16.4066 9.36812 16.44 9.36363C16.4733 9.35914 16.5036 9.34166 16.5241 9.315C16.5446 9.28834 16.5538 9.25465 16.5497 9.22125C16.4894 8.77374 16.3125 8.43848 16.0235 8.22481C15.5839 7.89939 15.0502 7.98241 15.0275 7.98611C14.9942 7.99159 14.9644 8.01009 14.9447 8.03753C14.925 8.06498 14.917 8.09913 14.9224 8.13247ZM12.0657 1.93888C12.181 1.68932 12.2569 1.65803 12.5665 1.60248C12.9431 1.53504 13.1463 1.39226 13.2813 1.09991C13.4056 0.830816 13.3699 0.426467 12.8396 0.181507C12.5707 0.0572396 12.2483 0.00755805 12.0542 0.00781348L11.7928 0.573213L12.2034 0.800675L12.3078 0.574618C12.3331 0.519955 12.367 0.497732 12.4057 0.506162C12.4635 0.513952 12.526 0.542816 12.5923 0.573468C12.7442 0.643712 12.8076 0.762743 12.7356 0.918812C12.6418 1.1215 12.4999 1.13172 12.2746 1.17897C11.9615 1.24244 11.7922 1.30158 11.6721 1.64347L11.5698 1.93684L11.9791 2.12586L12.0657 1.93888ZM11.439 2.80377C11.6224 2.88845 11.7907 2.80058 11.8574 2.65626C11.9312 2.49636 11.876 2.32905 11.6888 2.24246C11.5173 2.16328 11.3427 2.23403 11.2724 2.38614C11.2004 2.54196 11.2479 2.71552 11.439 2.80377ZM13.9472 1.95165C13.6339 2.015 13.4647 2.074 13.3446 2.41603L13.2422 2.70939L13.6517 2.89841L13.7381 2.71131C13.8535 2.46175 13.9293 2.43059 14.2389 2.3749C14.6154 2.3076 14.8186 2.16481 14.9536 1.87234C15.078 1.60337 15.0424 1.19902 14.5121 0.954062C14.243 0.829667 13.9205 0.780113 13.7265 0.780368L13.4653 1.34577L13.8759 1.5731L13.9804 1.34704C14.0056 1.29251 14.0395 1.27029 14.0781 1.27872C14.1361 1.28651 14.1984 1.31537 14.2647 1.34602C14.4168 1.41627 14.48 1.5353 14.408 1.69137C14.3144 1.89405 14.1725 1.90427 13.9472 1.95152V1.95165ZM13.1114 3.5762C13.2947 3.66088 13.463 3.57314 13.5297 3.42882C13.6035 3.26892 13.5483 3.10161 13.3612 3.01502C13.1897 2.93583 13.0151 3.00659 12.9449 3.1587C12.8727 3.31451 12.9204 3.48795 13.1114 3.5762ZM5.98857 2.45869C5.57221 1.39098 3.74294 0.866704 3.53131 1.83709C3.33207 2.75052 4.42111 2.15791 5.98857 2.45856V2.45869ZM7.2665 2.49981C7.65309 1.67834 6.95678 0.341025 6.28359 0.748567C5.65012 1.1321 6.58449 1.43479 7.2665 2.49955V2.49981ZM4.48969 3.67441C4.4713 4.32168 5.1367 3.77863 6.24234 3.78208C5.8219 3.10876 4.50923 2.98641 4.48969 3.67441Z" fill="#1F458A"/>
</g>
<defs>
<clipPath id="clip0_2711_12277">
<rect width="30" height="30" fill="white"/>
</clipPath>
</defs>
</svg>
