<svg width="25" height="24" viewBox="0 0 25 24" fill="none" xmlns="http://www.w3.org/2000/svg">
<g clip-path="url(#clip0_669_3395)">
<path d="M22.3535 3.14648L20.3535 1.14647C20.1582 0.951141 19.8418 0.951141 19.6465 1.14647C19.4512 1.3418 19.4512 1.6582 19.6465 1.85348L21.293 3.49997L19.6465 5.14645C19.5528 5.2402 19.5 5.36714 19.5 5.49998V6.99998C19.5 8.10305 20.397 9 21.5 9V17.5C21.5 17.7758 21.2759 18 21 18C20.7242 18 20.5 17.7759 20.5 17.5V16.5C20.5 15.6728 19.8272 15 19 15H18.5V2.00002C18.5 0.896953 17.6031 0 16.5 0H6.50003C5.39702 0 4.50002 0.896953 4.50002 2.00002V20C3.397 20 2.5 20.897 2.5 22V23.5C2.49996 23.5657 2.51286 23.6307 2.53797 23.6914C2.56309 23.7521 2.59992 23.8073 2.64636 23.8537C2.69279 23.9001 2.74793 23.937 2.80862 23.9621C2.8693 23.9872 2.93434 24.0001 3.00002 24H20C20.0657 24.0001 20.1307 23.9872 20.1914 23.9621C20.2521 23.937 20.3073 23.9001 20.3537 23.8537C20.4001 23.8073 20.437 23.7521 20.4621 23.6914C20.4872 23.6307 20.5001 23.5657 20.5 23.5V22C20.5 20.897 19.6031 20 18.5 20V16H19C19.2759 16 19.5001 16.2241 19.5001 16.5V17.5C19.5001 18.3272 20.1729 19 21.0001 19C21.8272 19 22.5001 18.3272 22.5001 17.5V3.50002C22.5001 3.43435 22.4871 3.36933 22.462 3.30867C22.4368 3.24801 22.4 3.1929 22.3535 3.14648ZM16.5 8.50927C16.5001 8.57494 16.4872 8.63998 16.462 8.70066C16.4369 8.76135 16.4001 8.81649 16.3537 8.86293C16.3072 8.90937 16.2521 8.94619 16.1914 8.97131C16.1307 8.99642 16.0657 9.00932 16 9.00928H7C6.93433 9.00932 6.86929 8.99642 6.8086 8.97131C6.74792 8.94619 6.69278 8.90937 6.64634 8.86293C6.5999 8.81649 6.56307 8.76135 6.53796 8.70066C6.51285 8.63998 6.49994 8.57494 6.49998 8.50927V2.49998C6.49994 2.43431 6.51285 2.36927 6.53796 2.30859C6.56307 2.2479 6.5999 2.19276 6.64634 2.14632C6.69278 2.09988 6.74792 2.06306 6.8086 2.03794C6.86929 2.01283 6.93433 1.99993 7 1.99997H16C16.0657 1.99993 16.1307 2.01283 16.1914 2.03794C16.2521 2.06306 16.3072 2.09988 16.3537 2.14632C16.4001 2.19276 16.4369 2.2479 16.462 2.30859C16.4872 2.36927 16.5001 2.43431 16.5 2.49998V8.50927Z" fill="#1C3F7E"/>
</g>
<defs>
<clipPath id="clip0_669_3395">
<rect width="24" height="24" fill="white" transform="translate(0.5)"/>
</clipPath>
</defs>
</svg>
