<svg width="30" height="30" viewBox="0 0 30 30" fill="none" xmlns="http://www.w3.org/2000/svg">
<g clip-path="url(#clip0_1504_17187)">
<path fill-rule="evenodd" clip-rule="evenodd" d="M20.2064 0.644531L13.5225 3.50174V27.1869H15.5574V22.208L15.0864 22.2529C14.9941 22.2613 14.9022 22.2327 14.8308 22.1735C14.7595 22.1143 14.7145 22.0292 14.7058 21.9368C14.6971 21.8445 14.7254 21.7525 14.7844 21.681C14.8433 21.6094 14.9283 21.5642 15.0206 21.5552L18.6424 21.2105C18.7342 21.203 18.8253 21.232 18.896 21.2911C18.9666 21.3503 19.0111 21.435 19.0197 21.5267C19.0284 21.6185 19.0006 21.71 18.9423 21.7813C18.884 21.8527 18.7999 21.8983 18.7083 21.9081L18.1715 21.9592V27.1868H26.8903V3.50174L20.2064 0.644531ZM16.1445 19.0167L14.8811 19.1377V16.6965L16.1445 16.5017V19.0167ZM16.1449 15.0514L14.8811 15.2888V12.8418L16.1449 12.5303V15.0514ZM16.1449 11.0841L14.8811 11.438V8.99104L16.1449 8.56301V11.0841ZM16.1449 7.11469L14.8811 7.58332V5.29729L16.1453 4.75541L16.1449 7.11469ZM18.8478 18.7592L17.4241 18.8957V16.3016L18.8478 16.0817V18.7592ZM18.8478 14.5402L17.4241 14.8082V12.2162L18.8478 11.8648V14.5402V14.5402ZM18.8478 10.3233L17.4241 10.7227V8.12859L18.8478 7.64584V10.3233ZM18.8478 6.10646L17.4241 6.63715L17.4237 4.20768L18.8477 3.59672V6.10646H18.8478ZM22.229 23.0274C22.229 23.1206 22.1919 23.2101 22.126 23.276C22.0601 23.3419 21.9706 23.379 21.8774 23.379C21.7842 23.379 21.6947 23.3419 21.6288 23.276C21.5629 23.2101 21.5258 23.1206 21.5258 23.0274V3.71525C21.5258 3.62201 21.5629 3.53259 21.6288 3.46666C21.6947 3.40073 21.7842 3.36369 21.8774 3.36369C21.9706 3.36369 22.0601 3.40073 22.126 3.46666C22.1919 3.53259 22.229 3.62201 22.229 3.71525V23.0275V23.0274ZM23.8999 23.0274C23.8999 23.1206 23.8629 23.2101 23.797 23.276C23.731 23.3419 23.6416 23.379 23.5484 23.379C23.4551 23.379 23.3657 23.3419 23.2998 23.276C23.2339 23.2101 23.1968 23.1206 23.1968 23.0274V4.42957C23.1968 4.33633 23.2339 4.24691 23.2998 4.18098C23.3657 4.11505 23.4551 4.07801 23.5484 4.07801C23.6416 4.07801 23.731 4.11505 23.797 4.18098C23.8629 4.24691 23.8999 4.33633 23.8999 4.42957V23.0275V23.0274ZM25.5709 23.0274C25.5709 23.1206 25.5339 23.2101 25.468 23.276C25.402 23.3419 25.3126 23.379 25.2194 23.379C25.1261 23.379 25.0367 23.3419 24.9708 23.276C24.9048 23.2101 24.8678 23.1206 24.8678 23.0274V5.14389C24.8678 5.05065 24.9048 4.96123 24.9708 4.89529C25.0367 4.82936 25.1261 4.79232 25.2194 4.79232C25.3126 4.79232 25.402 4.82936 25.468 4.89529C25.5339 4.96123 25.5709 5.05065 25.5709 5.14389V23.0275V23.0274ZM10.0674 7.54488L3.1073 10.5202V27.1869H5.28031V23.3213L4.80939 23.3661C4.76326 23.3711 4.71659 23.3669 4.6721 23.3537C4.62761 23.3405 4.58619 23.3185 4.55024 23.2892C4.51429 23.2599 4.48453 23.2237 4.46268 23.1827C4.44084 23.1418 4.42734 23.0969 4.42298 23.0507C4.41862 23.0045 4.42348 22.9579 4.43727 22.9136C4.45107 22.8693 4.47354 22.8281 4.50336 22.7926C4.53318 22.757 4.56977 22.7278 4.611 22.7065C4.65223 22.6852 4.69728 22.6723 4.74354 22.6685L8.36533 22.3238C8.45785 22.3151 8.55005 22.3434 8.62165 22.4027C8.69325 22.4619 8.73839 22.5472 8.74713 22.6397C8.75587 22.7322 8.7275 22.8244 8.66826 22.896C8.60902 22.9676 8.52377 23.0127 8.43125 23.0215L7.89447 23.0726V27.1869H12.8194V8.72127L10.0674 7.54488ZM5.62268 19.7249L4.59441 19.8657V17.8864L5.62268 17.6752V19.7249ZM5.62268 16.4987L4.59441 16.7516V14.7722L5.62268 14.449V16.4987ZM5.62303 13.2712L4.59447 13.6349V11.7863L5.62338 11.3529L5.62303 13.2712ZM7.85867 19.4162L6.67443 19.5794V17.4596L7.85867 17.2153V19.4162ZM7.85867 15.9466L6.67443 16.2383V14.1173L7.85867 13.743V15.9466ZM7.85867 12.4757L6.67408 12.8973V10.911L7.85867 10.409V12.4757ZM0.675781 27.89H29.3218V29.3555H0.675781V27.89Z" fill="#1F458A"/>
</g>
<defs>
<clipPath id="clip0_1504_17187">
<rect width="30" height="30" fill="white"/>
</clipPath>
</defs>
</svg>
