<svg width="30" height="30" viewBox="0 0 30 30" fill="none" xmlns="http://www.w3.org/2000/svg">
<path d="M20.3 7.63594C20.2702 7.73212 20.2105 7.81628 20.1296 7.87614C20.0486 7.93601 19.9507 7.96846 19.85 7.96875H18.7484V8.90625H19.85C19.9507 8.90654 20.0486 8.93899 20.1296 8.99886C20.2105 9.05872 20.2702 9.14288 20.3 9.23906C20.3205 9.30547 20.3472 9.36982 20.3797 9.43125C20.4258 9.51974 20.4425 9.62065 20.4274 9.71929C20.4122 9.81794 20.3659 9.90916 20.2953 9.97969L19.9578 10.3125H22.4984C22.1276 10.3125 21.7651 10.2025 21.4567 9.99651C21.1484 9.79048 20.9081 9.49764 20.7662 9.15503C20.6242 8.81242 20.5871 8.43542 20.6595 8.07171C20.7318 7.70799 20.9104 7.3739 21.1726 7.11167C21.4348 6.84945 21.7689 6.67087 22.1326 6.59853C22.4964 6.52618 22.8734 6.56331 23.216 6.70523C23.5586 6.84714 23.8514 7.08746 24.0574 7.39581C24.2635 7.70415 24.3734 8.06666 24.3734 8.4375C24.3734 8.93478 24.1759 9.41169 23.8243 9.76332C23.4726 10.115 22.9957 10.3125 22.4984 10.3125H25.0391L24.7016 9.97969C24.6309 9.90916 24.5847 9.81794 24.5695 9.71929C24.5543 9.62065 24.571 9.51974 24.6172 9.43125C24.6497 9.36982 24.6764 9.30547 24.6969 9.23906C24.7266 9.14288 24.7863 9.05872 24.8673 8.99886C24.9482 8.93899 25.0462 8.90654 25.1469 8.90625H26.2484V7.96875H25.1469C25.0462 7.96846 24.9482 7.93601 24.8673 7.87614C24.7863 7.81628 24.7266 7.73212 24.6969 7.63594C24.6764 7.56953 24.6497 7.50518 24.6172 7.44375C24.571 7.35526 24.5543 7.25435 24.5695 7.15571C24.5847 7.05706 24.6309 6.96584 24.7016 6.89531L25.4844 6.11719L24.8188 5.45156L24.0406 6.23438C23.9701 6.30499 23.8789 6.35126 23.7802 6.36643C23.6816 6.38161 23.5807 6.3649 23.4922 6.31875C23.4308 6.28624 23.3664 6.25957 23.3 6.23906C23.2038 6.2093 23.1197 6.14959 23.0598 6.06864C22.9999 5.9877 22.9675 5.88974 22.9672 5.78906V4.6875H22.0297V5.78906C22.0294 5.88974 21.9969 5.9877 21.9371 6.06864C21.8772 6.14959 21.7931 6.2093 21.6969 6.23906C21.6305 6.25957 21.5661 6.28624 21.5047 6.31875C21.4162 6.3649 21.3153 6.38161 21.2166 6.36643C21.118 6.35126 21.0268 6.30499 20.9562 6.23438L20.1781 5.45156L19.5125 6.11719L20.2953 6.89531C20.3659 6.96584 20.4122 7.05706 20.4274 7.15571C20.4425 7.25435 20.4258 7.35526 20.3797 7.44375C20.3472 7.50518 20.3205 7.56953 20.3 7.63594ZM26.2484 20.2875V15H20.6234C20.5366 15.001 20.4513 14.9773 20.3774 14.9316C20.3036 14.886 20.2442 14.8203 20.2063 14.7422L19.2172 12.7688V21.9L20.4734 22.2328C20.9071 22.3516 21.2832 22.6229 21.5328 22.9969L26.1031 20.3578C26.15 20.3344 26.2016 20.3109 26.2484 20.2875ZM17.9891 11.25H11.0703L9.66406 14.0625H16.5828L17.9891 11.25Z" fill="#1F458A"/>
<path d="M22.5 9.375C23.0178 9.375 23.4375 8.95527 23.4375 8.4375C23.4375 7.91973 23.0178 7.5 22.5 7.5C21.9822 7.5 21.5625 7.91973 21.5625 8.4375C21.5625 8.95527 21.9822 9.375 22.5 9.375Z" fill="#1F458A"/>
<path d="M10.3125 5.15625C10.312 5.61891 10.41 6.07636 10.5999 6.49824C10.7899 6.92011 11.0674 7.29675 11.4141 7.60312C11.6587 7.82175 11.8542 8.08982 11.9875 8.38961C12.1208 8.6894 12.189 9.01409 12.1875 9.34219V10.3125H13.125V8.90625C13.125 8.78193 13.1744 8.6627 13.2623 8.57479C13.3502 8.48689 13.4694 8.4375 13.5938 8.4375C13.7181 8.4375 13.8373 8.48689 13.9252 8.57479C14.0131 8.6627 14.0625 8.78193 14.0625 8.90625V10.3125H15V9.34219C14.9983 9.01361 15.0668 8.68846 15.201 8.38853C15.3352 8.0886 15.532 7.82082 15.7781 7.60312C16.1481 7.27318 16.4386 6.86368 16.6276 6.40539C16.8167 5.94709 16.8994 5.45192 16.8697 4.95705C16.8399 4.46219 16.6984 3.98051 16.4557 3.54818C16.2131 3.11586 15.8757 2.74414 15.4688 2.46094V5.15625C15.4684 5.23346 15.4489 5.30937 15.4121 5.37724C15.3753 5.44512 15.3223 5.50285 15.2578 5.54531L13.8516 6.48281C13.7759 6.53546 13.6859 6.56368 13.5938 6.56368C13.5016 6.56368 13.4116 6.53546 13.3359 6.48281L11.9297 5.54531C11.8652 5.50285 11.8122 5.44512 11.7754 5.37724C11.7386 5.30937 11.7191 5.23346 11.7188 5.15625V2.46094C11.2838 2.7629 10.9286 3.16591 10.6836 3.63538C10.4387 4.10484 10.3113 4.62673 10.3125 5.15625ZM19.5094 11.25L20.9156 14.0625H27.8344L26.4281 11.25H19.5094ZM13.4813 20.3625L18.2812 21.6469V12.7688L17.2922 14.7422C17.2542 14.8203 17.1949 14.886 17.121 14.9316C17.0471 14.9773 16.9618 15.001 16.875 15H11.25V20.4938L11.8359 20.3484C12.3766 20.2124 12.943 20.2173 13.4813 20.3625ZM5.625 20.625H8.4375V28.125H5.625V20.625Z" fill="#1F458A"/>
<path d="M11.4469 27.6558H18.4641C18.8755 27.6562 19.2798 27.5478 19.6359 27.3417L27.5109 22.7949C27.725 22.6696 27.8808 22.4646 27.944 22.2248C28.0073 21.9849 27.9729 21.7297 27.8484 21.5152C27.7219 21.3039 27.5181 21.15 27.2802 21.0862C27.0422 21.0223 26.7888 21.0534 26.5734 21.173L21.8531 23.8964C21.871 24.1088 21.8536 24.3226 21.8016 24.5292C21.7381 24.7677 21.628 24.9912 21.4775 25.1867C21.3271 25.3822 21.1392 25.5459 20.925 25.6683C20.6423 25.8345 20.3202 25.9219 19.9922 25.9214C19.8275 25.9207 19.6637 25.8986 19.5047 25.8558L13.9125 24.3605C13.7919 24.3282 13.6891 24.2493 13.6267 24.1411C13.5643 24.033 13.5474 23.9045 13.5797 23.7839C13.612 23.6633 13.6909 23.5605 13.799 23.4981C13.9072 23.4357 14.0357 23.4188 14.1563 23.4511L19.7484 24.9511C19.8667 24.9838 19.9903 24.9923 20.1119 24.9762C20.2335 24.9601 20.3506 24.9197 20.4563 24.8574C20.618 24.7658 20.7488 24.6281 20.8318 24.4617C20.9148 24.2954 20.9462 24.108 20.9221 23.9237C20.8979 23.7394 20.8192 23.5665 20.6961 23.4272C20.5731 23.2879 20.4112 23.1885 20.2313 23.1417L13.2375 21.2667C12.8526 21.1629 12.4475 21.1597 12.0609 21.2574L9.375 21.9277V26.8964L10.3969 27.4074C10.7225 27.5714 11.0822 27.6566 11.4469 27.6558ZM1.875 21.5621H4.6875V27.1871H1.875V21.5621Z" fill="#1F458A"/>
</svg>
