<svg width="31" height="30" viewBox="0 0 31 30" fill="none" xmlns="http://www.w3.org/2000/svg">
<g clip-path="url(#clip0_1504_17210)">
<path d="M30.578 10.9545C30.5059 10.8663 30.4151 10.7951 30.3121 10.7461C30.2092 10.6971 30.0967 10.6715 29.9827 10.6711H27.063C26.3424 8.7707 25.4038 6.90871 24.3368 6.20585C20.6459 3.77774 10.8558 3.77774 7.16486 6.20585C6.09714 6.90947 5.1623 8.77377 4.43794 10.6711H1.51821C1.40413 10.671 1.29148 10.6964 1.18849 10.7455C1.08549 10.7945 0.994749 10.8659 0.922894 10.9545C0.850602 11.0428 0.799004 11.1462 0.771887 11.2571C0.744771 11.3679 0.742825 11.4835 0.766192 11.5952L1.19866 13.6907C1.23451 13.8636 1.32888 14.0189 1.46585 14.1305C1.60283 14.242 1.77405 14.3029 1.95068 14.3029H2.81561C1.98063 15.2662 1.57582 16.4791 1.57044 17.6927C1.56507 19.1922 2.13426 20.5472 3.1751 21.5058C3.18663 21.5158 3.19815 21.5227 3.2089 21.5327V24.4647C3.2089 25.1 3.7251 25.6169 4.36112 25.6169H7.05425C7.69027 25.6169 8.20647 25.1 8.20647 24.4647V23.2864H23.2937V24.4647C23.2937 25.1 23.8099 25.6169 24.4459 25.6169H27.139C27.7735 25.6169 28.2912 25.1 28.2912 24.4647V21.5903C29.3958 20.5787 29.9235 19.1868 29.9304 17.7972C29.9351 16.542 29.5118 15.2846 28.6277 14.3014H29.5502C29.7271 14.3019 29.8987 14.2411 30.0358 14.1293C30.1729 14.0176 30.2671 13.8617 30.3022 13.6884L30.7355 11.5936C30.7578 11.4821 30.7552 11.367 30.728 11.2565C30.7008 11.1461 30.6496 11.043 30.578 10.9545ZM8.43 8.13006C11.372 6.19356 20.1281 6.19356 23.0686 8.13006C23.6401 8.50492 24.3752 10.0205 25.0489 11.8763H6.45125C7.12338 10.0212 7.8585 8.50645 8.43 8.13006ZM4.98409 17.9816C4.98419 17.3805 5.22307 16.804 5.64818 16.3791C6.07329 15.9541 6.6498 15.7154 7.25089 15.7155C7.85199 15.7156 8.42842 15.9545 8.85338 16.3796C9.27835 16.8047 9.51703 17.3812 9.51693 17.9823C9.51688 18.28 9.45821 18.5747 9.34426 18.8496C9.23032 19.1246 9.06333 19.3744 8.85284 19.5848C8.64235 19.7952 8.39247 19.9621 8.11748 20.076C7.84248 20.1898 7.54776 20.2484 7.25012 20.2484C6.95249 20.2483 6.65779 20.1896 6.38283 20.0757C6.10788 19.9617 5.85806 19.7948 5.64764 19.5843C5.22267 19.1592 4.98399 18.5826 4.98409 17.9816ZM24.2792 20.2484C23.6779 20.2484 23.1012 20.0095 22.676 19.5843C22.2509 19.1591 22.012 18.5825 22.012 17.9812C22.012 17.3799 22.2509 16.8032 22.676 16.378C23.1012 15.9528 23.6779 15.714 24.2792 15.714C24.8805 15.714 25.4572 15.9528 25.8823 16.378C26.3075 16.8032 26.5464 17.3799 26.5464 17.9812C26.5464 18.5825 26.3075 19.1591 25.8823 19.5843C25.4572 20.0095 24.8805 20.2484 24.2792 20.2484Z" fill="#1F458A"/>
</g>
<defs>
<clipPath id="clip0_1504_17210">
<rect width="30" height="30" fill="white" transform="translate(0.75)"/>
</clipPath>
</defs>
</svg>
