<svg width="152" height="152" viewBox="0 0 152 152" fill="none" xmlns="http://www.w3.org/2000/svg">
<circle cx="76" cy="76" r="75.5" stroke="#E5E7EB" stroke-dasharray="8 8"/>
<circle cx="76" cy="76" r="60" fill="#F9FAFB"/>
<path d="M108.171 81.9631L108.15 81.9735C105.682 83.8662 104.636 87.0869 105.514 90.0673L105.525 90.0883C106.926 94.8254 103.454 99.6041 98.5184 99.7297H98.4976C95.3814 99.8134 92.6416 101.8 91.6063 104.739V104.749C89.9539 109.413 84.3282 111.243 80.2604 108.43C77.7345 106.705 74.3953 106.615 71.7378 108.43H71.7274C67.6597 111.232 62.0337 109.413 60.3919 104.738C59.3473 101.793 56.6116 99.8131 53.5007 99.7296H53.4798C48.5441 99.604 45.0722 94.8253 46.4735 90.0882L46.4839 90.0672C47.3621 87.0868 46.3165 83.8661 43.8488 81.9734L43.8278 81.963C39.9064 78.9512 39.9064 73.0536 43.8278 70.0419L43.8488 70.0315C46.3165 68.1389 47.3621 64.918 46.4735 61.9377V61.9168C45.0617 57.1798 48.544 52.4008 53.4798 52.2754H53.5007C56.6064 52.1917 59.3566 50.2048 60.3919 47.2664V47.256C62.0336 42.5922 67.6597 40.7623 71.7274 43.5753H71.7378C74.2997 45.3426 77.6878 45.3426 80.2604 43.5753C84.3692 40.7379 89.9636 42.6202 91.6063 47.256V47.2664C92.6416 50.1944 95.3812 52.1918 98.4976 52.2754H98.5184C103.454 52.4008 106.926 57.1798 105.525 61.9168L105.514 61.9377C104.636 64.918 105.682 68.1389 108.15 70.0315L108.171 70.0419C112.092 73.0536 112.092 78.9514 108.171 81.9631Z" fill="url(#paint0_linear_1600_7718)"/>
<path d="M75.9985 95.4789C86.7564 95.4789 95.4774 86.7579 95.4774 75.9999C95.4774 65.242 86.7564 56.521 75.9985 56.521C65.2406 56.521 56.5195 65.242 56.5195 75.9999C56.5195 86.7579 65.2406 95.4789 75.9985 95.4789Z" fill="white"/>
<path d="M71.3669 83.6255L67.0594 79.0428C65.9313 77.8424 65.9895 75.9551 67.1895 74.827C68.3894 73.6975 70.2776 73.7581 71.4047 74.9577L73.4609 77.1444L82.2012 67.1547C83.2846 65.9149 85.169 65.7892 86.4097 66.8741C87.6494 67.959 87.7746 69.8428 86.6902 71.0826L75.7841 83.5469C74.6222 84.8734 72.5718 84.9081 71.3669 83.6255Z" fill="#1F458A"/>
<defs>
<linearGradient id="paint0_linear_1600_7718" x1="75.9993" y1="109.763" x2="75.9993" y2="42.2367" gradientUnits="userSpaceOnUse">
<stop stop-color="#1F458A"/>
<stop offset="0.3103" stop-color="#2563EB"/>
<stop offset="0.9631" stop-color="#2563EB"/>
<stop offset="1" stop-color="#0075FF"/>
</linearGradient>
</defs>
</svg>
