<svg width="302" height="294" viewBox="0 0 302 294" fill="none" xmlns="http://www.w3.org/2000/svg">
<path d="M254.966 62.8979C253.6 62.8979 252.488 61.7864 252.488 60.4204C252.488 59.0543 253.6 57.9429 254.966 57.9429C256.332 57.9429 257.443 59.0543 257.443 60.4204C257.443 61.7866 256.332 62.8979 254.966 62.8979ZM254.966 59.2671C254.33 59.2671 253.812 59.7845 253.812 60.4206C253.812 61.0565 254.33 61.574 254.966 61.574C255.602 61.574 256.119 61.0567 256.119 60.4206C256.119 59.7845 255.602 59.2671 254.966 59.2671Z" fill="#DEDEDE"/>
<path d="M207.812 133.092C207.735 132.961 207.611 132.868 207.464 132.83C207.317 132.792 207.164 132.814 207.033 132.891L205.146 134.006L204.031 132.119C203.954 131.988 203.83 131.896 203.683 131.858C203.536 131.82 203.383 131.841 203.252 131.919C203.121 131.996 203.028 132.119 202.991 132.267C202.953 132.414 202.974 132.567 203.052 132.698L204.167 134.585L202.28 135.7C202.149 135.778 202.056 135.901 202.018 136.048C201.98 136.195 202.002 136.348 202.079 136.479C202.157 136.61 202.28 136.703 202.427 136.741C202.575 136.778 202.728 136.757 202.858 136.679L204.746 135.564L205.861 137.451C205.987 137.665 206.231 137.765 206.461 137.72C206.522 137.708 206.583 137.685 206.64 137.652C206.91 137.492 207 137.143 206.84 136.873L205.725 134.985L207.612 133.87C207.882 133.711 207.972 133.362 207.812 133.092Z" fill="#DEDEDE"/>
<path d="M212.595 145.586C211.229 145.586 210.117 144.475 210.117 143.109C210.117 141.743 211.229 140.631 212.595 140.631C213.961 140.631 215.072 141.743 215.072 143.109C215.072 144.475 213.961 145.586 212.595 145.586ZM212.595 141.956C211.959 141.956 211.441 142.473 211.441 143.109C211.441 143.745 211.959 144.263 212.595 144.263C213.231 144.263 213.748 143.745 213.748 143.109C213.748 142.473 213.231 141.956 212.595 141.956Z" fill="#DEDEDE"/>
<path d="M290.089 224.055C289.952 224.122 289.85 224.237 289.8 224.381C289.751 224.525 289.76 224.679 289.827 224.815L290.787 226.786L288.816 227.746C288.68 227.813 288.577 227.929 288.528 228.072C288.478 228.216 288.487 228.37 288.554 228.507C288.62 228.643 288.736 228.746 288.88 228.795C289.023 228.845 289.178 228.835 289.314 228.769L291.285 227.809L292.245 229.779C292.311 229.916 292.427 230.018 292.571 230.068C292.714 230.117 292.869 230.108 293.005 230.041C293.142 229.975 293.244 229.859 293.294 229.716C293.343 229.572 293.334 229.418 293.267 229.281L292.307 227.31L294.278 226.35C294.501 226.242 294.621 226.006 294.594 225.773C294.587 225.711 294.569 225.649 294.54 225.59C294.403 225.308 294.062 225.19 293.78 225.328L291.809 226.288L290.849 224.317C290.712 224.035 290.371 223.918 290.089 224.055Z" fill="#DEDEDE"/>
<path d="M238.587 272.688C237.221 272.688 236.109 271.577 236.109 270.211C236.109 268.845 237.221 267.733 238.587 267.733C239.953 267.733 241.064 268.845 241.064 270.211C241.064 271.577 239.953 272.688 238.587 272.688ZM238.587 269.057C237.951 269.057 237.434 269.575 237.434 270.211C237.434 270.847 237.951 271.364 238.587 271.364C239.223 271.364 239.74 270.847 239.74 270.211C239.74 269.575 239.223 269.057 238.587 269.057Z" fill="#DEDEDE"/>
<path d="M0.401363 253.203C0.288129 253.305 0.221371 253.444 0.213054 253.596C0.204738 253.748 0.256152 253.893 0.357657 254.006L1.82115 255.639L0.188976 257.102C0.0757417 257.203 0.00897843 257.343 0.000875054 257.495C-0.00744157 257.646 0.0437381 257.792 0.145243 257.905C0.246749 258.018 0.386013 258.085 0.537844 258.094C0.689463 258.102 0.835308 258.05 0.948329 257.949L2.58053 256.485L4.04405 258.118C4.14556 258.231 4.28501 258.298 4.43662 258.306C4.58824 258.314 4.73411 258.263 4.84714 258.161C4.96037 258.06 5.0271 257.921 5.03542 257.769C5.04352 257.617 4.99235 257.471 4.89084 257.358L3.42732 255.726L5.05952 254.263C5.24377 254.097 5.29473 253.838 5.20496 253.621C5.18107 253.564 5.14716 253.509 5.10302 253.46C4.89361 253.226 4.53344 253.207 4.29994 253.416L2.66776 254.879L1.20403 253.247C0.995264 253.013 0.634869 252.994 0.401363 253.203Z" fill="#DEDEDE"/>
<path d="M48.6337 293.528C47.2677 293.528 46.1562 292.417 46.1562 291.051C46.1562 289.684 47.2677 288.573 48.6337 288.573C49.9998 288.573 51.1112 289.684 51.1112 291.051C51.111 292.417 49.9998 293.528 48.6337 293.528ZM48.6337 289.897C47.9978 289.897 47.4803 290.415 47.4803 291.051C47.4803 291.687 47.9978 292.204 48.6337 292.204C49.2696 292.204 49.787 291.687 49.787 291.051C49.787 290.415 49.2696 289.897 48.6337 289.897Z" fill="#DEDEDE"/>
<path d="M3.78487 102.994C3.67398 103.098 3.61042 103.239 3.60551 103.39C3.60061 103.542 3.65522 103.687 3.75928 103.798L5.25904 105.397L3.66013 106.896C3.54924 107 3.48568 107.141 3.48077 107.293C3.47587 107.445 3.53024 107.589 3.63431 107.7C3.73837 107.811 3.87914 107.875 4.03097 107.879C4.1828 107.884 4.32736 107.83 4.43825 107.726L6.03718 106.226L7.53694 107.825C7.641 107.936 7.78174 107.999 7.93357 108.004C8.08541 108.009 8.22999 107.955 8.34088 107.85C8.45177 107.747 8.51533 107.606 8.52024 107.454C8.52493 107.302 8.47053 107.157 8.36647 107.047L6.86672 105.448L8.46562 103.948C8.64603 103.779 8.69124 103.518 8.59677 103.303C8.5716 103.246 8.53642 103.192 8.49121 103.144C8.27669 102.915 7.9161 102.904 7.6875 103.118L6.08857 104.618L4.5886 103.019C4.37408 102.791 4.01347 102.779 3.78487 102.994Z" fill="#DEDEDE"/>
<path d="M20.3525 120.289C18.9865 120.289 17.875 119.178 17.875 117.812C17.875 116.446 18.9865 115.334 20.3525 115.334C21.7186 115.334 22.83 116.446 22.83 117.812C22.83 119.178 21.7186 120.289 20.3525 120.289ZM20.3525 116.658C19.7166 116.658 19.199 117.176 19.199 117.812C19.199 118.448 19.7164 118.965 20.3525 118.965C20.9884 118.965 21.5059 118.448 21.5059 117.812C21.5059 117.176 20.9886 116.658 20.3525 116.658Z" fill="#DEDEDE"/>
<path d="M297.432 123.794C297.281 123.816 297.148 123.895 297.057 124.017C296.966 124.138 296.928 124.288 296.95 124.439L297.263 126.608L295.093 126.921C294.943 126.943 294.81 127.022 294.719 127.144C294.628 127.265 294.59 127.415 294.611 127.565C294.633 127.716 294.712 127.849 294.834 127.94C294.955 128.031 295.105 128.069 295.255 128.047L297.425 127.734L297.738 129.904C297.76 130.054 297.839 130.187 297.96 130.278C298.082 130.369 298.232 130.407 298.382 130.385C298.533 130.364 298.665 130.285 298.757 130.163C298.847 130.041 298.886 129.892 298.864 129.741L298.551 127.572L300.721 127.259C300.966 127.223 301.152 127.036 301.197 126.805C301.21 126.744 301.212 126.68 301.202 126.614C301.157 126.304 300.869 126.088 300.558 126.133L298.388 126.446L298.075 124.276C298.031 123.966 297.742 123.749 297.432 123.794Z" fill="#DEDEDE"/>
<path d="M121.319 23.5696C121.168 23.5536 121.02 23.5974 120.902 23.6927C120.783 23.7882 120.71 23.9241 120.694 24.075L120.461 26.2548L118.281 26.0226C118.13 26.0064 117.982 26.0503 117.864 26.1457C117.746 26.2412 117.672 26.3766 117.656 26.5278C117.64 26.6788 117.683 26.8272 117.779 26.9453C117.874 27.0637 118.01 27.1375 118.161 27.1537L120.341 27.3859L120.109 29.5657C120.093 29.7167 120.136 29.8651 120.232 29.9832C120.327 30.1014 120.463 30.1754 120.614 30.1914C120.765 30.2076 120.913 30.1639 121.031 30.0683C121.149 29.9728 121.223 29.8372 121.239 29.6862L121.472 27.5062L123.652 27.7384C123.898 27.7644 124.124 27.6288 124.226 27.417C124.252 27.3605 124.27 27.2987 124.277 27.233C124.311 26.9212 124.084 26.6404 123.772 26.6073L121.592 26.3751L121.824 24.1953C121.858 23.8835 121.631 23.6029 121.319 23.5696Z" fill="#DEDEDE"/>
<path d="M242.048 0C236.365 0 231.757 4.60613 231.757 10.2896V105.355C231.757 112.812 225.711 118.86 218.252 118.86H151.18V12.7581C151.18 5.7116 156.893 0 163.939 0H242.048Z" fill="#E9ECF3"/>
<path d="M218.254 118.86H184.168V61.5883C184.168 55.905 188.775 51.2976 194.459 51.2976C197.3 51.2976 199.873 52.4491 201.735 54.3114C203.598 56.1737 204.749 58.7465 204.749 61.5883V105.354C204.749 112.813 210.796 118.86 218.254 118.86Z" fill="#DEDEDE"/>
<path d="M194.458 51.2976C188.775 51.2976 184.168 55.905 184.168 61.5883V253.189C184.168 256.712 182.739 259.903 180.431 262.211C178.122 264.52 174.932 265.948 171.409 265.948H72.3874C65.3415 265.948 59.6289 260.236 59.6289 253.19V64.0562C59.6289 57.0099 65.3411 51.2976 72.3874 51.2976H194.458Z" fill="#E9ECF3"/>
<path d="M171.411 265.948H43.5127C36.4662 265.948 30.7539 260.236 30.7539 253.189V245.367H158.652V253.189C158.652 260.236 164.364 265.948 171.411 265.948Z" fill="#DEDEDE"/>
<path d="M91.6397 170.756V165.787H78.2285C76.5361 165.787 75.2671 165.404 74.4214 164.638C73.5752 163.873 73.1523 162.831 73.1523 161.512C73.1523 161.174 73.2146 160.831 73.3394 160.484C73.4637 160.136 73.6507 159.772 73.9004 159.388C74.1497 159.006 74.4079 158.636 74.6751 158.28C74.9423 157.924 75.2716 157.488 75.6637 156.971L89.8231 138.029C90.749 136.783 91.5103 135.878 92.1074 135.317C92.7039 134.756 93.4206 134.476 94.258 134.476C96.9652 134.476 98.3188 136.025 98.3188 139.124V159.803H99.4676C100.839 159.803 101.939 159.99 102.767 160.364C103.595 160.738 104.009 161.557 104.009 162.821C104.009 163.855 103.671 164.607 102.994 165.079C102.317 165.551 101.302 165.787 99.9485 165.787H98.3188V170.756C98.3188 172.128 98.0158 173.147 97.4106 173.815C96.8048 174.483 95.9947 174.817 94.9794 174.817C93.9818 174.817 93.176 174.474 92.5616 173.789C91.947 173.103 91.6397 172.092 91.6397 170.756ZM80.1519 159.802H91.6397V144.28L80.1519 159.802Z" fill="#1F458A"/>
<path d="M134.92 154.94C134.92 157.861 134.741 160.372 134.385 162.474C134.029 164.576 133.37 166.481 132.408 168.191C131.197 170.293 129.63 171.914 127.706 173.053C125.783 174.193 123.645 174.763 121.294 174.763C118.587 174.763 116.16 173.997 114.014 172.465C111.868 170.934 110.252 168.815 109.165 166.107C108.613 164.629 108.208 162.995 107.95 161.205C107.691 159.415 107.562 157.478 107.562 155.394C107.562 152.705 107.705 150.282 107.99 148.127C108.275 145.972 108.72 144.12 109.326 142.57C110.377 140.006 111.904 138.051 113.908 136.706C115.911 135.362 118.302 134.689 121.081 134.689C122.915 134.689 124.581 134.988 126.077 135.584C127.573 136.181 128.886 137.054 130.017 138.202C131.148 139.351 132.106 140.772 132.889 142.464C134.243 145.402 134.92 149.561 134.92 154.94ZM127.6 154.406C127.6 151.146 127.403 148.479 127.012 146.404C126.62 144.329 125.961 142.762 125.035 141.702C124.109 140.643 122.826 140.112 121.188 140.112C118.837 140.112 117.203 141.297 116.285 143.666C115.368 146.035 114.91 149.686 114.91 154.619C114.91 157.968 115.105 160.71 115.497 162.848C115.889 164.985 116.548 166.601 117.474 167.696C118.4 168.792 119.656 169.339 121.241 169.339C122.88 169.339 124.162 168.77 125.088 167.63C126.014 166.49 126.665 164.86 127.039 162.741C127.413 160.622 127.6 157.843 127.6 154.406Z" fill="#1F458A"/>
<path d="M156.667 170.756V165.787H143.256C141.564 165.787 140.294 165.404 139.449 164.638C138.603 163.873 138.18 162.831 138.18 161.512C138.18 161.174 138.242 160.831 138.367 160.484C138.491 160.136 138.678 159.772 138.928 159.388C139.177 159.006 139.435 158.636 139.703 158.28C139.97 157.924 140.299 157.488 140.691 156.971L154.85 138.029C155.776 136.783 156.538 135.878 157.135 135.317C157.731 134.756 158.448 134.476 159.285 134.476C161.992 134.476 163.346 136.025 163.346 139.124V159.803H164.495C165.866 159.803 166.966 159.99 167.794 160.364C168.622 160.738 169.037 161.557 169.037 162.821C169.037 163.855 168.698 164.607 168.021 165.079C167.344 165.551 166.329 165.787 164.976 165.787H163.346V170.756C163.346 172.128 163.043 173.147 162.438 173.815C161.832 174.483 161.022 174.817 160.006 174.817C159.009 174.817 158.203 174.474 157.589 173.789C156.974 173.103 156.667 172.092 156.667 170.756ZM145.179 159.802H156.667V144.28L145.179 159.802Z" fill="#1F458A"/>
<path d="M151.18 51.6694H194.456" stroke="#DEDEDE" stroke-width="5" stroke-miterlimit="10"/>
<path d="M241.783 241.219V241.22C239.889 243.115 236.816 243.115 234.921 241.22L205.459 211.757L201.715 208.013C204.44 206.214 206.778 203.876 208.577 201.151L241.783 234.357C243.678 236.253 243.678 239.324 241.783 241.219Z" fill="#9C9C9C"/>
<path d="M210.069 202.643L217.746 210.321C215.948 213.046 213.611 215.384 210.885 217.184H210.884L206.951 213.249L203.207 209.506C205.933 207.706 208.271 205.368 210.069 202.643Z" fill="#5E5E5E"/>
<path d="M217.718 186.654C217.666 185.411 217.536 184.189 217.332 182.991C216.179 176.18 212.672 170.169 207.678 165.826C202.539 161.355 195.825 158.648 188.478 158.648C172.315 158.648 159.211 171.752 159.211 187.916C159.211 189.035 159.274 190.139 159.396 191.226C159.779 194.631 160.747 197.859 162.197 200.808V200.809C164.279 205.046 167.357 208.707 171.125 211.485C171.737 211.937 172.368 212.366 173.016 212.77C177.503 215.567 182.802 217.184 188.478 217.184C194.808 217.184 200.669 215.174 205.457 211.758C205.457 211.758 205.458 211.758 205.458 211.757C208.108 209.867 210.428 207.546 212.319 204.896V204.895H212.32C214.22 202.232 215.685 199.238 216.61 196.016C217.349 193.444 217.745 190.727 217.745 187.917C217.745 187.493 217.736 187.073 217.718 186.654ZM188.478 211.976C183.213 211.976 178.344 210.285 174.382 207.416C170.537 204.633 167.547 200.739 165.882 196.205C164.934 193.621 164.417 190.829 164.417 187.916C164.417 186.82 164.491 185.741 164.633 184.685C165.83 175.763 171.918 168.389 180.111 165.35C182.717 164.384 185.536 163.855 188.478 163.855C189.542 163.855 190.59 163.924 191.618 164.059C196.496 164.693 200.915 166.79 204.422 169.895C209.401 174.303 212.539 180.743 212.539 187.916C212.539 188.283 212.531 188.647 212.514 189.009C212.436 190.775 212.166 192.492 211.726 194.139C211.053 196.664 209.978 199.025 208.576 201.151C206.777 203.876 204.439 206.215 201.714 208.014C201.045 208.455 200.353 208.863 199.64 209.237C198.116 210.036 196.496 210.677 194.801 211.136C192.786 211.684 190.666 211.976 188.478 211.976Z" fill="#B8B8B8"/>
<path d="M170.259 190.562C169.018 190.562 168.012 189.556 168.012 188.315C168.012 182.742 170.182 177.502 174.123 173.561C178.064 169.62 183.304 167.449 188.877 167.449C190.118 167.449 191.124 168.455 191.124 169.696C191.124 170.937 190.118 171.943 188.877 171.943C184.504 171.943 180.393 173.646 177.301 176.738C174.208 179.831 172.505 183.942 172.505 188.315C172.506 189.556 171.5 190.562 170.259 190.562Z" fill="white"/>
</svg>
