<svg width="41" height="40" viewBox="0 0 41 40" fill="none" xmlns="http://www.w3.org/2000/svg">
<path d="M36.4315 17.8999L34.1648 15.2666C33.7315 14.7666 33.3815 13.8333 33.3815 13.1666V10.3333C33.3815 8.5666 31.9315 7.1166 30.1648 7.1166H27.3315C26.6815 7.1166 25.7315 6.7666 25.2315 6.33327L22.5982 4.0666C21.4482 3.08327 19.5648 3.08327 18.3982 4.0666L15.7815 6.34993C15.2815 6.7666 14.3315 7.1166 13.6815 7.1166H10.7982C9.03151 7.1166 7.58151 8.5666 7.58151 10.3333V13.1833C7.58151 13.8333 7.23151 14.7666 6.81484 15.2666L4.56484 17.9166C3.59818 19.0666 3.59818 20.9333 4.56484 22.0833L6.81484 24.7333C7.23151 25.2333 7.58151 26.1666 7.58151 26.8166V29.6666C7.58151 31.4333 9.03151 32.8833 10.7982 32.8833H13.6815C14.3315 32.8833 15.2815 33.2333 15.7815 33.6666L18.4148 35.9333C19.5648 36.9166 21.4482 36.9166 22.6148 35.9333L25.2482 33.6666C25.7482 33.2333 26.6815 32.8833 27.3482 32.8833H30.1815C31.9482 32.8833 33.3982 31.4333 33.3982 29.6666V26.8333C33.3982 26.1833 33.7482 25.2333 34.1815 24.7333L36.4482 22.0999C37.4148 20.9499 37.4148 19.0499 36.4315 17.8999ZM27.4315 16.8499L19.3815 24.8999C19.1482 25.1333 18.8315 25.2666 18.4982 25.2666C18.1648 25.2666 17.8482 25.1333 17.6148 24.8999L13.5815 20.8666C13.0982 20.3833 13.0982 19.5833 13.5815 19.0999C14.0648 18.6166 14.8648 18.6166 15.3482 19.0999L18.4982 22.2499L25.6648 15.0833C26.1482 14.5999 26.9482 14.5999 27.4315 15.0833C27.9148 15.5666 27.9148 16.3666 27.4315 16.8499Z" fill="#1F458A"/>
</svg>
