<svg width="22" height="22" viewBox="0 0 22 22" fill="none" xmlns="http://www.w3.org/2000/svg">
<path d="M10.9997 0.25C11.8657 0.25002 12.6404 0.52705 13.4762 0.996094C14.286 1.45054 15.2139 2.12131 16.3805 2.96484L17.8893 4.05664C18.8257 4.73365 19.5742 5.27391 20.1383 5.77441C20.7209 6.29126 21.1568 6.80697 21.4333 7.45508C21.7103 8.10463 21.7771 8.77046 21.7399 9.53809C21.704 10.2788 21.5674 11.1727 21.3961 12.2871L21.0807 14.3389C20.8374 15.9226 20.6428 17.1835 20.3581 18.166C20.0637 19.182 19.6491 19.9889 18.9079 20.6055C18.1698 21.2193 17.2905 21.4926 16.2165 21.623C15.1715 21.75 13.8531 21.75 12.1881 21.75H9.81021C8.1456 21.75 6.82768 21.7499 5.78287 21.623C4.70871 21.4926 3.82866 21.2194 3.09049 20.6055C2.34934 19.989 1.93466 19.1819 1.64029 18.166C1.35563 17.1836 1.16195 15.9225 0.91861 14.3389L0.603181 12.2871C0.431907 11.1726 0.295297 10.2789 0.259431 9.53809C0.222266 8.77046 0.289027 8.10463 0.566071 7.45508C0.842515 6.807 1.27849 6.29124 1.86099 5.77441C2.42506 5.27401 3.17291 4.73348 4.10904 4.05664L5.61881 2.96484C6.78547 2.12129 7.71336 1.45052 8.5231 0.996094C9.35898 0.527033 10.1336 0.25 10.9997 0.25ZM14.7887 15.3857C14.4495 14.95 13.8212 14.8717 13.3854 15.2109C12.7646 15.6941 11.9314 16 10.9997 16C10.0679 16 9.23469 15.6941 8.61392 15.2109C8.17814 14.8717 7.54986 14.95 7.2106 15.3857C6.87136 15.8216 6.94961 16.4498 7.38541 16.7891C8.36368 17.5506 9.63096 18 10.9997 18C12.3684 18 13.6357 17.5506 14.6139 16.7891C15.0497 16.4498 15.128 15.8215 14.7887 15.3857Z" fill="#1F458A"/>
</svg>
