<svg width="40" height="40" viewBox="0 0 40 40" fill="none" xmlns="http://www.w3.org/2000/svg">
<path d="M34.9513 1.66675H30.0513C28.6013 1.66675 27.5346 2.26675 27.0513 3.33341C26.7846 3.81675 26.668 4.38341 26.668 5.05008V9.95008C26.668 12.0667 27.9346 13.3334 30.0513 13.3334H34.9513C35.618 13.3334 36.1846 13.2167 36.668 12.9501C37.7346 12.4667 38.3346 11.4001 38.3346 9.95008V5.05008C38.3346 2.93341 37.068 1.66675 34.9513 1.66675ZM36.518 8.21675C36.3513 8.38341 36.1013 8.50008 35.8346 8.51675H33.4846V9.36675L33.5013 10.8334C33.4846 11.1167 33.3846 11.3501 33.1846 11.5501C33.018 11.7167 32.768 11.8334 32.5013 11.8334C31.9513 11.8334 31.5013 11.3834 31.5013 10.8334V8.50008L29.168 8.51675C28.618 8.51675 28.168 8.05008 28.168 7.50008C28.168 6.95008 28.618 6.50008 29.168 6.50008L30.6346 6.51675H31.5013V4.18341C31.5013 3.63341 31.9513 3.16675 32.5013 3.16675C33.0513 3.16675 33.5013 3.63341 33.5013 4.18341L33.4846 5.36675V6.50008H35.8346C36.3846 6.50008 36.8346 6.95008 36.8346 7.50008C36.818 7.78341 36.7013 8.01675 36.518 8.21675Z" fill="#C5C5C5"/>
<path d="M15.0018 17.3C17.1926 17.3 18.9685 15.5241 18.9685 13.3334C18.9685 11.1426 17.1926 9.3667 15.0018 9.3667C12.8111 9.3667 11.0352 11.1426 11.0352 13.3334C11.0352 15.5241 12.8111 17.3 15.0018 17.3Z" fill="#C5C5C5"/>
<path d="M34.9487 13.3333H34.1654V21.0166L33.9487 20.8333C32.6487 19.7166 30.5487 19.7166 29.2487 20.8333L22.3154 26.7833C21.0154 27.8999 18.9154 27.8999 17.6154 26.7833L17.0487 26.3166C15.8654 25.2833 13.982 25.1833 12.6487 26.0833L6.41536 30.2666C6.0487 29.3333 5.83203 28.2499 5.83203 26.9833V13.0166C5.83203 8.31659 8.31536 5.83325 13.0154 5.83325H26.6654V5.04992C26.6654 4.38325 26.782 3.81659 27.0487 3.33325H13.0154C6.9487 3.33325 3.33203 6.94992 3.33203 13.0166V26.9833C3.33203 28.7999 3.6487 30.3833 4.26536 31.7166C5.6987 34.8833 8.76536 36.6666 13.0154 36.6666H26.982C33.0487 36.6666 36.6654 33.0499 36.6654 26.9833V12.9499C36.182 13.2166 35.6154 13.3333 34.9487 13.3333Z" fill="#C5C5C5"/>
</svg>
