<svg width="18" height="20" viewBox="0 0 18 20" fill="none" xmlns="http://www.w3.org/2000/svg">
<path d="M9.04419 1.0415C10.577 1.04149 11.7887 1.04148 12.7366 1.16426C13.7094 1.29028 14.4983 1.55544 15.1227 2.15703C15.7504 2.76176 16.03 3.53103 16.1623 4.47921C16.2904 5.39692 16.2904 6.56823 16.2904 8.04105V15.038C16.2904 15.9526 16.2904 16.7126 16.2026 17.2836C16.1117 17.8744 15.8999 18.4494 15.3157 18.7614C14.7947 19.0396 14.2217 18.983 13.7358 18.8355C13.2444 18.6863 12.7449 18.4156 12.2876 18.1266C11.8259 17.8348 11.3269 17.468 10.9333 17.1771C10.5476 16.892 10.2378 16.663 10.0013 16.5206C9.66832 16.3201 9.45808 16.1944 9.28765 16.1141C9.13036 16.04 9.05395 16.0282 8.9987 16.0282C8.94345 16.0282 8.86705 16.04 8.70975 16.1141C8.53933 16.1944 8.32908 16.3201 7.99611 16.5206C7.7596 16.663 7.44983 16.892 7.06415 17.1771C6.67053 17.468 6.17152 17.8348 5.70983 18.1266C5.25248 18.4156 4.75298 18.6863 4.26156 18.8355C3.7757 18.983 3.20266 19.0396 2.68168 18.7614C2.0975 18.4494 1.88568 17.8744 1.79481 17.2836C1.70697 16.7126 1.707 15.9527 1.70703 15.0381L1.70703 8.04103C1.70702 6.56822 1.70701 5.39692 1.83507 4.47921C1.96739 3.53103 2.24703 2.76176 2.87471 2.15703C3.49913 1.55544 4.28796 1.29028 5.26084 1.16426C6.2087 1.04148 7.42044 1.04149 8.95321 1.0415H9.04419Z" stroke="#03070D" stroke-width="1.5" stroke-linecap="round" stroke-linejoin="round"/>
</svg>
