<svg width="21" height="20" viewBox="0 0 21 20" fill="none" xmlns="http://www.w3.org/2000/svg">
<path d="M16.4344 7.59989C16.1094 7.59989 15.851 7.85822 15.851 8.18322V9.49989C15.851 12.4499 13.451 14.8499 10.501 14.8499C7.55104 14.8499 5.15104 12.4499 5.15104 9.49989V8.17489C5.15104 7.84989 4.89271 7.59155 4.56771 7.59155C4.24271 7.59155 3.98438 7.84989 3.98438 8.17489V9.49155C3.98438 12.8832 6.59271 15.6749 9.91771 15.9749V17.7499C9.91771 18.0749 10.176 18.3332 10.501 18.3332C10.826 18.3332 11.0844 18.0749 11.0844 17.7499V15.9749C14.401 15.6832 17.0177 12.8832 17.0177 9.49155V8.17489C17.0094 7.85822 16.751 7.59989 16.4344 7.59989Z" fill="#1F458A"/>
<path d="M10.4997 1.66675C8.46641 1.66675 6.81641 3.31675 6.81641 5.35008V9.61675C6.81641 11.6501 8.46641 13.3001 10.4997 13.3001C12.5331 13.3001 14.1831 11.6501 14.1831 9.61675V5.35008C14.1831 3.31675 12.5331 1.66675 10.4997 1.66675ZM11.5914 7.45841C11.5331 7.67508 11.3414 7.81675 11.1247 7.81675C11.0831 7.81675 11.0414 7.80841 10.9997 7.80008C10.6747 7.70841 10.3331 7.70841 10.0081 7.80008C9.74141 7.87508 9.48307 7.71675 9.41641 7.45841C9.34141 7.20008 9.49974 6.93341 9.75807 6.86675C10.2497 6.73341 10.7664 6.73341 11.2581 6.86675C11.5081 6.93341 11.6581 7.20008 11.5914 7.45841ZM12.0331 5.84175C11.9581 6.04175 11.7747 6.15841 11.5747 6.15841C11.5164 6.15841 11.4664 6.15008 11.4081 6.13341C10.8247 5.91675 10.1747 5.91675 9.59141 6.13341C9.34141 6.22508 9.05807 6.09175 8.96641 5.84175C8.87474 5.59175 9.00807 5.30841 9.25807 5.22508C10.0581 4.93341 10.9414 4.93341 11.7414 5.22508C11.9914 5.31675 12.1247 5.59175 12.0331 5.84175Z" fill="#1F458A"/>
</svg>
