<svg width="17" height="16" viewBox="0 0 17 16" fill="none" xmlns="http://www.w3.org/2000/svg">
<g clip-path="url(#clip0_1504_14919)">
<path d="M1.83463 6.33301H3.50128C3.45066 6.33297 3.40071 6.32143 3.35521 6.29926C3.30971 6.27708 3.26984 6.24485 3.23863 6.20501C3.17528 6.12435 3.15328 6.01901 3.17797 5.91901L3.38531 5.09035C3.43917 4.87391 3.56395 4.68173 3.73976 4.54447C3.91556 4.4072 4.13227 4.33276 4.35531 4.33301H6.50131C7.05266 4.33301 7.50131 4.78166 7.50131 5.33301V5.99966C7.50131 6.18366 7.35197 6.33301 7.16797 6.33301H9.16797C8.98397 6.33301 8.83463 6.18366 8.83463 5.99966V5.33301C8.83463 4.78166 9.28328 4.33301 9.83463 4.33301H11.9806C12.2037 4.33276 12.4204 4.4072 12.5962 4.54447C12.772 4.68173 12.8968 4.87391 12.9506 5.09035L13.158 5.91901C13.1704 5.96814 13.1714 6.01948 13.1609 6.06906C13.1504 6.11864 13.1286 6.16515 13.0973 6.20501C13.0661 6.24485 13.0262 6.27708 12.9807 6.29926C12.9352 6.32143 12.8853 6.33297 12.8347 6.33301H14.5013C14.6853 6.33301 14.8347 6.18366 14.8347 5.99966V3.99966C14.8347 3.08101 14.0867 2.33301 13.168 2.33301H3.16797C2.24931 2.33301 1.50131 3.08101 1.50131 3.99966V5.99966C1.50131 6.18366 1.65062 6.33301 1.83463 6.33301ZM14.5013 6.99966H1.83463C0.915969 6.99966 0.167969 7.74766 0.167969 8.66632V13.333C0.167969 13.517 0.317312 13.6663 0.501312 13.6663C0.685313 13.6663 0.834656 13.517 0.834656 13.333V12.333H15.5013V13.333C15.5013 13.517 15.6507 13.6663 15.8347 13.6663C16.0187 13.6663 16.168 13.517 16.168 13.333V8.66632C16.168 7.74766 15.42 6.99966 14.5013 6.99966ZM15.5013 11.6663H0.834625V10.9997H15.5013V11.6663H15.5013Z" fill="#163162"/>
</g>
<defs>
<clipPath id="clip0_1504_14919">
<rect width="16" height="16" fill="white" transform="translate(0.167969)"/>
</clipPath>
</defs>
</svg>
