<svg width="20" height="24" viewBox="0 0 20 24" fill="none" xmlns="http://www.w3.org/2000/svg">
<path d="M10.0546 1.25C11.8939 1.24999 13.348 1.24997 14.4854 1.39731C15.6529 1.54853 16.5995 1.86672 17.3488 2.58863C18.102 3.31431 18.4376 4.23743 18.5964 5.37525C18.75 6.4765 18.75 7.88207 18.75 9.64945V18.0458C18.75 19.1434 18.7501 20.0553 18.6447 20.7405C18.5356 21.4495 18.2814 22.1395 17.5804 22.5139C16.9553 22.8477 16.2676 22.7798 15.6846 22.6028C15.0949 22.4238 14.4955 22.0989 13.9467 21.7521C13.3926 21.402 12.7938 20.9618 12.3215 20.6127C11.8587 20.2706 11.4869 19.9958 11.2031 19.8249C10.8035 19.5843 10.5513 19.4335 10.3467 19.3371C10.158 19.2482 10.0663 19.234 10 19.234C9.9337 19.234 9.84202 19.2482 9.65326 19.3371C9.44875 19.4335 9.19646 19.5843 8.7969 19.8249C8.51308 19.9958 8.14135 20.2706 7.67854 20.6127C7.2062 20.9618 6.60739 21.402 6.05335 21.7521C5.50454 22.0989 4.90514 22.4238 4.31544 22.6028C3.7324 22.7798 3.04476 22.8477 2.41958 22.5139C1.71857 22.1395 1.46438 21.4495 1.35533 20.7405C1.24993 20.0553 1.24996 19.1434 1.25 18.0459L1.25 9.64943C1.24999 7.88206 1.24997 6.4765 1.40365 5.37525C1.56243 4.23743 1.898 3.31431 2.65121 2.58863C3.40051 1.86672 4.34712 1.54853 5.51457 1.39731C6.652 1.24997 8.10609 1.24999 9.94542 1.25H10.0546Z" stroke="#1F458A" stroke-width="1.5" stroke-linecap="round" stroke-linejoin="round"/>
</svg>
