<svg width="18" height="22" viewBox="0 0 18 22" fill="none" xmlns="http://www.w3.org/2000/svg">
<path d="M9.05459 0.25C10.8939 0.249986 12.348 0.249975 13.4854 0.397307C14.6529 0.548529 15.5995 0.866724 16.3488 1.58863C17.102 2.31431 17.4376 3.23743 17.5964 4.37525C17.75 5.4765 17.75 6.88207 17.75 8.64945V17.0458C17.75 18.1434 17.7501 19.0553 17.6447 19.7405C17.5356 20.4495 17.2814 21.1395 16.5804 21.5139C15.9553 21.8477 15.2676 21.7798 14.6846 21.6028C14.0949 21.4238 13.4955 21.0989 12.9467 20.7521C12.3926 20.402 11.7938 19.9618 11.3215 19.6127C10.8587 19.2706 10.4869 18.9958 10.2031 18.8249C9.80355 18.5843 9.55126 18.4335 9.34675 18.3371C9.15799 18.2482 9.06631 18.234 9 18.234C8.9337 18.234 8.84202 18.2482 8.65326 18.3371C8.44875 18.4335 8.19646 18.5843 7.7969 18.8249C7.51308 18.9958 7.14135 19.2706 6.67854 19.6127C6.2062 19.9618 5.60739 20.402 5.05335 20.7521C4.50454 21.0989 3.90514 21.4238 3.31544 21.6028C2.7324 21.7798 2.04476 21.8477 1.41958 21.5139C0.718566 21.1395 0.464379 20.4495 0.355329 19.7405C0.24993 19.0553 0.249962 18.1434 0.250001 17.0459L0.250004 8.64943C0.249986 6.88206 0.249971 5.4765 0.403649 4.37525C0.56243 3.23743 0.897997 2.31431 1.65121 1.58863C2.40051 0.866724 3.34712 0.548529 4.51457 0.397307C5.652 0.249975 7.10609 0.249986 8.94542 0.25H9.05459Z" fill="#1F458A"/>
</svg>
