<svg width="16" height="17" viewBox="0 0 16 17" fill="none" xmlns="http://www.w3.org/2000/svg">
<path fill-rule="evenodd" clip-rule="evenodd" d="M14 8.50016C14 8.86835 13.7015 9.16683 13.3333 9.16683L2.66665 9.16683C2.29847 9.16683 1.99999 8.86835 1.99999 8.50016C1.99999 8.13197 2.29847 7.8335 2.66665 7.8335L13.3333 7.8335C13.7015 7.8335 14 8.13197 14 8.50016Z" fill="#163162"/>
<path d="M12.6481 8.5C12.5859 8.39682 12.4555 8.21141 12.3129 8.05004C12.0291 7.72882 11.6379 7.3619 11.2296 7.00737C10.8246 6.65571 10.4176 6.3291 10.1107 6.08958C9.95758 5.9701 9.69337 5.77051 9.60461 5.70347C9.30819 5.48512 9.24487 5.06782 9.4632 4.77137C9.68154 4.47491 10.0989 4.41157 10.3953 4.62991L10.3978 4.63178C10.4941 4.70448 10.7731 4.91527 10.931 5.03845C11.2491 5.28668 11.6754 5.62869 12.1037 6.00056C12.5287 6.36956 12.9709 6.78107 13.3121 7.16719C13.482 7.35949 13.641 7.56119 13.7611 7.7604C13.8701 7.9413 14 8.20453 14 8.49998C14 8.79542 13.8701 9.0587 13.7611 9.2396C13.641 9.43881 13.482 9.64051 13.3121 9.83281C12.9709 10.2189 12.5287 10.6304 12.1037 10.9994C11.6754 11.3713 11.2491 11.7133 10.931 11.9616C10.7731 12.0847 10.4942 12.2954 10.398 12.3681L10.3953 12.3701C10.0989 12.5884 9.68154 12.5251 9.4632 12.2286C9.24487 11.9322 9.30819 11.5149 9.60461 11.2965C9.69337 11.2295 9.95758 11.0299 10.1107 10.9104C10.4176 10.6709 10.8246 10.3443 11.2296 9.99263C11.6379 9.6381 12.0291 9.27118 12.3129 8.94996C12.4555 8.78859 12.5859 8.60318 12.6481 8.5Z" fill="#163162"/>
</svg>
