<svg width="16" height="16" viewBox="0 0 16 16" fill="none" xmlns="http://www.w3.org/2000/svg">
<path d="M3.6 5.3252H14.4C14.575 5.3252 14.75 5.3752 14.925 5.4502V4.3002C14.925 3.1752 14.025 2.2502 12.9 2.2002V3.3502C12.9 3.6252 12.675 3.8502 12.4 3.8502C12.125 3.8502 11.9 3.6002 11.9 3.3502V2.2002H5.725V3.3002C5.725 3.5752 5.5 3.8002 5.225 3.8002C4.95 3.8002 4.725 3.5502 4.725 3.3002V2.2002C3.575 2.2002 2.625 3.1502 2.625 4.3002V5.9752C2.775 5.5752 3.15 5.3252 3.6 5.3252ZM13.925 11.9752C13.575 12.6752 12.875 13.1002 12.125 13.1002H2.75C3.05 13.9252 3.825 14.5002 4.725 14.5002H12.825C13.975 14.5002 14.925 13.5502 14.925 12.4002V9.3752C14.85 9.6502 14.75 9.9502 14.65 10.2252C14.45 10.8002 14.2 11.4002 13.925 11.9752Z" fill="#163162"/>
<path d="M14.3998 6.3252H3.59983C3.54983 6.3252 3.52483 6.3502 3.52483 6.4002C3.37483 7.6252 3.07483 8.8252 2.67483 9.9752C2.47483 10.5002 2.24983 11.0502 1.99983 11.5752C1.89983 11.8002 2.04983 12.1002 2.32483 12.1002H12.1498C12.5248 12.1002 12.8748 11.8752 13.0498 11.5502C13.2998 11.0252 13.5248 10.4502 13.7248 9.9002C14.1248 8.7752 14.3748 7.6002 14.4998 6.4252C14.4998 6.4002 14.4998 6.3752 14.4748 6.3502C14.4498 6.3252 14.4248 6.3252 14.3998 6.3252ZM10.5998 8.3502L8.54983 10.4002C8.34983 10.6002 8.02483 10.6002 7.84983 10.4002L6.42483 8.9752C5.97483 8.5252 6.67483 7.8002 7.12483 8.2752L8.19983 9.3502L9.89983 7.6502C10.3498 7.2002 11.0498 7.9002 10.5998 8.3502Z" fill="#163162"/>
</svg>
