<svg width="18" height="18" viewBox="0 0 18 18" fill="none" xmlns="http://www.w3.org/2000/svg">
<path d="M5.06817 16.5H12.9282C14.9982 16.5 15.8232 15.2325 15.9207 13.6875L16.3107 7.4925C16.4157 5.8725 15.1257 4.5 13.4982 4.5C13.0407 4.5 12.6207 4.2375 12.4107 3.8325L11.8707 2.745C11.5257 2.0625 10.6257 1.5 9.86067 1.5H8.14317C7.37067 1.5 6.47067 2.0625 6.12567 2.745L5.58567 3.8325C5.37567 4.2375 4.95567 4.5 4.49817 4.5C2.87067 4.5 1.58067 5.8725 1.68567 7.4925L2.07567 13.6875C2.16567 15.2325 2.99817 16.5 5.06817 16.5Z" stroke="#E9ECF3" stroke-linecap="round" stroke-linejoin="round"/>
<path d="M7.875 6H10.125" stroke="#E9ECF3" stroke-linecap="round" stroke-linejoin="round"/>
<path d="M9 13.5C10.3425 13.5 11.4375 12.405 11.4375 11.0625C11.4375 9.72 10.3425 8.625 9 8.625C7.6575 8.625 6.5625 9.72 6.5625 11.0625C6.5625 12.405 7.6575 13.5 9 13.5Z" stroke="#E9ECF3" stroke-linecap="round" stroke-linejoin="round"/>
</svg>
