<svg width="17" height="16" viewBox="0 0 17 16" fill="none" xmlns="http://www.w3.org/2000/svg">
<g clip-path="url(#clip0_1504_13211)">
<path d="M8.5 0C4.08221 0 0.5 3.58221 0.5 8C0.5 12.4178 4.08221 16 8.5 16C9.23779 16 9.83333 15.4045 9.83333 14.6667C9.83333 14.32 9.70446 14.0089 9.48667 13.7733C9.27779 13.5378 9.15333 13.2311 9.15333 12.8889C9.15333 12.1511 9.74887 11.5555 10.4867 11.5555H12.0555C14.5089 11.5555 16.5 9.56442 16.5 7.11108C16.5 3.18221 12.9178 0 8.5 0ZM3.61112 8C2.87333 8 2.27779 7.40446 2.27779 6.66667C2.27779 5.92887 2.87333 5.33333 3.61112 5.33333C4.34892 5.33333 4.94446 5.92887 4.94446 6.66667C4.94446 7.40446 4.34888 8 3.61112 8ZM6.27779 4.44446C5.54 4.44446 4.94446 3.84892 4.94446 3.11112C4.94446 2.37333 5.54 1.77779 6.27779 1.77779C7.01558 1.77779 7.61113 2.37333 7.61113 3.11112C7.61113 3.84892 7.01554 4.44446 6.27779 4.44446ZM10.7222 4.44446C9.98442 4.44446 9.38888 3.84892 9.38888 3.11112C9.38888 2.37333 9.98442 1.77779 10.7222 1.77779C11.46 1.77779 12.0555 2.37333 12.0555 3.11112C12.0555 3.84892 11.46 4.44446 10.7222 4.44446ZM13.3889 8C12.6511 8 12.0555 7.40446 12.0555 6.66667C12.0555 5.92887 12.6511 5.33333 13.3889 5.33333C14.1267 5.33333 14.7222 5.92887 14.7222 6.66667C14.7222 7.40446 14.1267 8 13.3889 8Z" fill="#163162"/>
</g>
<defs>
<clipPath id="clip0_1504_13211">
<rect width="16" height="16" fill="white" transform="translate(0.5)"/>
</clipPath>
</defs>
</svg>
