<svg width="20" height="20" viewBox="0 0 20 20" fill="none" xmlns="http://www.w3.org/2000/svg">
<path d="M18.3307 6.29232C18.3307 6.84232 17.8807 7.29232 17.3307 7.29232H2.66406C2.11406 7.29232 1.66406 6.84232 1.66406 6.29232V6.28398C1.66406 4.37565 3.20573 2.83398 5.11406 2.83398H14.8724C16.7807 2.83398 18.3307 4.38398 18.3307 6.29232Z" fill="#1F458A"/>
<path d="M1.66406 9.54102V13.716C1.66406 15.6243 3.20573 17.166 5.11406 17.166H14.8724C16.7807 17.166 18.3307 15.616 18.3307 13.7077V9.54102C18.3307 8.99102 17.8807 8.54102 17.3307 8.54102H2.66406C2.11406 8.54102 1.66406 8.99102 1.66406 9.54102ZM6.66406 14.3743H4.9974C4.65573 14.3743 4.3724 14.091 4.3724 13.7493C4.3724 13.4077 4.65573 13.1243 4.9974 13.1243H6.66406C7.00573 13.1243 7.28906 13.4077 7.28906 13.7493C7.28906 14.091 7.00573 14.3743 6.66406 14.3743ZM12.0807 14.3743H8.7474C8.40573 14.3743 8.1224 14.091 8.1224 13.7493C8.1224 13.4077 8.40573 13.1243 8.7474 13.1243H12.0807C12.4224 13.1243 12.7057 13.4077 12.7057 13.7493C12.7057 14.091 12.4224 14.3743 12.0807 14.3743Z" fill="#1F458A"/>
</svg>
