<svg width="22" height="22" viewBox="0 0 22 22" fill="none" xmlns="http://www.w3.org/2000/svg">
<path d="M1 10.5667C1 15.8499 5.47778 20.1334 11 20.1334C11.6493 20.1343 12.2968 20.0742 12.9346 19.9545C13.3937 19.8682 13.6232 19.8251 13.7835 19.8496C13.9437 19.8741 14.1708 19.9948 14.625 20.2364C15.9099 20.9197 17.408 21.161 18.8489 20.893C18.3013 20.2194 17.9273 19.4112 17.7622 18.5448C17.6622 18.0148 17.91 17.5 18.2811 17.1231C19.9667 15.4115 21 13.1051 21 10.5667C21 5.28357 16.5222 1 11 1C5.47778 1 1 5.28357 1 10.5667Z" stroke="#141B34" stroke-width="1.5" stroke-linejoin="round"/>
</svg>
