<svg width="16" height="16" viewBox="0 0 16 16" fill="none" xmlns="http://www.w3.org/2000/svg">
<path d="M15.4474 8.63188C15.3349 7.36906 15.1496 7.12313 15.0796 7.03062C14.9186 6.81687 14.6611 6.67719 14.3886 6.53062C14.3732 6.52248 14.3599 6.51086 14.3498 6.49669C14.3396 6.48252 14.3329 6.46618 14.3301 6.44897C14.3274 6.43176 14.3287 6.41414 14.3339 6.39751C14.3391 6.38087 14.3481 6.36568 14.3602 6.35313C14.4107 6.30195 14.4495 6.24045 14.4739 6.17285C14.4983 6.10526 14.5078 6.03318 14.5018 5.96156C14.49 5.83457 14.431 5.71662 14.3363 5.63113C14.2417 5.54563 14.1184 5.49883 13.9908 5.5H13.5033C13.4824 5.50012 13.4616 5.50148 13.4408 5.50406C13.4266 5.49789 13.4119 5.49297 13.3968 5.48938C13.108 4.87906 12.7127 4.04344 11.8933 3.63562C10.678 3.03125 8.43927 3 8.00177 3C7.56427 3 5.32552 3.03125 4.11177 3.63469C3.29239 4.0425 2.89708 4.87813 2.60833 5.48844L2.60583 5.49344C2.59143 5.49546 2.57729 5.49903 2.56364 5.50406C2.54291 5.50148 2.52204 5.50012 2.50114 5.5H2.0127C1.88517 5.49883 1.76185 5.54563 1.66721 5.63113C1.57257 5.71662 1.51352 5.83457 1.50177 5.96156C1.49622 6.03301 1.50616 6.10482 1.53091 6.17208C1.55567 6.23933 1.59465 6.30045 1.6452 6.35125C1.6573 6.3638 1.66631 6.379 1.67152 6.39563C1.67674 6.41226 1.67802 6.42988 1.67526 6.44709C1.67251 6.46431 1.66579 6.48064 1.65563 6.49481C1.64548 6.50898 1.63218 6.5206 1.61677 6.52875C1.34427 6.67625 1.08552 6.81594 0.92583 7.02875C0.85583 7.1225 0.67083 7.36719 0.558017 8.63C0.495517 9.34063 0.486142 10.0763 0.535205 10.55C0.638017 11.5344 0.83083 12.1294 0.838955 12.1541C0.868542 12.2439 0.923005 12.3235 0.99602 12.3836C1.06904 12.4438 1.15761 12.4819 1.25145 12.4937V12.5C1.25145 12.6326 1.30413 12.7598 1.3979 12.8536C1.49167 12.9473 1.61885 13 1.75145 13H3.50145C3.63406 13 3.76124 12.9473 3.85501 12.8536C3.94878 12.7598 4.00145 12.6326 4.00145 12.5C4.27052 12.5 4.4577 12.4519 4.65614 12.4006C4.94264 12.3234 5.23548 12.2721 5.53114 12.2472C6.48458 12.1562 7.4327 12.125 8.00177 12.125C8.55927 12.125 9.54927 12.1562 10.5043 12.2472C10.8011 12.2721 11.0951 12.3237 11.3827 12.4012C11.5727 12.45 11.753 12.495 12.0027 12.4997C12.0027 12.6323 12.0554 12.7595 12.1492 12.8532C12.2429 12.947 12.3701 12.9997 12.5027 12.9997H14.2527C14.3853 12.9997 14.5125 12.947 14.6063 12.8532C14.7 12.7595 14.7527 12.6323 14.7527 12.4997V12.4959C14.8468 12.4844 14.9356 12.4463 15.0089 12.3861C15.0821 12.326 15.1368 12.2463 15.1665 12.1562C15.1746 12.1316 15.3674 11.5366 15.4702 10.5522C15.5193 10.0781 15.5105 9.34375 15.4474 8.63188ZM3.51208 5.91594C3.76208 5.38469 4.04802 4.78344 4.55708 4.53C5.2927 4.16375 6.81739 3.99875 8.00177 3.99875C9.18614 3.99875 10.7108 4.1625 11.4465 4.53C11.9555 4.78344 12.2402 5.385 12.4915 5.91594L12.5227 5.98375C12.541 6.02236 12.5491 6.065 12.5462 6.10761C12.5433 6.15023 12.5295 6.19139 12.5062 6.22718C12.4829 6.26296 12.4508 6.29218 12.413 6.31204C12.3752 6.3319 12.3329 6.34174 12.2902 6.34062C11.2518 6.3125 9.06427 6.2225 8.00177 6.2225C6.93927 6.2225 4.75177 6.31469 3.71177 6.34281C3.66907 6.34393 3.6268 6.33409 3.58899 6.31423C3.55117 6.29437 3.51908 6.26515 3.49576 6.22936C3.47245 6.19358 3.45869 6.15241 3.4558 6.1098C3.45291 6.06719 3.46099 6.02454 3.47927 5.98594C3.4902 5.96281 3.50177 5.93937 3.51208 5.91594ZM3.88489 8.40438C3.34733 8.46907 2.80633 8.50101 2.26489 8.5C1.93364 8.5 1.59208 8.40625 1.52864 8.11125C1.4852 7.91281 1.48989 7.80125 1.51333 7.68906C1.53302 7.59375 1.56427 7.52437 1.72052 7.5C2.12677 7.4375 2.35395 7.51594 3.01895 7.71187C3.45989 7.84156 3.77802 8.01437 3.95927 8.15125C4.0502 8.21875 4.00177 8.395 3.88489 8.40438ZM10.803 10.9669C10.3918 11.0138 9.56927 10.9966 8.01114 10.9966C6.45302 10.9966 5.63083 11.0138 5.21958 10.9669C4.7952 10.9197 4.25427 10.5184 4.62364 10.1609C4.86958 9.92531 5.44333 9.74906 6.20739 9.65C6.97145 9.55094 7.29489 9.5 8.00802 9.5C8.72114 9.5 9.01177 9.53125 9.80864 9.65031C10.6055 9.76937 11.2077 9.94781 11.3924 10.1613C11.7293 10.5438 11.2271 10.9172 10.803 10.9688V10.9669ZM14.4749 8.11094C14.4124 8.40719 14.0686 8.49969 13.7386 8.49969C13.1868 8.49982 12.6355 8.46789 12.0874 8.40406C11.9918 8.395 11.9474 8.22719 12.0443 8.15094C12.2227 8.01062 12.5443 7.84125 12.9846 7.71156C13.6496 7.51562 14.033 7.43719 14.3624 7.5025C14.4427 7.51844 14.4852 7.60469 14.4902 7.65875C14.5122 7.80928 14.5071 7.96255 14.4749 8.11125V8.11094Z" fill="#163162"/>
</svg>
