<svg width="16" height="17" viewBox="0 0 16 17" fill="none" xmlns="http://www.w3.org/2000/svg">
<path d="M11.2699 11.5896C11.6381 11.7898 12.2157 12.1037 12.6108 12.4766C12.8568 12.7088 13.1113 13.033 13.1581 13.4451C13.2086 13.8912 13.0032 14.2938 12.6342 14.6328C12.0149 15.2018 11.2618 15.6663 10.2851 15.6663H5.71262C4.73586 15.6663 3.98279 15.2018 3.36344 14.6328C2.99445 14.2938 2.78905 13.8912 2.83961 13.4451C2.88634 13.033 3.14083 12.7088 3.38686 12.4766C3.78198 12.1037 4.35954 11.7898 4.72775 11.5897C4.80973 11.5451 4.88134 11.5062 4.93824 11.4735C6.81266 10.3973 9.18502 10.3973 11.0594 11.4735C11.1163 11.5062 11.1879 11.5451 11.2699 11.5896Z" fill="#163162"/>
<path d="M5.16551 7.16634C5.16551 5.60153 6.43403 4.33301 7.99884 4.33301C9.56365 4.33301 10.8322 5.60153 10.8322 7.16634C10.8322 8.73115 9.56365 9.99967 7.99884 9.99967C6.43403 9.99967 5.16551 8.73115 5.16551 7.16634Z" fill="#163162"/>
<path fill-rule="evenodd" clip-rule="evenodd" d="M7.9987 2.62465C4.75812 2.62465 2.13506 5.21887 2.13506 8.41418C2.13506 9.24958 2.31386 10.0421 2.63518 10.7578C2.78147 11.0836 2.63358 11.4654 2.30484 11.6104C1.9761 11.7554 1.59101 11.6088 1.44471 11.2829C1.05066 10.4052 0.832031 9.43409 0.832031 8.41418C0.832031 4.50119 4.04284 1.33301 7.9987 1.33301C11.9546 1.33301 15.1654 4.50119 15.1654 8.41418C15.1654 9.43409 14.9467 10.4052 14.5527 11.2829C14.4064 11.6088 14.0213 11.7554 13.6926 11.6104C13.3638 11.4654 13.2159 11.0836 13.3622 10.7578C13.6835 10.0421 13.8623 9.24958 13.8623 8.41418C13.8623 5.21887 11.2393 2.62465 7.9987 2.62465Z" fill="#163162"/>
</svg>
