<svg width="21" height="20" viewBox="0 0 21 20" fill="none" xmlns="http://www.w3.org/2000/svg">
<path d="M18 18.3333H3C2.65833 18.3333 2.375 18.0499 2.375 17.7083C2.375 17.3666 2.65833 17.0833 3 17.0833H18C18.3417 17.0833 18.625 17.3666 18.625 17.7083C18.625 18.0499 18.3417 18.3333 18 18.3333Z" fill="#1F458A"/>
<path d="M16.3495 2.90005C14.7328 1.28338 13.1495 1.24172 11.4912 2.90005L10.4828 3.90838C10.3995 3.99172 10.3662 4.12505 10.3995 4.24172C11.0328 6.45005 12.7995 8.21672 15.0078 8.85005C15.0412 8.85838 15.0745 8.86672 15.1078 8.86672C15.1995 8.86672 15.2828 8.83338 15.3495 8.76672L16.3495 7.75838C17.1745 6.94172 17.5745 6.15005 17.5745 5.35005C17.5828 4.52505 17.1828 3.72505 16.3495 2.90005Z" fill="#1F458A"/>
<path d="M13.507 9.60841C13.2653 9.49175 13.032 9.37508 12.807 9.24175C12.6236 9.13341 12.4486 9.01675 12.2736 8.89175C12.132 8.80008 11.9653 8.66675 11.807 8.53341C11.7903 8.52508 11.732 8.47508 11.6653 8.40841C11.3903 8.17508 11.082 7.87508 10.807 7.54175C10.782 7.52508 10.7403 7.46675 10.682 7.39175C10.5986 7.29175 10.457 7.12508 10.332 6.93341C10.232 6.80841 10.1153 6.62508 10.007 6.44175C9.87364 6.21675 9.75697 5.99175 9.6403 5.75841C9.48734 5.43063 9.05713 5.33326 8.80135 5.58903L4.1153 10.2751C4.00697 10.3834 3.90697 10.5917 3.88197 10.7334L3.43197 13.9251C3.34864 14.4917 3.50697 15.0251 3.85697 15.3834C4.15697 15.6751 4.57364 15.8334 5.02364 15.8334C5.12364 15.8334 5.22364 15.8251 5.32364 15.8084L8.52364 15.3584C8.67364 15.3334 8.88197 15.2334 8.98197 15.1251L13.6758 10.4313C13.9264 10.1806 13.8322 9.74936 13.507 9.60841Z" fill="#1F458A"/>
</svg>
