<svg width="16" height="16" viewBox="0 0 16 16" fill="none" xmlns="http://www.w3.org/2000/svg">
<path fill-rule="evenodd" clip-rule="evenodd" d="M4.0026 0.75C4.37079 0.75 4.66927 1.04848 4.66927 1.41667V2.75C4.66927 3.11819 4.37079 3.41667 4.0026 3.41667C3.63441 3.41667 3.33594 3.11819 3.33594 2.75V1.41667C3.33594 1.04848 3.63441 0.75 4.0026 0.75ZM12.0026 0.75C12.3708 0.75 12.6693 1.04848 12.6693 1.41667V2.75C12.6693 3.11819 12.3708 3.41667 12.0026 3.41667C11.6344 3.41667 11.3359 3.11819 11.3359 2.75V1.41667C11.3359 1.04848 11.6344 0.75 12.0026 0.75Z" fill="#7C7C7C"/>
<path d="M9.60645 1.58496C10.4887 1.59048 11.2249 1.61264 11.834 1.70117C12.6729 1.82313 13.3435 2.08032 13.8672 2.64649C14.3856 3.20703 14.6162 3.91529 14.7266 4.80274C14.8347 5.67255 14.835 6.78769 14.835 8.20996V8.62305C14.835 10.0453 14.8347 11.1604 14.7266 12.0303C14.6162 12.918 14.3858 13.6268 13.8672 14.1875C13.3435 14.7536 12.6729 15.0099 11.834 15.1318C11.022 15.2499 9.98392 15.25 8.6748 15.25H7.32715L6.39551 15.248C5.51354 15.2425 4.77787 15.2203 4.16895 15.1318C3.33001 15.0099 2.65945 14.7536 2.13574 14.1875C1.61714 13.6268 1.38677 12.918 1.27637 12.0303C1.16821 11.1604 1.16796 10.0453 1.16797 8.62305V8.20996L1.16992 7.2002C1.17499 6.24578 1.19523 5.45515 1.27637 4.80274C1.38679 3.91523 1.61723 3.20704 2.13574 2.64649C2.65948 2.08029 3.32993 1.82312 4.16895 1.70117C4.98088 1.58318 6.01826 1.58397 7.32715 1.58399H8.6748L9.60645 1.58496ZM6.00098 8.08399C5.63284 8.08399 5.33407 8.38189 5.33398 8.75C5.33399 9.11819 5.63279 9.41699 6.00098 9.41699V11.417C6.00106 11.785 6.29901 12.0838 6.66699 12.084C7.03513 12.084 7.3339 11.7851 7.33398 11.417V9.0166C7.33386 8.50124 6.91578 8.08398 6.40039 8.08399H6.00098ZM8.66699 8.08399C8.29901 8.08416 8.00107 8.382 8.00098 8.75C8.00098 9.11808 8.29895 9.41682 8.66699 9.41699H9.11816L8.46191 11.1846C8.33384 11.5298 8.51027 11.9139 8.85547 12.042C9.20059 12.1699 9.58388 11.9935 9.71191 11.6484L10.6152 9.21484C10.8397 8.60986 10.346 8.08399 9.81445 8.08399H8.66699ZM4.00098 4.75C3.63279 4.75 3.33398 5.0488 3.33398 5.41699C3.33416 5.78503 3.63289 6.08301 4.00098 6.08301H12.001C12.3689 6.08283 12.6668 5.78492 12.667 5.41699C12.667 5.04891 12.369 4.75018 12.001 4.75H4.00098Z" fill="#7C7C7C"/>
</svg>
