<svg width="20" height="21" viewBox="0 0 20 21" fill="none" xmlns="http://www.w3.org/2000/svg">
<path d="M12.7164 18.6846H7.28307C3.19141 18.6846 1.44141 16.9346 1.44141 12.8429V12.7346C1.44141 9.03455 2.89974 7.25122 6.16641 6.94288C6.49974 6.91788 6.81641 7.16788 6.84974 7.50955C6.88307 7.85122 6.63307 8.15955 6.28307 8.19288C3.66641 8.43455 2.69141 9.66788 2.69141 12.7429V12.8512C2.69141 16.2429 3.89141 17.4429 7.28307 17.4429H12.7164C16.1081 17.4429 17.3081 16.2429 17.3081 12.8512V12.7429C17.3081 9.65122 16.3164 8.41788 13.6497 8.19288C13.3081 8.15955 13.0497 7.85955 13.0831 7.51788C13.1164 7.17622 13.4081 6.91788 13.7581 6.95122C17.0747 7.23455 18.5581 9.02622 18.5581 12.7512V12.8596C18.5581 16.9346 16.8081 18.6846 12.7164 18.6846Z" fill="#1F458A"/>
<path d="M10 13.2678C9.65833 13.2678 9.375 12.9844 9.375 12.6428V3.15942C9.375 2.81776 9.65833 2.53442 10 2.53442C10.3417 2.53442 10.625 2.81776 10.625 3.15942V12.6428C10.625 12.9844 10.3417 13.2678 10 13.2678Z" fill="#1F458A"/>
<path d="M12.7922 5.64285C12.6339 5.64285 12.4755 5.58452 12.3505 5.45952L10.0005 3.10952L7.65052 5.45952C7.40885 5.70119 7.00885 5.70119 6.76719 5.45952C6.52552 5.21785 6.52552 4.81785 6.76719 4.57619L9.55885 1.78452C9.80052 1.54285 10.2005 1.54285 10.4422 1.78452L13.2339 4.57619C13.4755 4.81785 13.4755 5.21785 13.2339 5.45952C13.1172 5.58452 12.9505 5.64285 12.7922 5.64285Z" fill="#1F458A"/>
</svg>
