<svg width="21" height="20" viewBox="0 0 21 20" fill="none" xmlns="http://www.w3.org/2000/svg">
<path d="M8.0013 18.3334H13.0013C17.168 18.3334 18.8346 16.6667 18.8346 12.5V7.50002C18.8346 3.33335 17.168 1.66669 13.0013 1.66669H8.0013C3.83464 1.66669 2.16797 3.33335 2.16797 7.50002V12.5C2.16797 16.6667 3.83464 18.3334 8.0013 18.3334Z" stroke="#1F458A" stroke-width="1.5" stroke-linecap="round" stroke-linejoin="round"/>
<path d="M7.9987 8.33333C8.91917 8.33333 9.66536 7.58714 9.66536 6.66667C9.66536 5.74619 8.91917 5 7.9987 5C7.07822 5 6.33203 5.74619 6.33203 6.66667C6.33203 7.58714 7.07822 8.33333 7.9987 8.33333Z" stroke="#1F458A" stroke-width="1.5" stroke-linecap="round" stroke-linejoin="round"/>
<path d="M2.72656 15.7917L6.8349 13.0333C7.49323 12.5917 8.44323 12.6417 9.0349 13.15L9.3099 13.3917C9.9599 13.95 11.0099 13.95 11.6599 13.3917L15.1266 10.4167C15.7766 9.85834 16.8266 9.85834 17.4766 10.4167L18.8349 11.5833" stroke="#1F458A" stroke-width="1.5" stroke-linecap="round" stroke-linejoin="round"/>
</svg>
