<svg width="16" height="16" viewBox="0 0 16 16" fill="none" xmlns="http://www.w3.org/2000/svg">
<path d="M15.9998 8.85968C15.9348 7.74343 15.6403 6.68787 15.1628 5.73946L13.9374 6.4469L13.4663 5.63084L14.6902 4.92418C14.0905 4.01704 13.3138 3.24032 12.4067 2.64059L11.7 3.86459L10.8839 3.39343L11.5914 2.16809C10.643 1.69062 9.58744 1.39612 8.47116 1.33109V2.74696H7.52881V1.33105C6.41256 1.39612 5.357 1.69059 4.40856 2.16805L5.11603 3.3934L4.3 3.86459L3.59334 2.64062C2.6862 3.24035 1.90949 4.01707 1.30975 4.92421L2.53372 5.63087L2.06256 6.44693L0.837188 5.73946C0.359719 6.6879 0.0652188 7.74343 0.0001875 8.85971H1.41603V9.80202H0C0.0465938 10.6098 0.212812 11.3972 0.497094 12.1517H3.21331L5.02256 14.6691H11.0623L12.8715 12.1517H15.5029C15.7872 11.3973 15.9534 10.6098 16 9.80202H14.5839V8.85971H15.9998V8.85968ZM9.57337 11.5383C9.3905 11.9472 9.05931 12.2604 8.64084 12.4202C8.44641 12.4945 8.24388 12.5316 8.04181 12.5316C7.80897 12.5316 7.57669 12.4824 7.35778 12.3845C6.51366 12.007 6.13403 11.0131 6.51153 10.169C6.82228 9.47412 7.55056 9.09446 8.26931 9.19227L9.49984 6.44077L10.3601 6.82549L9.12953 9.57699C9.68153 10.0475 9.88409 10.8435 9.57337 11.5383ZM12.6061 9.33084C12.6061 6.81446 10.5588 4.76721 8.04244 4.76721C5.52606 4.76721 3.47881 6.81446 3.47881 9.33084H2.5365C2.5365 6.29487 5.00647 3.8249 8.04244 3.8249C11.0784 3.8249 13.5484 6.29487 13.5484 9.33084H12.6061Z" fill="#163162"/>
<path d="M8.04688 11.5859C8.45246 11.5859 8.78125 11.2571 8.78125 10.8516C8.78125 10.446 8.45246 10.1172 8.04688 10.1172C7.64129 10.1172 7.3125 10.446 7.3125 10.8516C7.3125 11.2571 7.64129 11.5859 8.04688 11.5859Z" fill="#163162"/>
</svg>
