<svg width="20" height="20" viewBox="0 0 20 20" fill="none" xmlns="http://www.w3.org/2000/svg">
<g clip-path="url(#clip0_1600_9655)">
<path d="M18.5939 8.71967C18.5173 6.53811 17.6339 4.49811 16.0827 2.94686C14.4567 1.32061 12.2958 0.425293 9.99828 0.425293C5.35797 0.425293 1.56641 4.11873 1.40297 8.71967C0.694844 9.03436 0.199219 9.7431 0.199219 10.5669V12.8362C0.199219 13.9506 1.10578 14.8575 2.22047 14.8575C2.94172 14.8575 3.52828 14.2709 3.52828 13.5497V9.85311C3.52828 9.17592 3.00891 8.62373 2.34859 8.55811C2.59234 4.54967 5.92922 1.36279 9.99828 1.36279C12.0458 1.36279 13.9711 2.16092 15.4202 3.60998C16.7508 4.94061 17.5295 6.67498 17.6467 8.55842C16.987 8.62467 16.4686 9.17654 16.4686 9.85311V13.5494C16.4686 14.2322 16.9961 14.7878 17.6642 14.8456V15.7797C17.6642 16.8315 16.8083 17.6872 15.7564 17.6872H14.3436C14.2742 17.489 14.1655 17.3059 14.013 17.154C13.7458 16.8856 13.3895 16.7378 13.0102 16.7378H11.5539C11.3448 16.7378 11.1442 16.7822 10.9605 16.8678C10.4592 17.0981 10.1355 17.6037 10.1355 18.1559C10.1355 18.5353 10.2833 18.8915 10.5511 19.1581C10.8189 19.4265 11.1752 19.5744 11.5539 19.5744H13.0102C13.6139 19.5744 14.1461 19.184 14.3445 18.6247H15.7564C17.3255 18.6247 18.6017 17.3484 18.6017 15.7797V14.6787C19.3055 14.3622 19.7973 13.6559 19.7973 12.8356V10.5662C19.7973 9.74311 19.3017 9.03436 18.5939 8.71967ZM2.59047 9.85311V13.5494C2.59047 13.7534 2.42453 13.9197 2.22016 13.9197C1.62266 13.9197 1.13641 13.4334 1.13641 12.8359V10.5665C1.13641 9.96873 1.62266 9.48279 2.22016 9.48279C2.42453 9.48279 2.59047 9.64904 2.59047 9.85311ZM13.4805 18.2565C13.4339 18.4772 13.2358 18.6375 13.0098 18.6375H11.5536C11.4255 18.6375 11.3052 18.5875 11.2133 18.4956C11.1227 18.4053 11.0727 18.2847 11.0727 18.1565C11.0727 17.9694 11.1823 17.7984 11.3542 17.7194C11.4155 17.6906 11.4827 17.6759 11.5536 17.6759H13.0098C13.138 17.6759 13.2583 17.7256 13.3498 17.8175C13.4405 17.9078 13.4905 18.0284 13.4905 18.1565C13.4908 18.1909 13.487 18.2253 13.4805 18.2565ZM18.8598 12.8359C18.8598 13.4334 18.3736 13.9197 17.7761 13.9197C17.572 13.9197 17.4058 13.7537 17.4058 13.5494V9.85311C17.4058 9.64904 17.5717 9.48279 17.7761 9.48279C18.3736 9.48279 18.8598 9.96904 18.8598 10.5665V12.8359Z" fill="black"/>
<path d="M13.0334 12.9977C14.1288 12.9977 15.0197 12.1065 15.0197 11.0115V6.96428C15.0197 6.4349 14.8128 5.93615 14.4372 5.56053C14.0616 5.1849 13.5631 4.97803 13.0334 4.97803H6.96281C5.8675 4.97803 4.97656 5.86896 4.97656 6.96428V11.0115C4.97656 12.1068 5.8675 12.9977 6.96281 12.9977H7V14.0465C7 14.4465 7.23844 14.8015 7.60719 14.9512C7.72625 14.999 7.85 15.0227 7.9725 15.0227C8.22781 15.0227 8.47656 14.9215 8.65875 14.733L10.4034 12.9977H13.0334ZM9.88 12.1965L7.99188 14.0743C7.98344 14.083 7.97719 14.0896 7.95937 14.0818C7.93781 14.073 7.93781 14.059 7.93781 14.0465V12.529C7.93781 12.2702 7.72812 12.0602 7.46906 12.0602H6.96313C6.38469 12.0602 5.91437 11.5896 5.91437 11.0115V6.96428C5.91437 6.38584 6.38469 5.91553 6.96313 5.91553H13.0338C13.3131 5.91553 13.5759 6.0249 13.7747 6.22334C13.9734 6.42209 14.0825 6.68521 14.0825 6.96428V11.0115C14.0825 11.5899 13.6119 12.0602 13.0338 12.0602H10.2106C10.0866 12.0602 9.96781 12.1093 9.88 12.1965Z" fill="black"/>
<path d="M7.72281 8.37109C7.34156 8.37109 7.03125 8.68172 7.03125 9.06266C7.03125 9.44359 7.34187 9.75422 7.72281 9.75422C8.10437 9.75422 8.415 9.44359 8.415 9.06266C8.415 8.68172 8.10469 8.37109 7.72281 8.37109Z" fill="black"/>
<path d="M9.99625 8.37109C9.615 8.37109 9.30469 8.68172 9.30469 9.06266C9.30469 9.44359 9.61531 9.75422 9.99625 9.75422C10.3781 9.75422 10.6884 9.44359 10.6884 9.06266C10.6884 8.68172 10.3781 8.37109 9.99625 8.37109Z" fill="black"/>
<path d="M12.2736 8.37109C11.8923 8.37109 11.582 8.68172 11.582 9.06266C11.582 9.44359 11.8927 9.75422 12.2736 9.75422C12.6552 9.75422 12.9658 9.44359 12.9658 9.06266C12.9658 8.68172 12.6552 8.37109 12.2736 8.37109Z" fill="black"/>
</g>
<defs>
<clipPath id="clip0_1600_9655">
<rect width="20" height="20" fill="white"/>
</clipPath>
</defs>
</svg>
