<svg width="16" height="14" viewBox="0 0 16 14" fill="none" xmlns="http://www.w3.org/2000/svg">
<path d="M1.33594 7.33333C1.33594 6.59695 1.93289 6 2.66927 6C3.77384 6 4.66927 6.89543 4.66927 8V10.6667C4.66927 11.7712 3.77384 12.6667 2.66927 12.6667C1.93289 12.6667 1.33594 12.0697 1.33594 11.3333V7.33333Z" stroke="#1F458A" stroke-width="1.5" stroke-linecap="round" stroke-linejoin="round"/>
<path d="M10.3205 4.20434L10.1429 4.77772C9.99746 5.24757 9.92472 5.48249 9.98065 5.66803C10.0259 5.81813 10.1253 5.94751 10.2606 6.03264C10.428 6.13786 10.6811 6.13786 11.1874 6.13786H11.4567C13.1701 6.13786 14.0268 6.13786 14.4314 6.64503C14.4777 6.70299 14.5188 6.76463 14.5544 6.82927C14.8656 7.39493 14.5117 8.15692 13.804 9.6809C13.1544 11.0794 12.8297 11.7787 12.2267 12.1903C12.1683 12.2301 12.1083 12.2677 12.0468 12.3029C11.412 12.6668 10.6254 12.6668 9.05224 12.6668H8.71103C6.80511 12.6668 5.85215 12.6668 5.26006 12.0931C4.66797 11.5195 4.66797 10.5961 4.66797 8.74945V8.10039C4.66797 7.12992 4.66797 6.64468 4.8402 6.20056C5.01242 5.75643 5.3422 5.39126 6.00177 4.66091L8.72938 1.64054C8.79779 1.56479 8.832 1.52691 8.86215 1.50066C9.14366 1.25568 9.57812 1.28326 9.82424 1.56173C9.85061 1.59156 9.87942 1.63344 9.93704 1.71719C10.0272 1.8482 10.0723 1.9137 10.1115 1.9786C10.4632 2.55958 10.5696 3.24974 10.4085 3.90493C10.3905 3.97811 10.3671 4.05356 10.3205 4.20434Z" stroke="#1F458A" stroke-width="1.5" stroke-linecap="round" stroke-linejoin="round"/>
</svg>
