<svg width="16" height="16" viewBox="0 0 16 16" fill="none" xmlns="http://www.w3.org/2000/svg">
<path d="M8.00272 0.833008C10.0365 0.833008 11.9681 2.06946 12.7752 4.00977C13.5255 5.81413 13.1188 7.35611 12.2762 8.66895C11.5804 9.7528 10.5618 10.7178 9.65604 11.5762L9.18827 12.0225C8.87005 12.3289 8.44458 12.5 8.00272 12.5C7.56104 12.5 7.13633 12.3287 6.81815 12.0225L6.8162 12.0215C6.65663 11.8669 6.49041 11.7079 6.3201 11.5459C5.42395 10.6936 4.4197 9.73817 3.73124 8.66797C2.8876 7.35644 2.47897 5.81635 3.23026 4.00977C4.03736 2.06946 5.96895 0.833018 8.00272 0.833008ZM7.99979 4C6.89524 4.00002 5.99979 4.89544 5.99979 6C5.99979 7.10456 6.89524 7.99998 7.99979 8C9.10436 8 9.99979 7.10457 9.99979 6C9.99979 4.89543 9.10436 4 7.99979 4Z" fill="#7C7C7C"/>
<path d="M4.0026 12.5C4.35007 12.5 4.63545 12.7658 4.66647 13.1052C4.67801 13.1179 4.69766 13.1369 4.72959 13.1621C4.84851 13.2558 5.06189 13.3693 5.385 13.477C6.02424 13.6901 6.94975 13.8333 8.0026 13.8333C9.05546 13.8333 9.98097 13.6901 10.6202 13.477C10.9433 13.3693 11.1567 13.2558 11.2756 13.1621C11.3075 13.1369 11.3272 13.1179 11.3387 13.1052C11.3698 12.7658 11.6551 12.5 12.0026 12.5C12.3708 12.5 12.6693 12.7985 12.6693 13.1667C12.6693 13.6426 12.3793 13.9899 12.1009 14.2093C11.815 14.4346 11.4426 14.6083 11.0418 14.7419C10.2334 15.0114 9.15889 15.1667 8.0026 15.1667C6.84632 15.1667 5.77183 15.0114 4.96336 14.7419C4.56261 14.6083 4.1902 14.4346 3.90429 14.2093C3.6259 13.9899 3.33594 13.6426 3.33594 13.1667C3.33594 12.7985 3.63441 12.5 4.0026 12.5Z" fill="#7C7C7C"/>
</svg>
