<svg width="16" height="16" viewBox="0 0 16 16" fill="none" xmlns="http://www.w3.org/2000/svg">
<path d="M10.3307 7.33333C10.3307 8.622 9.28606 9.66667 7.9974 9.66667C6.70873 9.66667 5.66406 8.622 5.66406 7.33333C5.66406 6.04467 6.70873 5 7.9974 5C9.28606 5 10.3307 6.04467 10.3307 7.33333Z" stroke="#8B8D90" stroke-width="1.2"/>
<path d="M8 1.33301C11.247 1.33301 14 4.02166 14 7.28352C14 10.5973 11.2022 12.9228 8.618 14.5041C8.42967 14.6104 8.2167 14.6663 8 14.6663C7.7833 14.6663 7.57033 14.6104 7.382 14.5041C4.8026 12.9074 2 10.6088 2 7.28352C2 4.02166 4.75296 1.33301 8 1.33301Z" stroke="#8B8D90" stroke-width="1.2"/>
</svg>
