<svg width="13" height="14" viewBox="0 0 13 14" fill="none" xmlns="http://www.w3.org/2000/svg">
<path d="M10.8359 0H1.83594C1.43811 0 1.05658 0.158035 0.775277 0.43934C0.493973 0.720644 0.335938 1.10218 0.335938 1.5V12.5C0.335938 12.8978 0.493973 13.2794 0.775277 13.5607C1.05658 13.842 1.43811 14 1.83594 14H10.8359C11.2338 14 11.6153 13.842 11.8966 13.5607C12.1779 13.2794 12.3359 12.8978 12.3359 12.5V1.5C12.3359 1.10218 12.1779 0.720644 11.8966 0.43934C11.6153 0.158035 11.2338 0 10.8359 0ZM8.83594 1.5C8.93483 1.5 9.0315 1.52932 9.11372 1.58427C9.19595 1.63921 9.26003 1.7173 9.29788 1.80866C9.33572 1.90002 9.34562 2.00055 9.32633 2.09755C9.30704 2.19454 9.25942 2.28363 9.18949 2.35355C9.11957 2.42348 9.03047 2.4711 8.93348 2.49039C8.83649 2.50969 8.73596 2.49978 8.6446 2.46194C8.55323 2.4241 8.47514 2.36001 8.4202 2.27779C8.36526 2.19556 8.33594 2.09889 8.33594 2C8.33594 1.86739 8.38862 1.74021 8.48238 1.64645C8.57615 1.55268 8.70333 1.5 8.83594 1.5ZM1.83594 2C1.83594 1.86739 1.88862 1.74021 1.98238 1.64645C2.07615 1.55268 2.20333 1.5 2.33594 1.5H3.83594C3.96855 1.5 4.09572 1.55268 4.18949 1.64645C4.28326 1.74021 4.33594 1.86739 4.33594 2C4.33594 2.13261 4.28326 2.25979 4.18949 2.35355C4.09572 2.44732 3.96855 2.5 3.83594 2.5H2.33594C2.20333 2.5 2.07615 2.44732 1.98238 2.35355C1.88862 2.25979 1.83594 2.13261 1.83594 2ZM6.33594 12.5C5.54481 12.5 4.77145 12.2654 4.11366 11.8259C3.45586 11.3864 2.94317 10.7616 2.64042 10.0307C2.33767 9.29983 2.25846 8.49556 2.4128 7.71964C2.56714 6.94371 2.9481 6.23098 3.50751 5.67157C4.06692 5.11216 4.77965 4.7312 5.55558 4.57686C6.3315 4.42252 7.13577 4.50173 7.86667 4.80448C8.59758 5.10723 9.22229 5.61992 9.66182 6.27772C10.1013 6.93552 10.3359 7.70887 10.3359 8.5C10.3347 9.5605 9.91294 10.5772 9.16305 11.3271C8.41316 12.077 7.39644 12.4988 6.33594 12.5ZM10.3359 2.5C10.237 2.5 10.1404 2.47068 10.0582 2.41573C9.97593 2.36079 9.91184 2.2827 9.874 2.19134C9.83615 2.09998 9.82625 1.99945 9.84554 1.90245C9.86484 1.80546 9.91246 1.71637 9.98238 1.64645C10.0523 1.57652 10.1414 1.5289 10.2384 1.50961C10.3354 1.49031 10.4359 1.50022 10.5273 1.53806C10.6186 1.5759 10.6967 1.63999 10.7517 1.72221C10.8066 1.80444 10.8359 1.90111 10.8359 2C10.8359 2.13261 10.7833 2.25979 10.6895 2.35355C10.5957 2.44732 10.4685 2.5 10.3359 2.5Z" fill="#163162"/>
<path d="M6.35094 8.50057C5.88306 8.26496 5.36622 8.14298 4.84236 8.14455C4.31851 8.14611 3.8024 8.27117 3.33594 8.50957C3.3364 9.30522 3.65292 10.0681 4.21585 10.6304C4.49459 10.9088 4.82544 11.1296 5.1895 11.2801C5.55357 11.4307 5.94372 11.5081 6.33769 11.5078C6.73165 11.5076 7.12172 11.4298 7.4856 11.2788C7.84949 11.1278 8.18008 10.9066 8.45849 10.6279C8.73691 10.3492 8.95769 10.0183 9.10825 9.65426C9.2588 9.29019 9.33617 8.90004 9.33594 8.50607C8.87229 8.73755 8.36101 8.8576 7.84279 8.85664C7.32457 8.85569 6.81373 8.73376 6.35094 8.50057Z" fill="#163162"/>
</svg>
