<svg width="16" height="16" viewBox="0 0 16 16" fill="none" xmlns="http://www.w3.org/2000/svg">
<path d="M13.0763 2.14229H11.5118V1.76002C11.5118 1.49496 11.3207 1.27372 11.0691 1.22708C11.7894 -0.405545 8.80153 -0.412507 9.52494 1.22708C9.27334 1.27372 9.08217 1.49496 9.08217 1.76002V2.16214H6.91936V1.76002C6.91936 1.49496 6.7282 1.27372 6.4766 1.22708C7.19694 -0.405576 4.2091 -0.412476 4.93248 1.22708C4.68088 1.27372 4.48971 1.49496 4.48971 1.76002V2.14226H2.92119C2.62217 2.14226 2.37891 2.38552 2.37891 2.68454V4.64618C2.37891 4.94056 2.84937 4.95396 2.84937 4.64618V2.68454C2.84937 2.64493 2.88158 2.61272 2.92119 2.61272H3.53684C3.53169 2.64264 3.52846 14.2203 3.52846 14.2203C3.52846 14.5194 3.77169 14.7627 4.07062 14.7627H9.78369C9.84492 14.7627 9.90633 14.7374 9.94974 14.6941L12.4039 12.2487C12.4482 12.2046 12.4731 12.1446 12.4731 12.082V10.8562C12.4731 10.5521 12.0026 10.5521 12.0026 10.8562V11.8269H10.0906C9.79169 11.8269 9.54846 12.0702 9.54846 12.3693V14.2922H4.07059C4.03104 14.2922 3.99889 14.26 3.99889 14.2203V2.70455C3.99889 2.66488 4.03104 2.6326 4.07059 2.6326H4.48968C4.47293 3.07412 4.79655 3.47642 5.26036 3.47642H6.14862C6.61247 3.47642 6.93608 3.07415 6.91933 2.6326H9.08211C9.06536 3.07412 9.38898 3.47642 9.85279 3.47642H10.7411C11.2049 3.47642 11.5285 3.07415 11.5118 2.6326H11.9309C11.9704 2.6326 12.0025 2.66488 12.0025 2.70455V9.66444C12.0025 9.96858 12.473 9.96858 12.473 9.66444C12.473 9.66444 12.4703 2.63928 12.4663 2.61272H13.0817C13.1206 2.61344 13.1521 2.6454 13.1521 2.68454V15.4577C13.1521 15.4973 13.1199 15.5295 13.0803 15.5295H2.92119C2.88158 15.5295 2.84937 15.4973 2.84937 15.4577V5.77529C2.84937 5.48091 2.37891 5.46751 2.37891 5.77529V15.4577C2.37891 15.7567 2.62217 16 2.92119 16H13.0803C13.3794 16 13.6226 15.7567 13.6226 15.4577V2.68454C13.6226 2.38417 13.3768 2.13937 13.0763 2.14229ZM10.0189 12.3693C10.0189 12.3296 10.051 12.2974 10.0906 12.2974H11.6718L10.0189 13.9578V12.3693ZM6.4489 2.70518C6.4489 2.87103 6.31419 3.00593 6.14865 3.00593H5.26039C5.09485 3.00593 4.96017 2.87103 4.96017 2.70521V1.76002C4.96017 1.72057 4.99217 1.68848 5.03143 1.68848H5.30408C5.50368 1.6516 5.57293 1.53637 5.51177 1.34282C5.32271 0.98834 5.07387 0.422061 5.70473 0.422092C6.33621 0.422123 6.08527 0.988183 5.89724 1.34285C5.83617 1.5364 5.90539 1.6516 6.10496 1.68848H6.37761C6.41691 1.68848 6.44887 1.72057 6.44887 1.76002L6.4489 2.70518ZM11.0414 2.70518C11.0414 2.87103 10.9067 3.00593 10.7411 3.00593H9.85285C9.68731 3.00593 9.55263 2.87103 9.55263 2.70521V1.76002C9.55263 1.72057 9.58463 1.68848 9.62389 1.68848H9.89654C10.0961 1.6516 10.1654 1.53637 10.1042 1.34282C10.1029 1.34028 9.96902 1.08792 9.90736 0.920248C9.66354 0.257556 10.9336 0.24915 10.6866 0.920248C10.6251 1.08742 10.4911 1.34031 10.4897 1.34285C10.4287 1.5364 10.4979 1.6516 10.6975 1.68848H10.9701C11.0094 1.68848 11.0414 1.72057 11.0414 1.76002V2.70518Z" fill="#B1B2B4"/>
<path d="M10.7976 8.21875H5.20631C4.91192 8.21875 4.89853 8.68921 5.20631 8.68921H10.7976C11.0919 8.68921 11.1053 8.21875 10.7976 8.21875Z" fill="#B1B2B4"/>
<path d="M11.0328 10.2601C11.0328 10.1302 10.9275 10.0249 10.7976 10.0249H5.20631C4.91192 10.0249 4.89853 10.4954 5.20631 10.4954H10.7976C10.9275 10.4954 11.0328 10.39 11.0328 10.2601Z" fill="#B1B2B4"/>
<path d="M5.20631 11.8328C4.91192 11.8328 4.89853 12.3032 5.20631 12.3032H8.22752C8.5219 12.3032 8.53529 11.8328 8.22752 11.8328H5.20631Z" fill="#B1B2B4"/>
<path d="M10.7951 4.59692H9.18836C9.05841 4.59692 8.95312 4.70224 8.95312 4.83215C8.95312 4.96207 9.05841 5.06739 9.18836 5.06739H10.7951C10.9251 5.06739 11.0303 4.96207 11.0303 4.83215C11.0303 4.70224 10.925 4.59692 10.7951 4.59692Z" fill="#B1B2B4"/>
<path d="M10.7951 6.40308H9.18836C9.05841 6.40308 8.95312 6.5084 8.95312 6.63831C8.95312 6.76822 9.05841 6.87354 9.18836 6.87354H10.7951C10.9251 6.87354 11.0303 6.76822 11.0303 6.63831C11.0303 6.5084 10.925 6.40308 10.7951 6.40308Z" fill="#B1B2B4"/>
<path d="M7.05039 4.0625H6.10978C5.97983 4.0625 5.87455 4.16782 5.87455 4.29773V4.96917H5.20398C5.07404 4.96917 4.96875 5.07449 4.96875 5.20441V6.14596C4.96875 6.27587 5.07404 6.38119 5.20398 6.38119H5.87455V7.0526C5.87455 7.18251 5.97983 7.28783 6.10978 7.28783H7.05039C7.18033 7.28783 7.28562 7.18251 7.28562 7.0526V6.38119H7.95618C8.08612 6.38119 8.19141 6.27587 8.19141 6.14596V5.20441C8.19141 5.07449 8.08612 4.96917 7.95618 4.96917H7.28562V4.29773C7.28562 4.16782 7.18033 4.0625 7.05039 4.0625ZM7.72095 5.43964V5.91073H7.05039C6.92045 5.91073 6.81516 6.01605 6.81516 6.14596V6.81737H6.34501V6.14596C6.34501 6.01605 6.23972 5.91073 6.10978 5.91073H5.43921V5.43964H6.10978C6.23972 5.43964 6.34501 5.33432 6.34501 5.20441V4.53296H6.81516V5.20441C6.81516 5.33432 6.92045 5.43964 7.05039 5.43964H7.72095Z" fill="#B1B2B4"/>
</svg>
