<svg width="2" height="10" viewBox="0 0 2 10" fill="none" xmlns="http://www.w3.org/2000/svg">
<path fill-rule="evenodd" clip-rule="evenodd" d="M0 1C0 0.734784 0.105357 0.480429 0.292893 0.292893C0.480429 0.105357 0.734784 0 1 0C1.26522 0 1.51957 0.105357 1.70711 0.292893C1.89464 0.480429 2 0.734784 2 1C2 1.26522 1.89464 1.51957 1.70711 1.70711C1.51957 1.89464 1.26522 2 1 2C0.734784 2 0.480429 1.89464 0.292893 1.70711C0.105357 1.51957 0 1.26522 0 1ZM0 5C0 4.73478 0.105357 4.48043 0.292893 4.29289C0.480429 4.10536 0.734784 4 1 4C1.26522 4 1.51957 4.10536 1.70711 4.29289C1.89464 4.48043 2 4.73478 2 5C2 5.26522 1.89464 5.51957 1.70711 5.70711C1.51957 5.89464 1.26522 6 1 6C0.734784 6 0.480429 5.89464 0.292893 5.70711C0.105357 5.51957 0 5.26522 0 5ZM0 9C0 8.73478 0.105357 8.48043 0.292893 8.29289C0.480429 8.10536 0.734784 8 1 8C1.26522 8 1.51957 8.10536 1.70711 8.29289C1.89464 8.48043 2 8.73478 2 9C2 9.26522 1.89464 9.51957 1.70711 9.70711C1.51957 9.89464 1.26522 10 1 10C0.734784 10 0.480429 9.89464 0.292893 9.70711C0.105357 9.51957 0 9.26522 0 9Z" fill="black"/>
</svg>
