<svg width="20" height="20" viewBox="0 0 20 20" fill="none" xmlns="http://www.w3.org/2000/svg">
<path d="M12.8936 6.36048C10.9486 3.49894 8.35078 1.97806 6.99034 2.90993C6.84053 3.01542 6.71036 3.14634 6.60572 3.29674C6.60572 3.30773 3.45627 9.68135 3.45627 9.68135L1.69803 10.8726C1.42812 11.0558 1.19694 11.2904 1.01772 11.563C0.8385 11.8356 0.714739 12.1408 0.65351 12.4612C0.592281 12.7817 0.594783 13.111 0.660873 13.4305C0.726963 13.75 0.855347 14.0533 1.03869 14.3231L1.11781 14.4396C1.48841 14.9794 2.05689 15.3514 2.69996 15.4749C3.34304 15.5983 4.00884 15.4632 4.55298 15.0989L7.37715 19.2594C7.79254 19.7715 8.59034 20.2814 9.57495 19.6814C9.74938 19.5683 9.89818 19.4199 10.0117 19.2457C10.1253 19.0716 10.2011 18.8756 10.2343 18.6704C10.2741 18.4662 10.273 18.2562 10.2311 18.0525C10.1892 17.8488 10.1074 17.6554 9.99034 17.4836L7.50243 13.8132C7.50243 13.8132 13.3837 13.3451 13.4057 13.3363C13.5893 13.2979 13.7635 13.2231 13.9178 13.1165C14.6167 12.6418 14.8673 11.6462 14.6255 10.3121C14.4079 9.08355 13.7903 7.69234 12.8936 6.36048ZM1.75737 14.0066L1.67825 13.8901C1.55175 13.7039 1.46323 13.4946 1.41774 13.2741C1.37225 13.0536 1.37069 12.8263 1.41315 12.6052C1.45561 12.3841 1.54126 12.1736 1.66519 11.9856C1.78913 11.7977 1.94891 11.636 2.13539 11.5099L3.65407 10.477L5.65847 13.4286L4.13979 14.4616C3.95352 14.5882 3.74411 14.6769 3.52354 14.7226C3.30297 14.7683 3.07555 14.7701 2.8543 14.7278C2.63304 14.6856 2.42228 14.6001 2.23406 14.4764C2.04585 14.3526 1.88386 14.193 1.75737 14.0066ZM9.35737 17.9165C9.47749 18.0953 9.52181 18.3143 9.48061 18.5257C9.43941 18.7371 9.31605 18.9235 9.13759 19.044C8.95851 19.1642 8.73909 19.2086 8.52736 19.1674C8.31564 19.1262 8.12886 19.0028 8.00792 18.8242L5.19254 14.677L6.3244 13.9077L6.6233 13.8836L9.35737 17.9165ZM6.38594 13.1297L4.20133 9.91212L6.28484 5.66377C6.48704 6.85718 7.07825 8.27476 8.0233 9.66597C8.96836 11.0572 10.0673 12.1297 11.1002 12.7583L6.38594 13.1297ZM12.8695 12.6176C11.8189 12.5495 10.109 11.3649 8.66067 9.23081C7.21232 7.09674 6.74199 5.07696 7.06506 4.07256C7.12341 3.88403 7.23984 3.71876 7.39772 3.60035C7.5556 3.48194 7.74686 3.41645 7.94418 3.41322C8.98594 3.41322 10.7596 4.60443 12.2497 6.80004C13.0892 8.0352 13.7002 9.32751 13.8673 10.4572C14.1947 12.6176 12.8695 12.6176 12.8695 12.6176Z" fill="#03070D"/>
<path d="M10.1453 6.44151C9.87612 6.38864 9.59907 6.38998 9.33038 6.44546C9.06169 6.50093 8.80676 6.60942 8.5805 6.76459C8.53879 6.79345 8.50318 6.83024 8.47569 6.87287C8.44821 6.91549 8.42939 6.96311 8.4203 7.01301C8.41122 7.06291 8.41206 7.11411 8.42276 7.16369C8.43347 7.21326 8.45383 7.26024 8.48269 7.30195C8.51156 7.34365 8.54835 7.37927 8.59098 7.40675C8.6336 7.43424 8.68122 7.45306 8.73112 7.46214C8.78102 7.47122 8.83222 7.47039 8.88179 7.45968C8.93137 7.44898 8.97835 7.42861 9.02006 7.39975C9.16336 7.30249 9.32441 7.2344 9.49402 7.19938C9.66364 7.16435 9.83849 7.16308 10.0086 7.19563C10.1787 7.22819 10.3407 7.29392 10.4854 7.38909C10.6301 7.48426 10.7547 7.607 10.8519 7.7503C10.9492 7.8936 11.0173 8.05465 11.0523 8.22427C11.0873 8.39388 11.0886 8.56873 11.056 8.73884C11.0235 8.90894 10.9578 9.07097 10.8626 9.21567C10.7674 9.36037 10.6447 9.4849 10.5014 9.58217C10.4338 9.62883 10.3829 9.69589 10.3562 9.77354C10.3295 9.85119 10.3284 9.93535 10.3529 10.0137C10.3775 10.0921 10.4265 10.1605 10.4927 10.209C10.559 10.2575 10.639 10.2835 10.7212 10.2833C10.7995 10.2847 10.8763 10.2617 10.9409 10.2173C11.2828 9.98577 11.5482 9.65795 11.7036 9.2754C11.859 8.89286 11.8973 8.47281 11.8137 8.06846C11.7302 7.66411 11.5285 7.29365 11.2342 7.00402C10.94 6.7144 10.5663 6.51862 10.1607 6.44151H10.1453Z" fill="#03070D"/>
<path d="M13.3683 3.68565H13.4057C13.5008 3.68561 13.5926 3.65032 13.6632 3.58659C13.7338 3.52286 13.7783 3.43522 13.7881 3.3406L14.0848 0.457079C14.0916 0.406091 14.088 0.354266 14.0744 0.304672C14.0608 0.255077 14.0373 0.208719 14.0055 0.168342C13.9736 0.127965 13.934 0.0943874 13.8889 0.069597C13.8438 0.0448067 13.7943 0.0293067 13.7431 0.0240143C13.6919 0.0187219 13.6402 0.0237444 13.591 0.0387848C13.5419 0.0538251 13.4962 0.0785778 13.4567 0.111578C13.4173 0.144579 13.3849 0.185157 13.3614 0.230911C13.3379 0.276666 13.3238 0.326668 13.32 0.377958L13.0255 3.26367C13.015 3.36509 13.0453 3.4665 13.1095 3.54563C13.1738 3.62476 13.2669 3.67512 13.3683 3.68565Z" fill="#03070D"/>
<path d="M18.339 3.09242C18.2825 3.00729 18.1947 2.94796 18.0946 2.92737C17.9946 2.90678 17.8904 2.92661 17.8049 2.98253L15.1258 4.74077C15.0562 4.7867 15.0035 4.854 14.9755 4.93252C14.9475 5.01104 14.9457 5.09653 14.9705 5.17612C14.9953 5.25572 15.0453 5.3251 15.113 5.37382C15.1806 5.42254 15.2622 5.44797 15.3456 5.44626C15.4233 5.44805 15.4999 5.42663 15.5654 5.38473L18.2445 3.62648C18.3276 3.56801 18.3842 3.47901 18.4019 3.37894C18.4196 3.27888 18.397 3.17587 18.339 3.09242Z" fill="#03070D"/>
<path d="M19.1597 7.78673L16.0432 7.22629C15.9426 7.20822 15.839 7.23083 15.7551 7.28916C15.6713 7.34748 15.614 7.43673 15.5959 7.53728C15.5778 7.63783 15.6005 7.74144 15.6588 7.82531C15.7171 7.90919 15.8064 7.96646 15.9069 7.98453L19.0212 8.54497H19.0893C19.1873 8.54784 19.2827 8.51317 19.356 8.44806C19.4293 8.38294 19.475 8.2923 19.4837 8.19465C19.4924 8.09699 19.4634 7.99971 19.4028 7.92266C19.3422 7.84562 19.2544 7.79464 19.1575 7.78014L19.1597 7.78673Z" fill="#03070D"/>
</svg>
