<svg width="32" height="32" viewBox="0 0 32 32" fill="none" xmlns="http://www.w3.org/2000/svg">
<path d="M14.7344 2.66687C15.017 2.66687 15.1583 2.66694 15.2461 2.75476C15.3339 2.84259 15.334 2.9839 15.334 3.26648V5.66687C15.3342 6.21888 15.782 6.66669 16.334 6.66687C16.8862 6.66687 17.3338 6.21899 17.334 5.66687V3.26648C17.334 2.9839 17.334 2.84259 17.4219 2.75476C17.5097 2.66693 17.651 2.66687 17.9336 2.66687H18.3926C18.961 2.66681 19.4815 2.66682 19.9053 2.72253C20.3704 2.78369 20.864 2.92704 21.2744 3.32507C21.6895 3.72779 21.8459 4.2277 21.9199 4.69421C21.9882 5.12413 22.0058 5.7155 22.0234 6.30359C22.0863 8.38926 22.3325 9.2406 22.8799 9.78796C23.4272 10.3352 24.2781 10.5805 26.3633 10.6434C26.9515 10.6611 27.5436 10.6797 27.9736 10.7479C28.4399 10.822 28.9392 10.9778 29.3418 11.3925C29.7401 11.8029 29.8841 12.2973 29.9453 12.7626C30.001 13.1861 30.001 13.7063 30.001 14.2743V14.7333C30.001 15.0159 30.0009 15.1572 29.9131 15.245C29.8253 15.3328 29.684 15.3329 29.4014 15.3329H27.001C26.4488 15.3329 26.0011 15.7807 26.001 16.3329C26.001 16.8852 26.4487 17.3329 27.001 17.3329H29.4014C29.6839 17.3329 29.8253 17.333 29.9131 17.4208C30.0009 17.5086 30.001 17.6499 30.001 17.9325V18.3915L29.9941 19.202C29.9872 19.4562 29.9732 19.6923 29.9453 19.9042C29.8841 20.3694 29.7401 20.8629 29.3418 21.2733C28.9392 21.6882 28.44 21.8448 27.9736 21.9188C27.5436 21.9871 26.9515 22.0047 26.3633 22.0223C24.2778 22.0852 23.4272 22.3314 22.8799 22.8788C22.3326 23.4261 22.0863 24.2767 22.0234 26.3622C22.0058 26.9504 21.9882 27.5425 21.9199 27.9725C21.8459 28.4389 21.6893 28.9381 21.2744 29.3407C20.864 29.739 20.3705 29.883 19.9053 29.9442C19.4816 29.9999 18.9609 29.9999 18.3926 29.9999H17.9336C17.651 29.9999 17.5097 29.9998 17.4219 29.912C17.3341 29.8242 17.334 29.6828 17.334 29.4003V26.9999C17.334 26.4476 16.8863 25.9999 16.334 25.9999C15.7819 26.0001 15.334 26.4477 15.334 26.9999V29.4003C15.334 29.6829 15.3339 29.8242 15.2461 29.912C15.1583 29.9998 15.017 29.9999 14.7344 29.9999H14.2754C13.7074 29.9999 13.1872 29.9999 12.7637 29.9442C12.2984 29.883 11.804 29.739 11.3936 29.3407C10.9789 28.9382 10.8231 28.4388 10.749 27.9725C10.6808 27.5425 10.6622 26.9504 10.6445 26.3622C10.5816 24.277 10.3363 23.4261 9.78906 22.8788C9.2417 22.3314 8.39036 22.0852 6.30469 22.0223C5.7166 22.0047 5.12522 21.9871 4.69531 21.9188C4.22881 21.8448 3.72888 21.6884 3.32617 21.2733C2.92815 20.8629 2.7848 20.3693 2.72363 19.9042C2.66792 19.4804 2.6679 18.9599 2.66797 18.3915V17.9325C2.66797 17.6499 2.66803 17.5086 2.75586 17.4208C2.84369 17.3329 2.985 17.3329 3.26758 17.3329H5.66797C6.2201 17.3327 6.66797 16.8851 6.66797 16.3329C6.66781 15.7808 6.22 15.3331 5.66797 15.3329H3.26758C2.985 15.3329 2.84369 15.3328 2.75586 15.245C2.66804 15.1572 2.66797 15.0159 2.66797 14.7333V14.2753C2.6679 13.707 2.66796 13.1863 2.72363 12.7626C2.78481 12.2973 2.92791 11.8029 3.32617 11.3925C3.72886 10.9775 4.22883 10.822 4.69531 10.7479C5.12523 10.6797 5.71659 10.6611 6.30469 10.6434C8.39034 10.5805 9.2417 10.3353 9.78906 9.78796C10.3364 9.2406 10.5816 8.38926 10.6445 6.30359C10.6622 5.71548 10.6808 5.12414 10.749 4.69421C10.8231 4.22774 10.9786 3.72777 11.3936 3.32507C11.804 2.92681 12.2984 2.78371 12.7637 2.72253C13.1874 2.66686 13.7081 2.66681 14.2764 2.66687H14.7344ZM16.334 11.3329C13.5728 11.3331 11.3341 13.5717 11.334 16.3329C11.334 19.0942 13.5727 21.3327 16.334 21.3329C19.0954 21.3329 21.334 19.0943 21.334 16.3329C21.3338 13.5716 19.0953 11.3329 16.334 11.3329ZM16.334 13.3329C17.9907 13.3329 19.3338 14.6762 19.334 16.3329C19.334 17.9897 17.9908 19.3329 16.334 19.3329C14.6773 19.3327 13.334 17.9896 13.334 16.3329C13.3341 14.6763 14.6774 13.3331 16.334 13.3329Z" fill="#1F458A"/>
</svg>
