<svg width="20" height="20" viewBox="0 0 20 20" fill="none" xmlns="http://www.w3.org/2000/svg">
<path d="M10.0938 10.416C11.6018 10.416 13.1397 10.7952 14.3281 11.5889C15.3964 12.2999 16.0088 13.2965 16.0088 14.3691C16.0087 15.4416 15.3969 16.4405 14.3291 17.1553L14.1016 17.2998C12.9446 17.9989 11.5024 18.333 10.0879 18.333C8.57961 18.333 7.04053 17.9524 5.84863 17.1553C4.78022 16.4443 4.16801 15.4477 4.16797 14.375C4.16797 13.3025 4.77981 12.3037 5.84766 11.5889L5.84961 11.5879L6.07812 11.4434C7.23773 10.749 8.68009 10.4161 10.0938 10.416ZM10.0938 11.5898C8.76361 11.5899 7.46205 11.9264 6.49902 12.5645C5.67496 13.1165 5.34082 13.7838 5.34082 14.375C5.34086 14.966 5.67518 15.6306 6.49902 16.1787L6.5 16.1797C7.45862 16.8211 8.7577 17.1601 10.0879 17.1602C11.4181 17.1602 12.7181 16.8211 13.6768 16.1797C14.5012 15.6276 14.8359 14.9604 14.8359 14.3691C14.8359 13.7781 14.5016 13.1126 13.6777 12.5645H13.6768C12.7223 11.927 11.4247 11.5898 10.0938 11.5898ZM9.95898 1.66699C12.199 1.66699 14.0184 3.48556 14.0186 5.72559V5.72852C14.0093 7.91844 12.2829 9.7029 10.1045 9.77637C10.0786 9.77724 10.0522 9.77698 10.0264 9.77441C9.98865 9.77064 9.93146 9.76964 9.87891 9.77441C9.85487 9.77658 9.83076 9.77717 9.80664 9.77637C7.62831 9.70315 5.90039 7.91812 5.90039 5.72559C5.9005 3.4865 7.71036 1.66711 9.95898 1.66699ZM9.95898 2.83984C8.35999 2.83996 7.07335 4.13269 7.07324 5.72559C7.07324 7.27652 8.2848 8.53558 9.81445 8.60352C9.90721 8.59706 10.0052 8.59584 10.0977 8.60254C11.6258 8.53386 12.8376 7.27676 12.8447 5.72461C12.8441 4.13296 11.5508 2.83984 9.95898 2.83984Z" fill="#03070D"/>
</svg>
