<svg width="20" height="20" viewBox="0 0 20 20" fill="none" xmlns="http://www.w3.org/2000/svg">
<path d="M9.91667 14.9998C9.66667 14.9998 9.5 14.9165 9.33333 14.7498L5.25 10.5832C4.91667 10.2498 4.91667 9.74984 5.25 9.4165C5.58333 9.08317 6.08333 9.08317 6.41667 9.4165L9.91667 12.9165L18.1667 4.6665C18.5 4.33317 19 4.33317 19.3333 4.6665C19.6667 4.99984 19.6667 5.49984 19.3333 5.83317L10.5833 14.7498C10.4167 14.8332 10.1667 14.9998 9.91667 14.9998Z" fill="#1F458A"/>
<path d="M5.83464 15C5.58464 15 5.41797 14.9167 5.2513 14.75L1.16797 10.6667C0.834635 10.3333 0.834635 9.83333 1.16797 9.5C1.5013 9.16667 2.0013 9.16667 2.33464 9.5L6.41797 13.5833C6.7513 13.9167 6.7513 14.4167 6.41797 14.75C6.2513 14.9167 6.08464 15 5.83464 15ZM10.2513 10.5833C10.0013 10.5833 9.83463 10.5 9.66797 10.3333C9.33463 10 9.33463 9.5 9.66797 9.16667L14.0846 4.75C14.418 4.41667 14.918 4.41667 15.2513 4.75C15.5846 5.08333 15.5846 5.58333 15.2513 5.91667L10.8346 10.3333C10.668 10.5 10.5013 10.5833 10.2513 10.5833Z" fill="#1F458A"/>
</svg>
