<svg width="20" height="20" viewBox="0 0 20 20" fill="none" xmlns="http://www.w3.org/2000/svg">
<path d="M9.58464 17.4998C13.9569 17.4998 17.5013 13.9554 17.5013 9.58317C17.5013 5.21092 13.9569 1.6665 9.58464 1.6665C5.21238 1.6665 1.66797 5.21092 1.66797 9.58317C1.66797 13.9554 5.21238 17.4998 9.58464 17.4998Z" stroke="#979797" stroke-width="1.2" stroke-linecap="round" stroke-linejoin="round"/>
<path d="M17.9078 18.7578C18.1421 18.9921 18.522 18.9921 18.7563 18.7578C18.9906 18.5234 18.9906 18.1435 18.7563 17.9092L17.9078 18.7578ZM16.2563 15.4092L15.832 14.985L14.9835 15.8335L15.4078 16.2578L16.2563 15.4092ZM18.332 18.3335L18.7563 17.9092L16.2563 15.4092L15.832 15.8335L15.4078 16.2578L17.9078 18.7578L18.332 18.3335Z" fill="#979797"/>
</svg>
