<svg width="12" height="14" viewBox="0 0 12 14" fill="none" xmlns="http://www.w3.org/2000/svg">
<path d="M2.66797 13L2.66797 11" stroke="white" stroke-width="1.2" stroke-linecap="round" stroke-linejoin="round"/>
<path d="M9.33203 13L9.33203 9" stroke="white" stroke-width="1.2" stroke-linecap="round" stroke-linejoin="round"/>
<path d="M9.33203 3L9.33203 1" stroke="white" stroke-width="1.2" stroke-linecap="round" stroke-linejoin="round"/>
<path d="M2.66797 5L2.66797 1" stroke="white" stroke-width="1.2" stroke-linecap="round" stroke-linejoin="round"/>
<path d="M2.66797 11C2.04671 11 1.73609 11 1.49106 10.8985C1.16435 10.7632 0.904788 10.5036 0.769463 10.1769C0.667969 9.93188 0.667969 9.62126 0.667969 9C0.667969 8.37874 0.667969 8.06812 0.769463 7.82309C0.904788 7.49638 1.16435 7.23682 1.49106 7.10149C1.73609 7 2.04671 7 2.66797 7C3.28922 7 3.59985 7 3.84488 7.10149C4.17158 7.23682 4.43115 7.49638 4.56648 7.82309C4.66797 8.06812 4.66797 8.37874 4.66797 9C4.66797 9.62126 4.66797 9.93188 4.56648 10.1769C4.43115 10.5036 4.17158 10.7632 3.84488 10.8985C3.59985 11 3.28922 11 2.66797 11Z" stroke="white" stroke-width="1.2"/>
<path d="M9.33203 7C8.71078 7 8.40015 7 8.15512 6.89851C7.82842 6.76318 7.56885 6.50362 7.43353 6.17691C7.33203 5.93188 7.33203 5.62126 7.33203 5C7.33203 4.37874 7.33203 4.06812 7.43353 3.82309C7.56885 3.49638 7.82842 3.23682 8.15512 3.10149C8.40015 3 8.71078 3 9.33203 3C9.95329 3 10.2639 3 10.5089 3.10149C10.8356 3.23682 11.0952 3.49638 11.2305 3.82309C11.332 4.06812 11.332 4.37874 11.332 5C11.332 5.62126 11.332 5.93188 11.2305 6.17691C11.0952 6.50362 10.8356 6.76318 10.5089 6.89851C10.2639 7 9.95329 7 9.33203 7Z" stroke="white" stroke-width="1.2"/>
</svg>
