<svg width="25" height="24" viewBox="0 0 25 24" fill="none" xmlns="http://www.w3.org/2000/svg">
<path d="M7.97283 7.69711H17.0176V8.81375H7.97283V7.69711ZM17.0176 4.52236C17.0176 2.02479 14.9928 0 12.4952 0C9.99734 0 7.97283 2.02479 7.97283 4.52236V7.02713H17.0176V4.52236ZM7.97283 11.8211C7.96759 12.4165 8.08052 13.0071 8.30509 13.5586C8.52967 14.11 8.86142 14.6115 9.28113 15.0339C9.70085 15.4563 10.2002 15.7912 10.7502 16.0193C11.3003 16.2474 11.8901 16.364 12.4856 16.3626C14.9897 16.3626 17.0176 14.3092 17.0176 11.7855V9.48372H7.97283V11.8211Z" fill="#1F458A"/>
<path d="M4.34375 10.0979V12.0934C4.35224 16.254 7.49801 19.7376 11.6361 20.1694C11.7185 20.1779 11.7949 20.2166 11.8505 20.2781C11.9061 20.3396 11.9368 20.4196 11.9368 20.5025V22.4925C11.9368 22.6775 11.7868 22.8275 11.6019 22.8275H9.08944V24H15.9009V22.8275H13.3885C13.2033 22.8275 13.0535 22.6775 13.0535 22.4925V20.5029C13.0534 20.42 13.0841 20.3401 13.1396 20.2785C13.195 20.217 13.2714 20.1781 13.3538 20.1696C15.1619 19.975 16.865 19.2239 18.2279 18.0199C19.7651 16.6586 20.6465 14.9537 20.6465 13.3425V10.0979H19.4741V13.3425C19.4741 14.6244 18.7214 16.0564 17.4611 17.1724C16.094 18.3953 14.3263 19.075 12.4921 19.0831C11.5744 19.0846 10.6655 18.9048 9.81756 18.5538C8.96964 18.2029 8.19943 17.6879 7.55122 17.0383C6.90292 16.3888 6.38938 15.6176 6.04013 14.769C5.69088 13.9204 5.51281 13.0111 5.51616 12.0934V10.0979H4.34375Z" fill="#1F458A"/>
</svg>
