<svg width="14" height="14" viewBox="0 0 14 14" fill="none" xmlns="http://www.w3.org/2000/svg">
<path d="M12.2203 4.80003L9.20031 1.78003C8.56698 1.1467 7.69364 0.806699 6.80031 0.853366L3.46698 1.01337C2.13364 1.07337 1.07364 2.13337 1.00698 3.46003L0.846976 6.79337C0.806976 7.6867 1.14031 8.56003 1.77364 9.19337L4.79364 12.2134C6.03364 13.4534 8.04698 13.4534 9.29364 12.2134L12.2203 9.2867C13.467 8.05337 13.467 6.04003 12.2203 4.80003ZM5.33364 7.25337C4.27364 7.25337 3.41364 6.39337 3.41364 5.33337C3.41364 4.27337 4.27364 3.41337 5.33364 3.41337C6.39364 3.41337 7.25364 4.27337 7.25364 5.33337C7.25364 6.39337 6.39364 7.25337 5.33364 7.25337Z" fill="#7C7C7C"/>
</svg>
