<svg width="12" height="16" viewBox="0 0 12 16" fill="none" xmlns="http://www.w3.org/2000/svg">
<path d="M6.00293 0.833008C8.03677 0.833096 9.96842 2.07027 10.7754 4.01074C11.5256 5.815 11.1189 7.35617 10.2764 8.66895C9.58069 9.75287 8.56208 10.7178 7.65625 11.5762L7.1875 12.0225C6.86935 12.3288 6.44466 12.4999 6.00293 12.5C5.56108 12.5 5.13561 12.3289 4.81739 12.0225L4.81641 12.0215C4.65691 11.8669 4.49055 11.7088 4.32032 11.5469C3.42403 10.6944 2.41901 9.73838 1.73047 8.66797C0.886992 7.35652 0.479283 5.81715 1.23047 4.01074C2.03747 2.0702 3.96901 0.833008 6.00293 0.833008ZM6 4C4.89543 4 4 4.89543 4 6C4 7.10457 4.89543 8 6 8C7.10457 8 8 7.10457 8 6C8 4.89543 7.10457 4 6 4Z" fill="#7C7C7C"/>
<path d="M2.0026 12.5C2.35007 12.5 2.63545 12.7658 2.66647 13.1052C2.67801 13.1179 2.69766 13.1369 2.72959 13.1621C2.84851 13.2558 3.06189 13.3693 3.385 13.477C4.02424 13.6901 4.94975 13.8333 6.0026 13.8333C7.05546 13.8333 7.98097 13.6901 8.62021 13.477C8.94332 13.3693 9.1567 13.2558 9.27561 13.1621C9.30755 13.1369 9.3272 13.1179 9.33873 13.1052C9.36976 12.7658 9.65514 12.5 10.0026 12.5C10.3708 12.5 10.6693 12.7985 10.6693 13.1667C10.6693 13.6426 10.3793 13.9899 10.1009 14.2093C9.815 14.4346 9.4426 14.6083 9.04185 14.7419C8.23338 15.0114 7.15889 15.1667 6.0026 15.1667C4.84632 15.1667 3.77183 15.0114 2.96336 14.7419C2.56261 14.6083 2.1902 14.4346 1.90429 14.2093C1.6259 13.9899 1.33594 13.6426 1.33594 13.1667C1.33594 12.7985 1.63441 12.5 2.0026 12.5Z" fill="#7C7C7C"/>
</svg>
