<svg width="24" height="25" viewBox="0 0 24 25" fill="none" xmlns="http://www.w3.org/2000/svg">
<path d="M21 6.64722C17.67 6.31722 14.32 6.14722 10.98 6.14722C9 6.14722 7.02 6.24722 5.04 6.44722L3 6.64722" stroke="#FF0000" stroke-width="1.5" stroke-linecap="round" stroke-linejoin="round"/>
<path d="M8.5 5.63675L8.72 4.32675C8.88 3.37675 9 2.66675 10.69 2.66675H13.31C15 2.66675 15.13 3.41675 15.28 4.33675L15.5 5.63675" stroke="#FF0000" stroke-width="1.5" stroke-linecap="round" stroke-linejoin="round"/>
<path d="M18.8484 9.8064L18.1984 19.8764C18.0884 21.4464 17.9984 22.6664 15.2084 22.6664H8.78844C5.99844 22.6664 5.90844 21.4464 5.79844 19.8764L5.14844 9.8064" stroke="#FF0000" stroke-width="1.5" stroke-linecap="round" stroke-linejoin="round"/>
<path d="M10.3281 17.1667H13.6581" stroke="#FF0000" stroke-width="1.5" stroke-linecap="round" stroke-linejoin="round"/>
<path d="M9.5 13.1667H14.5" stroke="#FF0000" stroke-width="1.5" stroke-linecap="round" stroke-linejoin="round"/>
</svg>
