<svg width="25" height="24" viewBox="0 0 25 24" fill="none" xmlns="http://www.w3.org/2000/svg">
<path d="M3.59766 0.515625H19.7446V21.5442H3.59766V0.515625Z" fill="#1F458A"/>
<path d="M3.59766 0.515625H4.14333V21.5442H3.59766V0.515625Z" fill="#1F458A"/>
<path fill-rule="evenodd" clip-rule="evenodd" d="M1.65625 2.45581H14.5484L17.8032 5.71062V23.4845H1.65625V2.45581Z" fill="#E9ECF3"/>
<path fill-rule="evenodd" clip-rule="evenodd" d="M14.5508 2.45581L17.8056 5.71062H14.5508V2.45581Z" fill="#6982B1"/>
<path fill-rule="evenodd" clip-rule="evenodd" d="M15.7785 14.9653L15.293 18.4851L18.0984 16.3046L23.1685 7.52289C23.5368 6.88493 23.3162 6.06161 22.6783 5.69332C22.0403 5.32497 21.217 5.54557 20.8487 6.18354L15.7786 14.9652L15.7785 14.9653Z" fill="#2A92FA"/>
<path fill-rule="evenodd" clip-rule="evenodd" d="M15.293 18.4851L18.0984 16.3046L23.1685 7.52294C23.5368 6.88497 23.3162 6.06166 22.6783 5.69336L15.293 18.4851Z" fill="#4EB1FC"/>
<path fill-rule="evenodd" clip-rule="evenodd" d="M20.0508 7.56627L22.3706 8.90563L23.1689 7.52296C23.5372 6.88504 23.3166 6.06173 22.6786 5.69338C22.0416 5.32555 21.2169 5.54652 20.8491 6.1836L20.0508 7.56627H20.0508Z" fill="#323E66"/>
<path fill-rule="evenodd" clip-rule="evenodd" d="M21.2109 8.23591L22.3708 8.90556L23.1691 7.52289C23.5374 6.88497 23.3168 6.06166 22.6789 5.69336L21.2109 8.23591Z" fill="#3D4A75"/>
<path d="M20.0508 7.56664L20.6017 6.61255L22.9214 7.95186L22.3705 8.906L20.0508 7.56664Z" fill="#BAC5DB"/>
<path d="M21.2109 8.23661L21.7618 7.28247L22.9216 7.95213L22.3708 8.90631L21.2109 8.23661Z" fill="#6982B1"/>
<path fill-rule="evenodd" clip-rule="evenodd" d="M15.7786 14.9653L15.293 18.4851L18.0984 16.3047L15.7786 14.9653Z" fill="#BAC5DB"/>
<path fill-rule="evenodd" clip-rule="evenodd" d="M15.293 18.4851L18.0984 16.3047L16.9385 15.635L15.293 18.4851Z" fill="#6982B1"/>
<path fill-rule="evenodd" clip-rule="evenodd" d="M15.5004 16.9817L15.293 18.4851L16.4912 17.5538L15.5004 16.9817Z" fill="#3D4A75"/>
<path fill-rule="evenodd" clip-rule="evenodd" d="M11.6054 17.5275C11.6054 17.8905 11.3084 18.1875 10.9455 18.1875H8.51542C8.15247 18.1875 7.85547 17.8905 7.85547 17.5275V17.1773C7.85547 15.361 5.98047 14.8508 5.98047 12.4099C5.98047 10.1703 7.85542 9.05054 9.73042 9.05054C11.6054 9.05054 13.4804 10.1703 13.4804 12.4099C13.4804 14.8508 11.6054 15.361 11.6054 17.1773V17.5275Z" fill="#1F458A"/>
<path fill-rule="evenodd" clip-rule="evenodd" d="M11.6039 17.5274C11.6039 17.8904 11.3069 18.1874 10.9439 18.1874H9.38652C9.02356 18.1874 8.72656 17.8904 8.72656 17.5274V17.1772C8.72656 15.3609 6.85156 14.8507 6.85156 12.4098C6.85156 10.3443 8.44639 9.2313 10.1652 9.0708C11.884 9.23135 13.4788 10.3443 13.4788 12.4098C13.4788 14.8507 11.6038 15.3609 11.6038 17.1772V17.5274H11.6039Z" fill="white"/>
<path fill-rule="evenodd" clip-rule="evenodd" d="M8.72656 17.6223H10.7324V18.5543C10.7324 18.8321 10.505 19.0594 10.2273 19.0594H9.23164C8.95386 19.0594 8.72656 18.8321 8.72656 18.5543V17.6223Z" fill="#5D689E"/>
<path fill-rule="evenodd" clip-rule="evenodd" d="M9.33203 17.6223H10.7327V18.5543C10.7327 18.8321 10.5053 19.0594 10.2276 19.0594H9.83711C9.55933 19.0594 9.33203 18.8321 9.33203 18.5543V17.6223Z" fill="#7986BF"/>
<path fill-rule="evenodd" clip-rule="evenodd" d="M11.6055 17.5274C11.6055 17.8904 11.3085 18.1874 10.9455 18.1874H8.51542C8.15242 18.1874 7.85547 17.8904 7.85547 17.5274V17.1772H11.6054V17.5274H11.6055Z" fill="#7986BF"/>
<path fill-rule="evenodd" clip-rule="evenodd" d="M11.6039 17.5274C11.6039 17.8901 11.3074 18.1869 10.9448 18.1874H9.38652C9.02356 18.1874 8.72656 17.8904 8.72656 17.5274V17.1772H11.6039V17.5274Z" fill="#909CD1"/>
<path d="M1.65625 2.45581H2.20192V23.4844H1.65625V2.45581Z" fill="#D1D1F0"/>
<path fill-rule="evenodd" clip-rule="evenodd" d="M22.5591 5.89641C22.3062 5.74974 22.0073 5.71064 21.7222 5.78766C21.4349 5.86402 21.1981 6.04632 21.0509 6.30103L20.9199 6.52632L22.8349 7.63125L22.9637 7.40574C23.2695 6.87788 23.0879 6.20105 22.5591 5.89641ZM19.5106 14.3278L18.299 16.4218C18.2852 16.448 18.2645 16.471 18.2416 16.4896L18.037 16.6475V21.3099H19.5106V14.3278ZM17.5702 23.2501V17.0119L15.4344 18.6702C15.3937 18.7021 15.3435 18.7194 15.2919 18.7194C15.2507 18.7195 15.2103 18.7088 15.1746 18.6882C15.0918 18.6404 15.0459 18.5475 15.0597 18.4532L15.5448 14.9334C15.5493 14.9035 15.5585 14.8744 15.5747 14.8481L17.5702 11.3934V5.94516H14.5493C14.5185 5.94528 14.4879 5.9393 14.4594 5.92756C14.4309 5.91582 14.405 5.89855 14.3832 5.87675C14.3614 5.85495 14.3441 5.82904 14.3324 5.80053C14.3207 5.77203 14.3147 5.74148 14.3148 5.71064V2.69021H1.89091V23.2501H17.5702ZM3.8313 2.22141V0.750049H19.5106V8.03288L18.0369 10.5816V5.71064C18.0369 5.64835 18.0139 5.58882 17.9702 5.54489L14.7148 2.28971C14.6708 2.24602 14.6113 2.22148 14.5493 2.22141H3.8313ZM22.2832 8.58558L20.3704 7.48022L20.6854 6.93235L22.6005 8.03728L22.2832 8.58558ZM22.0487 8.99161L18.0116 15.9845L17.2576 15.5493L21.2946 8.55619L22.0487 8.99161ZM17.6783 16.3335L16.4713 17.272L15.7517 16.8577L15.9609 15.3427L17.6783 16.3335V16.3335ZM15.6023 17.9465L15.685 17.3588L16.0713 17.5823L15.6023 17.9465ZM16.0966 14.8796L20.1359 7.88621L20.89 8.32163L16.8506 15.315L16.0966 14.8796ZM14.7838 5.47636V3.02147L17.2369 5.47636H14.7838ZM23.3707 7.64021L19.9773 13.5158V21.5442C19.9774 21.575 19.9714 21.6056 19.9597 21.6341C19.948 21.6626 19.9307 21.6885 19.9089 21.7103C19.8871 21.7321 19.8612 21.7493 19.8327 21.7611C19.8042 21.7728 19.7736 21.7788 19.7428 21.7787H18.0369V23.4843C18.0369 23.6138 17.9335 23.7186 17.8047 23.7186H1.65639C1.52763 23.7186 1.42188 23.6138 1.42188 23.4843V2.45569C1.42188 2.32627 1.52763 2.22141 1.65639 2.22141H3.36227V0.515534C3.36215 0.484716 3.36815 0.454182 3.37989 0.425692C3.39164 0.397202 3.40892 0.37132 3.43072 0.34954C3.45252 0.327759 3.47842 0.310512 3.50692 0.298791C3.53542 0.287071 3.56596 0.28111 3.59678 0.281252H19.7428C19.7736 0.28111 19.8041 0.287071 19.8326 0.298791C19.8611 0.310512 19.887 0.327759 19.9088 0.34954C19.9306 0.37132 19.9479 0.397202 19.9597 0.425692C19.9714 0.454182 19.9774 0.484716 19.9773 0.515534V7.2211L20.644 6.06652C20.8532 5.70375 21.1935 5.4435 21.6004 5.33475C22.0073 5.22553 22.4326 5.28094 22.7936 5.49038C23.5454 5.92397 23.8052 6.88866 23.3706 7.64021H23.3707ZM10.3605 14.055C10.257 14.3143 10.1305 14.4989 9.99264 14.5945C10.0823 13.7202 10.3513 13.4321 10.4364 13.394C10.4732 13.4526 10.5122 13.6726 10.3605 14.055ZM13.2365 12.4134C13.2365 13.6457 12.7308 14.3513 12.2433 15.0336C11.8502 15.5817 11.4456 16.147 11.3766 16.936H9.96503V15.117C10.2271 15.0552 10.5513 14.8407 10.795 14.228C10.9996 13.7146 10.9835 13.2735 10.7559 13.0491C10.6225 12.9187 10.4364 12.8858 10.2593 12.9608C9.94895 13.0907 9.62247 13.5852 9.52361 14.5814C9.27302 14.4131 9.01783 14.009 8.92586 13.4151C8.90748 13.287 8.78561 13.1995 8.65919 13.2193C8.53047 13.2395 8.44309 13.3595 8.46377 13.4869C8.58789 14.2899 8.99945 14.9137 9.496 15.0891V16.9361H8.08211C8.01316 16.1471 7.61078 15.5817 7.21769 15.0337C6.72798 14.3513 6.2222 13.6457 6.2222 12.4135C6.2222 10.2713 8.04072 9.29578 9.73052 9.29578C11.4203 9.29578 13.2365 10.2712 13.2365 12.4134ZM11.3651 17.52C11.3651 17.7538 11.1766 17.9442 10.9421 17.9442H8.51669C8.28447 17.9442 8.09369 17.7538 8.09369 17.52V17.4046H11.3652V17.52H11.3651ZM10.4961 18.5447C10.4961 18.6932 10.3743 18.8141 10.2272 18.8141H9.23397C9.08453 18.8141 8.9627 18.6932 8.9627 18.5447V18.413H10.4962V18.5447H10.4961ZM13.7056 12.4134C13.7056 13.7963 13.1308 14.5987 12.6227 15.3065C12.1997 15.8967 11.8342 16.4062 11.8342 17.1703V17.52C11.8342 18.0046 11.448 18.3994 10.9652 18.4116V18.5447C10.9652 18.9516 10.6341 19.2829 10.2272 19.2829H9.23397C8.82705 19.2829 8.49367 18.9517 8.49367 18.5447V18.4116C8.01316 18.3994 7.62461 18.0046 7.62461 17.52V17.1703C7.62461 16.4061 7.25908 15.8967 6.83608 15.3065C6.328 14.5987 5.75322 13.7963 5.75322 12.4134C5.75322 11.304 6.19005 10.371 7.01078 9.71625C7.73036 9.14288 8.69598 8.82699 9.73052 8.82699C10.765 8.82699 11.7284 9.14288 12.448 9.71625C13.271 10.371 13.7055 11.304 13.7055 12.4134H13.7056ZM9.73056 8.20786C9.69973 8.20799 9.66918 8.202 9.64067 8.19026C9.61216 8.17852 9.58626 8.16125 9.56446 8.13945C9.54266 8.11765 9.52539 8.09175 9.51365 8.06324C9.5019 8.03473 9.49592 8.00418 9.49605 7.97335V6.89142C9.49595 6.86061 9.50195 6.83008 9.5137 6.8016C9.52545 6.77311 9.54273 6.74724 9.56453 6.72546C9.58633 6.70368 9.61222 6.68643 9.64072 6.67471C9.66921 6.66298 9.69975 6.65701 9.73056 6.65714C9.85928 6.65714 9.96503 6.76219 9.96503 6.89142V7.97335C9.9649 8.03549 9.94015 8.09506 9.89621 8.13901C9.85227 8.18296 9.79271 8.20771 9.73056 8.20786ZM4.96009 12.0732C5.08886 12.0863 5.18083 12.2015 5.16934 12.33C5.15781 12.4509 5.05436 12.5408 4.93713 12.5408C4.92869 12.5407 4.92026 12.5403 4.91186 12.5396L3.83594 12.4306C3.70717 12.4175 3.61291 12.3028 3.62673 12.1739C3.62948 12.1433 3.63829 12.1135 3.65266 12.0863C3.66703 12.0592 3.68666 12.0351 3.71041 12.0156C3.73417 11.9961 3.76157 11.9816 3.79102 11.9728C3.82046 11.964 3.85137 11.9611 3.88192 11.9644L4.96014 12.0732H4.96009ZM13.5124 8.2575C13.5331 8.23465 13.558 8.21608 13.5858 8.20287C13.6136 8.18966 13.6437 8.18205 13.6745 8.1805C13.7052 8.17894 13.736 8.18345 13.765 8.19379C13.794 8.20412 13.8206 8.22007 13.8435 8.24072C13.8664 8.26131 13.885 8.28623 13.8982 8.31405C13.9114 8.34187 13.919 8.37203 13.9205 8.40279C13.922 8.43355 13.9174 8.46431 13.9069 8.49328C13.8964 8.52225 13.8804 8.54885 13.8595 8.57156L13.1354 9.37463C13.1133 9.39903 13.0863 9.41852 13.0562 9.43183C13.0261 9.44514 12.9935 9.45197 12.9606 9.45188C12.9027 9.45201 12.8469 9.43024 12.8043 9.39094C12.7077 9.30427 12.7008 9.156 12.7859 9.05991L13.5124 8.25755L13.5124 8.2575ZM15.8344 12.1739C15.8459 12.3029 15.754 12.4176 15.6252 12.4307L14.547 12.5397C14.5165 12.5428 14.4856 12.5398 14.4562 12.531C14.4268 12.5221 14.3995 12.5075 14.3757 12.488C14.352 12.4685 14.3324 12.4445 14.318 12.4174C14.3036 12.3903 14.2947 12.3606 14.2918 12.33C14.278 12.2015 14.3723 12.0863 14.501 12.0732L15.5769 11.9645C15.7057 11.9509 15.8206 12.045 15.8344 12.1739H15.8344ZM6.3257 9.37463L5.59923 8.57156C5.51186 8.47594 5.52105 8.32739 5.61531 8.24072C5.71188 8.15381 5.86131 8.16141 5.94639 8.2575L6.67286 9.05986C6.76023 9.15596 6.75105 9.30422 6.65678 9.39089C6.61334 9.43025 6.55678 9.45199 6.49816 9.45183C6.46562 9.45167 6.43349 9.44471 6.4038 9.43141C6.37411 9.41811 6.34752 9.39875 6.32575 9.37458L6.3257 9.37463Z" fill="black"/>
</svg>
