<svg width="25" height="24" viewBox="0 0 25 24" fill="none" xmlns="http://www.w3.org/2000/svg">
<g clip-path="url(#clip0_1232_2935)">
<mask id="mask0_1232_2935" style="mask-type:luminance" maskUnits="userSpaceOnUse" x="0" y="0" width="25" height="24">
<path d="M0.5 0H24.5V24H0.5V0Z" fill="white"/>
</mask>
<g mask="url(#mask0_1232_2935)">
<path d="M5.60156 12.4C5.60156 11.9491 5.78067 11.5167 6.09948 11.1979C6.41829 10.8791 6.85069 10.7 7.30156 10.7C7.75243 10.7 8.18483 10.8791 8.50364 11.1979C8.82246 11.5167 9.00156 11.9491 9.00156 12.4C9.00156 12.8508 8.82246 13.2832 8.50364 13.602C8.18483 13.9208 7.75243 14.1 7.30156 14.1C6.85069 14.1 6.41829 13.9208 6.09948 13.602C5.78067 13.2832 5.60156 12.8508 5.60156 12.4Z" fill="#4C6AA1"/>
<path fill-rule="evenodd" clip-rule="evenodd" d="M10.812 1.37805C10.3363 1.25057 9.84012 1.21804 9.35183 1.28233C8.86355 1.34661 8.39271 1.50645 7.9662 1.75272C7.53969 1.99898 7.16587 2.32685 6.86609 2.7176C6.5663 3.10835 6.34642 3.55432 6.219 4.03005L6.011 4.80605C5.95955 4.99833 5.98659 5.20318 6.08617 5.37552C6.18575 5.54787 6.34972 5.6736 6.542 5.72505C6.73428 5.7765 6.93913 5.74946 7.11147 5.64988C7.28382 5.5503 7.40955 5.38633 7.461 5.19405L7.668 4.41805C7.82266 3.84176 8.19989 3.3505 8.71673 3.05232C9.23357 2.75414 9.84769 2.67347 10.424 2.82805L20.083 5.41605C20.6591 5.57072 21.1502 5.9478 21.4483 6.46441C21.7465 6.98102 21.8273 7.59487 21.673 8.17105L19.603 15.8991C19.5319 16.166 19.4123 16.4175 19.25 16.6411V11.0001C19.25 10.0055 18.8549 9.05166 18.1517 8.3484C17.4484 7.64514 16.4946 7.25005 15.5 7.25005H5.5C4.50544 7.25005 3.55161 7.64514 2.84835 8.3484C2.14509 9.05166 1.75 10.0055 1.75 11.0001V19.0001C1.75 19.9946 2.14509 20.9484 2.84835 21.6517C3.55161 22.355 4.50544 22.7501 5.5 22.7501H15.5C16.4946 22.7501 17.4484 22.355 18.1517 21.6517C18.8549 20.9484 19.25 19.9946 19.25 19.0001V18.5951C19.6902 18.3513 20.0766 18.0213 20.3863 17.6247C20.6959 17.2282 20.9223 16.7732 21.052 16.2871L23.122 8.55905C23.3792 7.59871 23.2446 6.57553 22.7477 5.71444C22.2507 4.85335 21.4322 4.22483 20.472 3.96705L10.812 1.37805ZM5.5 8.75005C4.90326 8.75005 4.33097 8.9871 3.90901 9.40906C3.48705 9.83102 3.25 10.4033 3.25 11.0001V18.8351C3.383 18.5751 3.568 18.3321 3.779 18.1211L5.439 16.4611C5.5783 16.3217 5.7437 16.2111 5.92575 16.1356C6.1078 16.0602 6.30294 16.0214 6.5 16.0214C6.69706 16.0214 6.8922 16.0602 7.07425 16.1356C7.2563 16.2111 7.4217 16.3217 7.561 16.4611L9.3 18.2001L13.44 14.0601C13.7213 13.7792 14.1025 13.6214 14.5 13.6214C14.8975 13.6214 15.2787 13.7792 15.56 14.0601L17.75 16.2501V11.0001C17.75 10.7046 17.6918 10.412 17.5787 10.139C17.4657 9.86603 17.2999 9.61799 17.091 9.40906C16.8821 9.20013 16.634 9.03439 16.361 8.92132C16.0881 8.80825 15.7955 8.75005 15.5 8.75005H5.5Z" fill="#4C6AA1"/>
</g>
</g>
<defs>
<clipPath id="clip0_1232_2935">
<rect width="24" height="24" fill="white" transform="translate(0.5)"/>
</clipPath>
</defs>
</svg>
