<svg width="17" height="16" viewBox="0 0 17 16" fill="none" xmlns="http://www.w3.org/2000/svg">
<g clip-path="url(#clip0_1504_14924)">
<path d="M12.7188 7.65625C12.7188 7.13931 12.2982 6.71875 11.7812 6.71875H10.8438C10.3268 6.71875 9.90625 7.13931 9.90625 7.65625V10.9375H12.7188V7.65625ZM2.40625 2.34375C2.40625 1.56844 3.03719 0.9375 3.8125 0.9375H4.75C5.38356 0.9375 5.9205 1.35888 6.09575 1.936C5.05756 2.17669 4.28125 3.10844 4.28125 4.21875V4.6875H8.96875V4.21875C8.96875 3.07288 8.14197 2.11709 7.05375 1.915C6.85166 0.826687 5.89575 0 4.75 0H3.8125C2.52031 0 1.46875 1.05125 1.46875 2.34375V6.71875H2.40625V2.34375Z" fill="#163162"/>
<path d="M13.6562 11.875H8.96875V10.4688H1.46875V11.875C1.46875 13.1016 2.14531 14.1729 3.14475 14.7359L2.54356 15.3371L3.20644 16L4.11253 15.0939C4.32248 15.1354 4.53599 15.1563 4.75 15.1562H12.25C12.4681 15.1562 12.6812 15.1347 12.8875 15.0939L13.7936 16L14.4565 15.3371L13.8553 14.7359C14.8547 14.1729 15.5312 13.1016 15.5312 11.875V10.4688H13.6562V11.875ZM15.5625 7.65625H13.6562V9.53125H15.5625C16.0794 9.53125 16.5 9.11063 16.5 8.59375C16.5 8.07687 16.0794 7.65625 15.5625 7.65625ZM8.96875 7.65625H1.4375C0.920625 7.65625 0.5 8.07687 0.5 8.59375C0.5 9.11063 0.920625 9.53125 1.4375 9.53125H8.96875V7.65625Z" fill="#163162"/>
</g>
<defs>
<clipPath id="clip0_1504_14924">
<rect width="16" height="16" fill="white" transform="translate(0.5)"/>
</clipPath>
</defs>
</svg>
